<?xml version="1.0" encoding="UTF-8" standalone="no"?>
<svg
   width="512"
   height="512"
   viewBox="0 0 512 512"
   fill="none"
   version="1.1"
   id="svg4"
   xmlns="http://www.w3.org/2000/svg"
   xmlns:svg="http://www.w3.org/2000/svg">
  <defs
     id="defs8" />
  <path
     d="M 0,56.006709 C 0,25.091006 25.088,0 56,0 h 400 c 30.912,0 56,25.091006 56,56.006709 V 360.04313 a 56,56.006709 0 0 1 -56,56.00671 H 257.92 l -82.336,82.34587 A 46.656,46.66159 0 0 1 96,465.43176 V 416.04984 H 56 A 56,56.006709 0 0 1 0,360.04313 Z m 56,-8.000958 a 8,8.0009585 0 0 0 -8,8.000958 V 360.04313 c 0,4.41653 3.584,8.00096 8,8.00096 h 64 a 24,24.002875 0 0 1 24,24.00288 v 70.08839 l 87.04,-87.05043 A 23.968,23.970872 0 0 1 248,368.04409 h 208 a 8,8.0009585 0 0 0 8,-8.00096 V 56.006709 a 8,8.0009585 0 0 0 -8,-8.000958 z m 224,72.008629 v 80.00958 a 24,24.002875 0 0 1 -48,0 v -80.00958 a 24,24.002875 0 0 1 48,0 z m 8,168.02013 a 32,32.003834 0 1 1 -64,0 32,32.003834 0 0 1 64,0 z"
     id="path2"
     style="fill:#000000;stroke-width:32.0019" />
</svg>
