<?xml version="1.0" encoding="UTF-8" standalone="no"?>
<svg
   width="512"
   height="512"
   viewBox="0 0 512 512"
   fill="none"
   version="1.1"
   id="svg4"
   xmlns="http://www.w3.org/2000/svg"
   xmlns:svg="http://www.w3.org/2000/svg">
  <defs
     id="defs8" />
  <path
     d="m 205.56272,43.231072 c 21.54127,-40.308096 79.3333,-40.308096 100.87456,0 L 505.24449,414.8887 A 57.203654,57.163021 0 0 1 454.80721,499 H 57.192786 A 57.203654,57.163021 0 0 1 6.7555079,414.8887 Z m 57.6286,23.09386 a 8.1719505,8.1661458 0 0 0 -14.38263,0 L 50.00147,437.98256 a 8.1719505,8.1661458 0 0 0 7.191316,12.02057 H 454.80721 a 8.1719505,8.1661458 0 0 0 7.19132,-12.02057 z M 280.51585,196.8526 v 81.66147 a 24.515852,24.498438 0 0 1 -49.0317,0 V 196.8526 a 24.515852,24.498438 0 0 1 49.0317,0 z m 8.17195,171.48908 a 32.687802,32.664583 0 1 1 -65.3756,0 32.687802,32.664583 0 0 1 65.3756,0 z"
     id="path2"
     style="fill:#000000;stroke-width:32.6762" />
</svg>
