<?xml version="1.0" encoding="UTF-8" standalone="no"?>
<svg
   width="512"
   height="512"
   viewBox="0 0 512 512"
   fill="none"
   version="1.1"
   id="svg4"
   xmlns="http://www.w3.org/2000/svg"
   xmlns:svg="http://www.w3.org/2000/svg">
  <defs
     id="defs8" />
  <path
     d="m 256,48 c -75.616,0 -128,54.08 -128,120 0,31.488 13.568,52 31.488,73.728 l 6.848,8.096 c 7.136,8.448 15.04,17.792 21.536,27.136 9.088,13.152 17.184,28.672 19.872,47.68 a 24,24 0 0 1 -47.488,6.752 c -1.28,-9.024 -5.216,-17.504 -11.84,-27.104 a 270.592,270.592 0 0 0 -17.344,-21.76 c -2.688,-3.2 -5.536,-6.56 -8.576,-10.24 C 102.432,248 80,216.512 80,168 80,73.92 155.616,0 256,0 c 100.384,0 176,73.92 176,168 0,48.512 -22.432,80 -42.496,104.288 -3.04,3.68 -5.888,7.04 -8.576,10.208 -6.624,7.84 -12.256,14.496 -17.312,21.792 -6.656,9.6 -10.56,18.08 -11.84,27.104 a 24.032,24.032 0 0 1 -47.52,-6.784 c 2.688,-18.976 10.784,-34.496 19.872,-47.648 6.496,-9.344 14.4,-18.688 21.536,-27.136 2.4,-2.816 4.704,-5.536 6.816,-8.096 C 370.432,220 384,199.488 384,168 384,102.08 331.616,48 256,48 Z m -72,336 h 144 a 24,24 0 0 1 0,48 H 184 a 24,24 0 0 1 0,-48 z m 8,104 a 24,24 0 0 1 24,-24 h 80 a 24,24 0 0 1 0,48 h -80 a 24,24 0 0 1 -24,-24 z"
     id="path2"
     style="fill:#000000;stroke-width:32" />
</svg>
