<?xml version="1.0" encoding="UTF-8" standalone="no"?>
<svg
   width="512"
   height="512"
   viewBox="0 0 512 512"
   fill="none"
   version="1.1"
   id="svg4"
   xmlns="http://www.w3.org/2000/svg"
   xmlns:svg="http://www.w3.org/2000/svg">
  <defs
     id="defs8" />
  <path
     d="m 0,256 a 256,256 0 1 1 512,0 256,256 0 0 1 -512,0 z M 256,48 a 208,208 0 1 0 0,416 208,208 0 0 0 0,-416 z m -48,200 a 24,24 0 0 1 24,-24 h 32 a 24,24 0 0 1 24,24 v 88 h 8 a 24,24 0 0 1 0,48 h -64 a 24,24 0 0 1 0,-48 h 8 v -64 h -8 a 24,24 0 0 1 -24,-24 z m 48,-56 a 32,32 0 1 1 0,-64 32,32 0 0 1 0,64 z"
     id="path2"
     style="fill:#000000;stroke-width:32" />
</svg>
