<svg
   width="512"
   height="512"
   viewBox="0 0 512 512"
   fill="none"
   version="1.1"
   xmlns="http://www.w3.org/2000/svg"
   xmlns:svg="http://www.w3.org/2000/svg">
  <path
     d="M 143.04006,7.04 A 23.968015,23.968015 0 0 1 160,0 h 192 c 6.36811,0 12.44789,2.528001 16.96019,7.04 L 504.95966,143.04006 C 509.47187,147.51994 512,153.63197 512,160 v 192 a 23.968015,23.968015 0 0 1 -7.03966,16.96019 L 368.96019,504.95966 A 23.968015,23.968015 0 0 1 352,512 H 160 a 23.968015,23.968015 0 0 1 -16.95994,-7.04034 L 7.04,368.96019 A 23.968015,23.968015 0 0 1 0,352 V 160 c 0,-6.36803 2.528001,-12.44803 7.04,-16.95994 z M 169.92006,48 48,169.92006 V 342.08021 L 169.92006,463.9997 H 342.08021 L 463.9997,342.08021 V 169.92006 L 342.08021,48 Z M 256,128 a 24.000006,24.000006 0 0 1 24.00013,23.99994 v 112.00019 a 24.000136,24.000136 0 0 1 -48.00018,0 V 151.99994 A 24.000006,24.000006 0 0 1 256,128 Z m 0,256 a 32,32 0 1 1 0,-64 32,32 0 0 1 0,64 z"
     style="fill:#000000;stroke-width:32.0018" />
</svg>
