<svg width="512" height="512" viewBox="0 0 512 512" fill="none" xmlns="http://www.w3.org/2000/svg">
<path d="M332.8 153.6H179.2V179.2H332.8V153.6Z" fill="#4B4B4B" />
<path d="M179.2 230.4H332.8V256H179.2V230.4Z" fill="#4B4B4B" />
<path d="M396.8 64H153.6C132.392 64 115.2 81.1923 115.2 102.4V409.6C115.2 430.808 132.392 448 153.6 448H396.8V64ZM371.2 345.6H153.6C149.112 345.6 144.804 346.37 140.8 347.785L140.8 102.4C140.8 95.3307 146.531 89.6 153.6 89.6L371.2 89.6L371.2 345.6ZM371.2 371.2V422.4H153.6C146.531 422.4 140.8 416.669 140.8 409.6L140.8 383.985C140.809 376.922 146.536 371.2 153.6 371.2H371.2Z" fill="#4B4B4B" />
</svg>