<svg id="icon-book" viewBox="0 0 512 512">
<path fill="#4b4b4b" d="M332.8 153.6h-153.6v25.6h153.6v-25.6z"></path>
<path fill="#4b4b4b" d="M179.2 230.4h153.6v25.6h-153.6v-25.6z"></path>
<path fill="#4b4b4b" d="M396.8 64v384h-243.2c-21.208 0-38.4-17.193-38.4-38.4v-307.2c0-21.208 17.192-38.4 38.4-38.4h243.2zM371.2 345.6v-256h-217.6c-7.069 0-12.8 5.731-12.8 12.8v245.386c4.004-1.416 8.312-2.186 12.8-2.186h217.6zM371.2 371.2h-217.6c-7.064 0-12.792 5.721-12.8 12.784v25.615c0 7.068 5.731 12.8 12.8 12.8h217.6v-51.2z"></path>
</svg>