<svg width="20" height="20" viewBox="0 0 20 20" fill="none" xmlns="http://www.w3.org/2000/svg">
<path d="M13 6H7V7H13V6Z" fill="#4B4B4B"/>
<path d="M7 9H13V10H7V9Z" fill="#4B4B4B"/>
<path fill-rule="evenodd" clip-rule="evenodd" d="M15.5 2.5H6C5.17157 2.5 4.5 3.17157 4.5 4V16C4.5 16.8284 5.17157 17.5 6 17.5H15.5V2.5ZM14.5 13.5L14.5 3.5L6 3.5C5.72386 3.5 5.5 3.72386 5.5 4L5.5 13.5854C5.65639 13.5301 5.82468 13.5 6 13.5H14.5ZM14.5 14.5H6C5.72406 14.5 5.50033 14.7235 5.5 14.9994L5.5 16C5.5 16.2761 5.72386 16.5 6 16.5H14.5V14.5Z" fill="#4B4B4B"/>
</svg>
