<svg width="512" height="512" viewBox="0 0 512 512" fill="none" xmlns="http://www.w3.org/2000/svg">
<path d="M64 448L64 51.2002H38.4L38.4 473.6H460.8V448L64 448Z" fill="#4B4B4B"/>
<path d="M204.8 166.4V115.2H179.2V166.4H140.8V345.6H179.2V384H204.8V345.6H243.2V166.4H204.8ZM166.4 192H217.6V243.2H166.4V192ZM166.4 320V268.8H217.6V320H166.4Z" fill="#4B4B4B"/>
<path d="M384 89.6002V51.2002H358.4V89.6002H320V371.2H358.4V409.6H384V371.2H422.4V89.6002H384ZM345.6 115.2H396.8V192H345.6V115.2ZM345.6 345.6V217.6H396.8V345.6H345.6Z" fill="#4B4B4B"/>
</svg>
