<svg width="20" height="20" viewBox="0 0 20 20" fill="none" xmlns="http://www.w3.org/2000/svg">
<path fill-rule="evenodd" clip-rule="evenodd" d="M2.5 17.5L2.5 2H1.5L1.5 18.5H18V17.5L2.5 17.5Z" fill="#4B4B4B"/>
<path fill-rule="evenodd" clip-rule="evenodd" d="M8 6.5V4.5H7V6.5H5.5V13.5H7V15H8V13.5H9.5V6.5H8ZM6.5 7.5V9.5H8.5V7.5H6.5ZM6.5 12.5V10.5H8.5V12.5H6.5Z" fill="#4B4B4B"/>
<path fill-rule="evenodd" clip-rule="evenodd" d="M15 3.5V2H14V3.5H12.5V14.5H14V16H15V14.5H16.5V3.5H15ZM13.5 4.5V7.5H15.5V4.5H13.5ZM13.5 13.5V8.5H15.5V13.5H13.5Z" fill="#4B4B4B"/>
</svg>
