<svg width="512" height="512" viewBox="0 0 512 512" fill="none" xmlns="http://www.w3.org/2000/svg">
<path fill="#4B4B4B" d="M 255.60156 24.099609 C 178.93491 63.533849 102.26665 102.96691 25.599609 142.40039 L 25.599609 413.69922 L 142.49023 413.69922 L 142.46289 483.69141 L 247.98438 413.69922 L 485.59961 413.69922 L 485.59961 142.40039 C 408.93363 102.9661 332.26646 63.535979 255.60156 24.099609 z M 255.60156 52.234375 L 453.85938 153.00781 L 255.59961 265.96094 L 57.339844 153.00781 L 255.60156 52.234375 z M 51.154297 178.55273 L 231.41602 279.50391 L 51.154297 380.45703 L 51.154297 178.55273 z M 460.04492 178.55273 L 460.04492 391.0918 L 236.83984 391.0918 L 167.48047 437.09766 L 167.49805 391.0918 L 80.53125 391.0918 C 207.60017 319.92975 345.47197 242.71709 460.04492 178.55273 z " />
</svg>