<svg width="512" height="512" viewBox="0 0 512 512" fill="none" xmlns="http://www.w3.org/2000/svg">
<path fill="#4B4B4B" d="M 25.599609,106.40039 V 377.69922 H 142.49023 l -0.0273,69.99219 105.52149,-69.99219 h 60.38281 a 100,100 0 0 0 95.21093,69.84961 100,100 0 0 0 100,-100 100,100 0 0 0 -17.97851,-57.1543 V 106.40039 Z m 49.740235,22.60742 H 435.85938 L 255.59961,229.96094 Z M 51.154297,142.55273 231.41602,243.50391 51.154297,344.45703 Z m 408.890623,0 v 122.49024 a 100,100 0 0 0 -56.4668,-17.49414 100,100 0 0 0 -100,100 100,100 0 0 0 0.53907,7.54297 h -67.27735 l -69.35937,46.00586 0.0176,-46.00586 H 80.53125 C 207.60017,283.92975 345.47197,206.71709 460.04492,142.55273 Z M 349.97266,327.48438 a 20,20 0 0 1 20,20 20,20 0 0 1 -20,20 20,20 0 0 1 -20,-20 20,20 0 0 1 20,-20 z m 54.64843,0 a 20,20 0 0 1 20,20 20,20 0 0 1 -20,20 20,20 0 0 1 -20,-20 20,20 0 0 1 20,-20 z m 54.64649,0 a 20,20 0 0 1 20,20 20,20 0 0 1 -20,20 20,20 0 0 1 -20,-20 20,20 0 0 1 20,-20 z" />
</svg>
