<svg width="512" height="512" viewBox="0 0 512 512" fill="none" xmlns="http://www.w3.org/2000/svg">
<path d="M 256,12.800781 C 160.36743,11.472577 68.137745,72.939631 31.912471,161.33556 -5.9083767,248.17463 13.660553,356.04857 79.955431,423.79327 143.74098,492.44119 248.82749,517.48793 336.81875,485.4483 428.02395,454.46576 495.26954,364.8709 498.88277,268.51507 504.93719,174.84596 450.64465,81.219203 366.71717,39.406491 332.62142,21.8851 294.32574,12.742424 256,12.800781 Z m 0,25.59961 c 94.76301,-1.603629 184.80656,66.535209 209.34484,158.029029 14.83879,51.78485 9.54061,109.0338 -14.83703,157.09792 -10.31216,-10.37223 -28.37922,-42.44766 -35.77996,-14.70465 -24.79599,37.4898 -85.14069,39.7006 -112.61494,4.12784 -7.43468,-9.61877 -10.82167,-25.1846 -21.44096,-8.95781 -36.95393,35.53077 -55.2692,86.47282 -59.93367,136.72017 -63.31286,-9.94887 -120.873461,-49.86703 -152.833983,-105.35351 46.934863,-0.003 93.880393,0.005 140.808593,-0.004 -0.15665,-39.96963 -13.46888,-82.91537 -45.72851,-108.54297 -11.28568,30.7065 -56.8422,37.49891 -76.60863,11.44269 C 74.799537,242.56328 55.055536,286.25959 47.62359,299.11081 39.961525,313.41125 38.949968,267.82371 38.400391,256 36.796762,161.23699 104.9356,71.193438 196.42942,46.655162 215.77555,41.153455 235.8899,38.394307 256,38.400391 Z m 4.2207,14.164062 c -30.09876,-1.565316 -48.94611,38.401388 -28.59612,60.631217 17.84503,24.05989 60.36729,13.5013 64.90177,-16.104049 5.17014,-22.22566 -13.48594,-45.124685 -36.30565,-44.527168 z m -41.36132,56.984377 c -32.25916,25.62871 -45.57072,68.57496 -45.72657,108.54497 58.33267,-0.001 116.67067,0.003 175,-0.002 -0.15664,-39.96963 -13.46887,-82.91538 -45.72851,-108.54297 -11.691,32.05849 -60.134,37.4759 -78.63402,8.81448 -1.9589,-2.74275 -3.60852,-5.70588 -4.9109,-8.81448 z m -98.0586,90.27929 c -30.098765,-1.56532 -48.946107,38.4014 -28.596122,60.63123 17.845032,24.05989 60.367282,13.50128 64.901772,-16.10406 5.17015,-22.22565 -13.48594,-45.12469 -36.30565,-44.52717 z m 235.38281,35.64063 c -37.7768,-1.44346 -68.18042,39.8672 -55.59209,75.51859 9.84192,36.23846 57.794,53.12076 88.13641,30.95761 31.83277,-19.78869 34.27803,-70.43634 4.48097,-93.18349 -10.30433,-8.56176 -23.6273,-13.34615 -37.02529,-13.29271 z" fill="#4b4b4b" />
</svg>
