<svg width="512" height="512" viewBox="0 0 512 512" fill="none" xmlns="http://www.w3.org/2000/svg">
<path d="M 256 12.800781 C 121.684 12.800781 12.800781 121.684 12.800781 256 C 12.800781 390.316 121.684 499.19922 256 499.19922 C 390.316 499.19922 499.19922 390.316 499.19922 256 C 499.19922 121.684 390.316 12.800781 256 12.800781 z M 256 38.400391 C 376.177 38.400391 473.59961 135.823 473.59961 256 C 473.59961 291.07652 465.25018 324.1843 450.50781 353.52734 C 442.04139 342.38025 432.61124 332.78801 422.44141 324.97852 C 411.35984 351.41493 385.49512 368.61854 356.83008 368.61914 C 328.16433 368.61933 302.29865 351.41558 291.2168 324.97852 C 252.53056 354.79233 226.31963 408.99088 220.73828 470.71289 C 155.45899 460.0715 99.971707 420.39402 67.904297 365.35938 L 208.71289 365.35938 L 208.71289 365.35547 C 208.71282 320.07742 191.16608 278.42784 162.98438 256.8125 C 155.92997 273.64514 139.46204 284.59938 121.21094 284.59961 C 102.96055 284.5987 86.493589 273.64449 79.439453 256.8125 C 64.583219 268.35119 52.423118 285.7356 44.435547 306.84961 C 40.526674 290.52989 38.400391 273.51796 38.400391 256 C 38.400391 135.823 135.823 38.400391 256 38.400391 z M 260.2207 52.564453 C 239.75387 52.564619 223.16227 69.15622 223.16211 89.623047 C 223.16227 110.08987 239.75387 126.68147 260.2207 126.68164 C 280.68753 126.68148 297.27914 110.08988 297.2793 89.623047 C 297.27914 69.156216 280.68753 52.564613 260.2207 52.564453 z M 218.85938 109.54883 C 190.6784 131.16489 173.13249 172.81433 173.13281 218.0918 L 173.13281 218.09375 L 348.13281 218.09375 L 348.13281 218.0918 C 348.13274 172.81375 330.58602 131.16417 302.4043 109.54883 C 295.34956 126.38005 278.88272 137.3333 260.63281 137.33398 C 242.38219 137.33408 225.91439 126.3807 218.85938 109.54883 z M 120.80078 199.82812 C 100.33395 199.82828 83.742346 216.41989 83.742188 236.88672 C 83.742351 257.35355 100.33395 273.94515 120.80078 273.94531 C 141.26761 273.94515 157.8592 257.35355 157.85938 236.88672 C 157.85922 216.41989 141.26761 199.82828 120.80078 199.82812 z M 356.18359 235.46875 C 324.03559 235.46859 297.97445 261.52973 297.97461 293.67773 C 297.97444 325.82573 324.03559 351.88688 356.18359 351.88672 C 388.33083 351.8858 414.3908 325.82497 414.39062 293.67773 C 414.39078 261.53049 388.33083 235.46967 356.18359 235.46875 z " fill="#4B4B4B" />
</svg>