<svg width="512" height="512" viewBox="0 0 512 512" fill="none" xmlns="http://www.w3.org/2000/svg">
<path d="M 256 12.800781 C 121.684 12.800781 12.800781 121.684 12.800781 256 C 12.800781 390.316 121.684 499.19922 256 499.19922 C 390.316 499.19922 499.19922 390.316 499.19922 256 C 499.19922 121.684 390.316 12.800781 256 12.800781 z M 256 38.400391 C 376.177 38.400391 473.59961 135.823 473.59961 256 C 473.59961 376.177 376.177 473.59961 256 473.59961 C 135.823 473.59961 38.400391 376.177 38.400391 256 C 38.400391 135.823 135.823 38.400391 256 38.400391 z M 255.35352 108.5 A 58.235282 58.235282 0 0 0 197.11719 166.73438 A 58.235282 58.235282 0 0 0 255.35352 224.9707 A 58.235282 58.235282 0 0 0 313.58789 166.73438 A 58.235282 58.235282 0 0 0 255.35352 108.5 z M 190.35742 198.04883 A 137.50016 194.11581 0 0 0 118.5 368.61719 A 137.50016 194.11581 0 0 0 118.5 368.61914 L 393.5 368.61914 A 137.50016 194.11581 0 0 0 393.5 368.61719 A 137.50016 194.11581 0 0 0 321.64258 198.04883 A 71.176599 71.176599 0 0 1 256 241.71094 A 71.176599 71.176599 0 0 1 190.35742 198.04883 z " fill="#4B4B4B" />
</svg>