<svg width="512" height="512" viewBox="0 0 512 512" fill="none" xmlns="http://www.w3.org/2000/svg">
<path d="M256 102.4H230.4V281.6H232.195L231.837 281.958L323.306 373.401L343.215 353.486L256 266.295V102.4Z" fill="#4B4B4B"/>
<path d="M11.52 256C11.52 120.977 120.977 11.52 256 11.52C391.023 11.52 500.48 120.977 500.48 256C500.48 391.023 391.023 500.48 256 500.48C120.977 500.48 11.52 391.023 11.52 256ZM256 39.68C136.53 39.68 39.68 136.53 39.68 256C39.68 375.47 136.53 472.32 256 472.32C375.47 472.32 472.32 375.47 472.32 256C472.32 136.53 375.47 39.68 256 39.68Z" fill="#4B4B4B"/>
</svg>
