<svg width="20" height="20" viewBox="0 0 20 20" fill="none" xmlns="http://www.w3.org/2000/svg">
<path d="M10 4H9V11H9.07011L9.05615 11.014L12.6291 14.586L13.4069 13.808L10 10.4021V4Z" fill="#4B4B4B"/>
<path fill-rule="evenodd" clip-rule="evenodd" d="M0.450001 10C0.450001 4.72568 4.72568 0.449997 10 0.449997C15.2743 0.449997 19.55 4.72568 19.55 10C19.55 15.2743 15.2743 19.55 10 19.55C4.72568 19.55 0.450001 15.2743 0.450001 10ZM10 1.55C5.33319 1.55 1.55 5.33319 1.55 10C1.55 14.6668 5.33319 18.45 10 18.45C14.6668 18.45 18.45 14.6668 18.45 10C18.45 5.33319 14.6668 1.55 10 1.55Z" fill="#4B4B4B"/>
</svg>
