<svg width="20" height="20" viewBox="0 0 20 20" fill="none" xmlns="http://www.w3.org/2000/svg">
<path fill-rule="evenodd" clip-rule="evenodd" d="M10 1.5C5.30558 1.5 1.5 5.30558 1.5 10C1.5 14.6944 5.30558 18.5 10 18.5C14.6944 18.5 18.5 14.6944 18.5 10C18.5 5.30558 14.6944 1.5 10 1.5ZM0.5 10C0.5 4.75329 4.75329 0.5 10 0.5C15.2467 0.5 19.5 4.75329 19.5 10C19.5 15.2467 15.2467 19.5 10 19.5C4.75329 19.5 0.5 15.2467 0.5 10Z" fill="#4B4B4B"/>
<path d="M7.32927 12.3526L4 10.1963V9.31659L7.32927 7.16033V8.30746L5.04363 9.73922V9.77372L7.32927 11.2055V12.3526Z" fill="#4B4B4B"/>
<path d="M8.05835 14L10.896 6.4962H11.9569L9.11923 14H8.05835Z" fill="#4B4B4B"/>
<path d="M12.6707 12.3526V11.2055L14.9564 9.77372V9.73922L12.6707 8.30746V7.16033L16 9.31659V10.1963L12.6707 12.3526Z" fill="#4B4B4B"/>
</svg>
