<svg width="512" height="512" viewBox="0 0 512 512" fill="none" xmlns="http://www.w3.org/2000/svg">
<path d="M256 38.4C135.823 38.4 38.4 135.823 38.4 256C38.4 376.177 135.823 473.6 256 473.6C376.177 473.6 473.6 376.177 473.6 256C473.6 135.823 376.177 38.4 256 38.4ZM12.8 256C12.8 121.684 121.684 12.8 256 12.8C390.316 12.8 499.2 121.684 499.2 256C499.2 390.316 390.316 499.2 256 499.2C121.684 499.2 12.8 390.316 12.8 256Z" fill="#4B4B4B"/>
<path d="M187.629 316.227L102.4 261.027V238.505L187.629 183.304V212.671L129.117 249.324V250.207L187.629 286.86V316.227Z" fill="#4B4B4B"/>
<path d="M206.294 358.4L278.937 166.303H306.096L233.452 358.4H206.294Z" fill="#4B4B4B"/>
<path d="M324.371 316.227V286.86L382.883 250.207V249.324L324.371 212.671V183.304L409.6 238.505V261.027L324.371 316.227Z" fill="#4B4B4B"/>
</svg>
