<svg width="512" height="512" viewBox="0 0 512 512" fill="none" xmlns="http://www.w3.org/2000/svg">
<path style="color:#000000;fill:#000000;fill-rule:evenodd;stroke-linejoin:round;-inkscape-stroke:none" d="M 173.28516 40.488281 C 166.10576 40.488999 160.28588 46.308877 160.28516 53.488281 L 160.28516 114.67188 L 186.28516 114.67188 L 186.28516 66.488281 L 439.66797 66.488281 L 439.66797 342.46289 L 379.80078 342.46289 L 379.80078 368.46289 L 452.66797 368.46289 C 459.84737 368.46217 465.66725 362.64229 465.66797 355.46289 L 465.66797 53.488281 C 465.66725 46.308877 459.84737 40.488999 452.66797 40.488281 L 173.28516 40.488281 z M 65.710938 135.37891 A 13.0013 13.0013 0 0 0 52.710938 148.37891 L 52.710938 450.35547 A 13.0013 13.0013 0 0 0 65.710938 463.35547 L 345.09375 463.35547 A 13.0013 13.0013 0 0 0 358.09375 450.35547 L 358.09375 148.37891 A 13.0013 13.0013 0 0 0 345.09375 135.37891 L 65.710938 135.37891 z M 78.710938 161.37891 L 332.09375 161.37891 L 332.09375 437.35547 L 78.710938 437.35547 L 78.710938 161.37891 z " />
</svg>
