<svg width="512" height="512" viewBox="0 0 512 512" fill="none" xmlns="http://www.w3.org/2000/svg">
<path d="M321.346 91.3548C240.942 103.096 179.2 172.338 179.2 256C179.2 340.717 242.509 410.648 324.397 421.062C319.691 410.775 313.821 396.973 307.954 380.641C294.891 344.281 281.6 294.726 281.6 243.2C281.6 191.515 294.963 148.15 308.275 117.752C312.796 107.429 317.323 98.5716 321.346 91.3548ZM355.794 84.5405L355.734 84.622L355.394 85.087C355.078 85.5235 354.588 86.2109 353.949 87.1405C352.671 89.0002 350.798 91.8262 348.527 95.5487C343.982 102.998 337.862 114.008 331.725 128.021C319.437 156.081 307.2 195.915 307.2 243.2C307.2 290.644 319.509 337.089 332.046 371.986C338.29 389.365 344.531 403.719 349.196 413.697C351.526 418.683 353.459 422.567 354.796 425.18C355.464 426.487 355.983 427.475 356.328 428.124L356.711 428.839L356.799 429L356.814 429.028L367.255 448H345.6C239.561 448 153.6 362.039 153.6 256C153.6 149.961 239.561 64 345.6 64H371.391L355.794 84.5405Z" fill="#4B4B4B"/>
</svg>
