<svg width="20" height="20" viewBox="0 0 20 20" fill="none" xmlns="http://www.w3.org/2000/svg">
<path fill-rule="evenodd" clip-rule="evenodd" d="M12.5526 3.56855C9.41179 4.02721 7 6.73195 7 10C7 13.3093 9.473 16.0409 12.6718 16.4477C12.4879 16.0459 12.2586 15.5068 12.0294 14.8688C11.5192 13.4485 11 11.5127 11 9.5C11 7.48107 11.522 5.78711 12.042 4.59968C12.2186 4.19646 12.3954 3.85046 12.5526 3.56855ZM13.8982 3.30236L13.8958 3.30555L13.8826 3.32371C13.8702 3.34076 13.8511 3.36761 13.8261 3.40393C13.7762 3.47657 13.703 3.58696 13.6143 3.73237C13.4368 4.02338 13.1977 4.45345 12.958 5.00082C12.478 6.0969 12 7.65294 12 9.5C12 11.3533 12.4808 13.1675 12.9706 14.5307C13.2145 15.2096 13.4582 15.7703 13.6405 16.16C13.7315 16.3548 13.807 16.5065 13.8592 16.6086C13.8853 16.6596 13.9056 16.6982 13.919 16.7236L13.934 16.7515L13.9374 16.7578L13.938 16.7589L14.3459 17.5H13.5C9.35786 17.5 6 14.1421 6 10C6 5.85786 9.35786 2.5 13.5 2.5H14.5075L13.8982 3.30236Z" fill="#4B4B4B"/>
</svg>
