<?xml version="1.0" encoding="UTF-8" standalone="no"?>
<svg
   width="512"
   height="512"
   viewBox="0 0 512 512"
   fill="none"
   version="1.1"
   id="svg6"
   xmlns="http://www.w3.org/2000/svg"
   xmlns:svg="http://www.w3.org/2000/svg">
  <defs
     id="defs10" />
  <path
     id="path2"
     style="fill:#000000;fill-rule:evenodd;stroke-width:1.30903"
     d="M 431.92615,10 391.55511,52.093495 461.15081,119.305 501.52422,77.211431 Z M 42.233421,11.4001 C 24.658594,11.4001 10,26.016947 10,43.541745 V 469.85835 C 10,487.38326 24.658594,502 42.233421,502 H 469.76669 C 487.3413,502 502,487.38326 502,469.85835 V 243.59223 a 16.323052,16.276617 0 0 0 -16.32181,-16.27757 16.323052,16.276617 0 0 0 -16.32448,16.27757 V 469.44654 H 42.646213 V 43.953389 H 261.98027 A 16.323052,16.276617 0 0 0 278.30439,27.675597 16.323052,16.276617 0 0 0 261.98027,11.4001 Z M 380.80065,63.305871 153.94245,299.83769 223.54052,367.04901 450.39856,130.51743 Z M 141.95602,312.33397 108.25818,417.35724 211.55439,379.5452 Z" />
</svg>
