<?xml version="1.0" encoding="UTF-8" standalone="no"?>
<svg
   width="512"
   height="512"
   viewBox="0 0 512 512"
   fill="none"
   version="1.1"
   id="svg6"
   xmlns="http://www.w3.org/2000/svg"
   xmlns:svg="http://www.w3.org/2000/svg">
  <defs
     id="defs10" />
  <path
     id="path2"
     style="fill:#000000;fill-rule:evenodd;stroke-width:1.09768"
     d="M 403.32031 48.824219 L 369.51367 84.173828 L 427.79297 140.61719 L 461.60156 105.26758 L 403.32031 48.824219 z M 76.992188 50 C 62.275084 50 50 62.275084 50 76.992188 L 50 435.00781 C 50 449.72492 62.275084 462 76.992188 462 L 435.00781 462 C 449.72492 462 462 449.72492 462 435.00781 L 462 244.99219 A 13.6689 13.6689 0 0 0 448.33203 231.32227 A 13.6689 13.6689 0 0 0 434.66211 244.99219 L 434.66211 434.66211 L 77.337891 434.66211 L 77.337891 77.337891 L 261.00781 77.337891 A 13.6689 13.6689 0 0 0 274.67773 63.667969 A 13.6689 13.6689 0 0 0 261.00781 50 L 76.992188 50 z M 360.50781 93.589844 L 170.53711 292.22656 L 228.81836 348.66992 L 418.78906 150.0332 L 360.50781 93.589844 z M 160.5 302.7207 L 132.28125 390.91797 L 218.78125 359.16406 L 160.5 302.7207 z " />
</svg>
