<?xml version="1.0" encoding="UTF-8" standalone="no"?>
<svg
   width="512"
   height="512"
   viewBox="0 0 512 512"
   fill="none"
   version="1.1"
   id="svg5"
   xmlns="http://www.w3.org/2000/svg"
   xmlns:svg="http://www.w3.org/2000/svg"
   xmlns:rdf="http://www.w3.org/1999/02/22-rdf-syntax-ns#"
   xmlns:cc="http://creativecommons.org/ns#"
   xmlns:dc="http://purl.org/dc/elements/1.1/">
  <metadata
     id="metadata11">
    <rdf:RDF>
      <cc:Work
         rdf:about="">
        <dc:format>image/svg+xml</dc:format>
        <dc:type
           rdf:resource="http://purl.org/dc/dcmitype/StillImage" />
      </cc:Work>
    </rdf:RDF>
  </metadata>
  <defs
     id="defs9" />
  <g
     id="g384"
     transform="matrix(1.0000226,0,0,1.0026739,0.95485895,-1.1018763)">
    <path
       style="fill:#8c8c8c;fill-opacity:1;stroke-width:1.93208"
       d="m 441.29568,200.45283 -3.68059,-4.34717 4.34717,3.68058 c 4.08526,3.45884 5.22673,5.01376 3.68059,5.01376 -0.36663,0 -2.32286,-1.95623 -4.34717,-4.34717 z"
       id="path390" />
    <path
       style="fill:#333333;fill-opacity:1;stroke-width:1.93208"
       d="M 230.41281,509.87771 C 72.962065,495.85187 -35.090121,337.72324 8.9441622,185.77014 63.435979,-2.2697261 303.16076,-62.067656 438.77384,78.55167 c 149.70395,155.23037 52.8389,412.43682 -162.48705,431.45306 -12.22037,1.07922 -23.52302,1.85009 -25.11698,1.71305 -1.59396,-0.13698 -10.93462,-0.96507 -20.757,-1.84007 z m 119.4252,-107.25722 c 42.71935,-12.68197 72.98552,-51.30303 73.26407,-93.48841 0.0369,-5.59325 1.84785,-8.54326 10.47542,-17.06448 72.06817,-71.17992 -9.2894,-138.86817 -171.04797,-142.3093 l -31.13022,-0.66224 -5.42046,-9.49087 c -31.85245,-55.771527 -115.293,-37.82282 -125.74009,27.04766 -1.059914,6.58148 -2.094031,12.0332 -2.298035,12.11494 -71.158552,28.5112 -58.005208,105.54954 24.746065,144.93621 27.34729,13.01636 79.04873,25.91733 104.33208,26.03383 9.54304,0.0441 9.73078,0.16345 15.4566,9.83046 20.88553,35.26171 68.83558,54.48961 107.36254,43.0522 z M 200.93585,292.64285 C 95.850251,279.37651 44.959168,236.4028 100.38924,207.7388 c 5.46837,-2.8278 5.67679,-2.74944 9.60919,3.61333 32.73534,52.96688 118.30347,34.67826 125.22905,-26.76542 l 0.98826,-8.76784 23.41666,0.0168 c 113.52017,0.0814 200.92775,42.52517 162.10413,78.71528 -10.51838,9.80486 -10.37492,9.78309 -14.82434,2.25083 -41.17533,-69.70428 -155.51291,-51.86597 -175.72392,27.41548 -3.12266,12.24918 -2.13781,11.97488 -30.25242,8.4256 z"
       id="path386" />
  </g>
</svg>
