<?xml version="1.0" encoding="UTF-8" standalone="no"?>
<svg
   xmlns:dc="http://purl.org/dc/elements/1.1/"
   xmlns:cc="http://creativecommons.org/ns#"
   xmlns:rdf="http://www.w3.org/1999/02/22-rdf-syntax-ns#"
   xmlns:svg="http://www.w3.org/2000/svg"
   xmlns="http://www.w3.org/2000/svg"
   xmlns:sodipodi="http://sodipodi.sourceforge.net/DTD/sodipodi-0.dtd"
   xmlns:inkscape="http://www.inkscape.org/namespaces/inkscape"
   width="20"
   height="20"
   viewBox="0 0 20 20"
   fill="none"
   version="1.1"
   id="svg10"
   sodipodi:docname="error.svg"
   inkscape:version="1.0.1 (3bc2e813f5, 2020-09-07)">
  <metadata
     id="metadata16">
    <rdf:RDF>
      <cc:Work
         rdf:about="">
        <dc:format>image/svg+xml</dc:format>
        <dc:type
           rdf:resource="http://purl.org/dc/dcmitype/StillImage" />
        <dc:title />
      </cc:Work>
    </rdf:RDF>
  </metadata>
  <defs
     id="defs14" />
  <sodipodi:namedview
     pagecolor="#ffffff"
     bordercolor="#666666"
     borderopacity="1"
     objecttolerance="10"
     gridtolerance="10"
     guidetolerance="10"
     inkscape:pageopacity="0"
     inkscape:pageshadow="2"
     inkscape:window-width="1920"
     inkscape:window-height="1043"
     id="namedview12"
     showgrid="true"
     inkscape:zoom="25.2"
     inkscape:cx="6.1398475"
     inkscape:cy="14.316327"
     inkscape:window-x="296"
     inkscape:window-y="1440"
     inkscape:window-maximized="1"
     inkscape:current-layer="svg10"
     inkscape:document-rotation="0">
    <inkscape:grid
       type="xygrid"
       id="grid26" />
  </sodipodi:namedview>
  <path
     d="m 10,15 c 0.5523,0 1,-0.4477 1,-1 0,-0.5523 -0.4477,-1 -1,-1 -0.55229,0 -1,0.4477 -1,1 0,0.5523 0.44771,1 1,1 z"
     fill="#4b4b4b"
     id="path2" />
  <path
     d="m 10.56,11.29 c 0,0 0.29,-1.75 0.41,-3.57 0.07,-1.18 0,-1.72 0,-1.72 0,-0.56 -0.44,-0.99 -0.98,-1 -0.53,0.02 -0.96,0.45 -0.96,1 0,0 -0.07,0.54 0,1.72 0.13,1.82 0.4,3.57 0.4,3.57 0.06,0.58 0.26,0.71 0.56,0.71 0.28,0 0.52,-0.13 0.57,-0.71 z"
     fill="#4b4b4b"
     id="path4" />
  <path
     style="fill:none;stroke:#4b4b4b;stroke-width:1px;stroke-linecap:butt;stroke-linejoin:bevel;stroke-opacity:1;fill-opacity:1"
     d="m 6,1 h 8 l 5,5 v 8 l -5,5 H 6 L 1,14 V 6 Z"
     id="path1215" />
</svg>
