<svg width="20" height="20" viewBox="0 0 20 20" fill="none" xmlns="http://www.w3.org/2000/svg">
<path fill-rule="evenodd" clip-rule="evenodd" d="M6.17743 3.99505C6.2911 4.81564 5.71802 5.573 4.89742 5.68667C4.07683 5.80033 3.31947 5.22725 3.20581 4.40665C3.09214 3.58606 3.66522 2.8287 4.48582 2.71504C5.30641 2.60137 6.06377 3.17446 6.17743 3.99505ZM4.62302 3.70558C4.34949 3.74347 4.15846 3.99592 4.19635 4.26945C4.23424 4.54298 4.48669 4.73401 4.76022 4.69612C5.03375 4.65824 5.22478 4.40578 5.18689 4.13225C5.149 3.85872 4.89655 3.66769 4.62302 3.70558Z" fill="#4B4B4B"/>
<path fill-rule="evenodd" clip-rule="evenodd" d="M16.4794 9.13015C17.3 9.01649 17.8731 8.25912 17.7594 7.43853C17.6458 6.61794 16.8884 6.04486 16.0678 6.15852C15.2472 6.27218 14.6741 7.02954 14.7878 7.85014C14.9015 8.67073 15.6588 9.24381 16.4794 9.13015ZM15.7783 7.71293C15.7404 7.4394 15.9315 7.18695 16.205 7.14906C16.4785 7.11117 16.731 7.3022 16.7689 7.57573C16.8068 7.84926 16.6157 8.10172 16.3422 8.1396C16.0687 8.17749 15.8162 7.98646 15.7783 7.71293Z" fill="#4B4B4B"/>
<path d="M4.53935 6.74581L5.49977 13.6796L6.49031 13.5424L5.5299 6.6086L4.53935 6.74581Z" fill="#4B4B4B"/>
<path fill-rule="evenodd" clip-rule="evenodd" d="M6.54385 17.5732C7.36444 17.4595 7.93752 16.7021 7.82386 15.8816C7.7102 15.061 6.95284 14.4879 6.13224 14.6015C5.31165 14.7152 4.73857 15.4726 4.85223 16.2932C4.96589 17.1138 5.72326 17.6868 6.54385 17.5732ZM5.84278 16.156C5.80489 15.8824 5.99591 15.63 6.26945 15.5921C6.54298 15.5542 6.79543 15.7452 6.83332 16.0188C6.87121 16.2923 6.68018 16.5447 6.40665 16.5826C6.13312 16.6205 5.88066 16.4295 5.84278 16.156Z" fill="#4B4B4B"/>
<path d="M14.0101 7.40663L7.15992 5.32682L7.45044 4.36995L14.3006 6.44976L14.0101 7.40663Z" fill="#4B4B4B"/>
<path d="M9.08412 15.6172L14.9052 10.268L14.2286 9.53166L8.40749 14.8809L9.08412 15.6172Z" fill="#4B4B4B"/>
</svg>
