<svg width="512" height="512" viewBox="0 0 512 512" fill="none" xmlns="http://www.w3.org/2000/svg">
<path d="M158.142 102.273C161.052 123.28 146.381 142.669 125.374 145.579C104.367 148.488 84.9783 133.818 82.0685 112.81C79.1588 91.8033 93.8296 72.4148 114.837 69.505C135.844 66.5953 155.232 81.2661 158.142 102.273ZM118.349 94.8629C111.347 95.8329 106.457 102.296 107.426 109.298C108.396 116.3 114.859 121.191 121.862 120.221C128.864 119.251 133.754 112.788 132.784 105.786C131.814 98.7833 125.352 93.893 118.349 94.8629Z" fill="#4B4B4B"/>
<path d="M421.873 233.732C442.88 230.822 457.551 211.434 454.641 190.426C451.731 169.419 432.343 154.748 411.336 157.658C390.328 160.568 375.658 179.956 378.567 200.964C381.477 221.971 400.866 236.642 421.873 233.732ZM403.925 197.451C402.955 190.449 407.846 183.986 414.848 183.016C421.85 182.046 428.313 186.936 429.283 193.939C430.253 200.941 425.363 207.404 418.36 208.374C411.358 209.344 404.895 204.454 403.925 197.451Z" fill="#4B4B4B"/>
<path d="M116.207 172.693L140.794 350.198L166.152 346.686L141.565 169.18L116.207 172.693Z" fill="#4B4B4B"/>
<path d="M167.522 449.873C188.53 446.964 203.201 427.575 200.291 406.568C197.381 385.561 177.993 370.89 156.985 373.8C135.978 376.709 121.307 396.098 124.217 417.105C127.127 438.112 146.515 452.783 167.522 449.873ZM149.575 413.593C148.605 406.59 153.495 400.127 160.498 399.157C167.5 398.188 173.963 403.078 174.933 410.08C175.903 417.083 171.012 423.545 164.01 424.515C157.008 425.485 150.545 420.595 149.575 413.593Z" fill="#4B4B4B"/>
<path d="M358.657 189.61L183.294 136.367L190.731 111.871L366.095 165.114L358.657 189.61Z" fill="#4B4B4B"/>
<path d="M232.553 399.802L381.574 262.86L364.252 244.011L215.232 380.952L232.553 399.802Z" fill="#4B4B4B"/>
</svg>
