<svg xmlns="http://www.w3.org/2000/svg" width="512" height="512" viewBox="0 0 512 512" fill="none">
<path fill="#4B4B4B" d="M 337.125 104.00781 C 321.74837 103.93633 301.38318 104.37005 300.87695 105.12109 C 300.48269 105.70589 295.1782 122.94563 289.08789 143.43359 L 278.01367 180.68555 L 268.04883 180.93555 C 259.20226 181.15791 258.08203 181.0179 258.08203 179.69531 C 258.08203 178.87577 262.88925 161.86626 268.76562 141.89453 C 274.87874 121.11789 279.11796 105.25063 278.67383 104.80664 C 278.24722 104.37991 265.99314 104.13645 251.44141 104.26562 L 224.98242 104.5 L 207.52344 163.85352 C 197.92097 196.49768 190.24603 223.50852 190.4668 223.87695 C 190.68763 224.24595 219.81559 224.44502 255.19727 224.32031 L 319.52734 224.0918 L 336.98828 164.74023 C 346.59082 132.09585 354.26774 105.0861 354.04883 104.7207 C 353.78169 104.27436 346.35098 104.0507 337.125 104.00781 z M 170.50586 104.23242 C 162.80286 104.22556 154.36302 104.23632 145.54102 104.26758 L 81.380859 104.49609 L 63.929688 163.80859 C 54.331083 196.43076 46.674453 223.43871 46.914062 223.82617 C 47.153638 224.21411 63.647531 224.53125 83.566406 224.53125 C 104.35736 224.53125 119.99322 224.87309 120.2793 225.33594 C 120.84108 226.24515 88.175659 339.52402 86.855469 341.24414 C 85.658842 342.80152 68.620132 342.79444 68.021484 341.23438 C 67.786163 340.62063 73.786634 318.86758 81.355469 292.89648 C 88.924352 266.92542 94.885508 245.30395 94.603516 244.84766 C 93.918772 243.74554 41.317698 243.74896 40.632812 244.85742 C 39.572157 246.57334 -0.3657024 384.42078 0.001953125 385.0957 C 0.21955181 385.46107 29.262785 385.75977 64.541016 385.75977 C 124.73686 385.75977 128.73056 385.66414 129.47266 384.20898 C 129.90755 383.35641 137.69319 357.1456 146.77344 325.96289 C 155.85402 294.78044 174.0286 232.39268 187.16016 187.32422 C 200.29217 142.25556 210.73606 105.07957 210.36914 104.71094 C 210.09399 104.43449 193.61486 104.25301 170.50586 104.23242 z M 455.78125 104.23438 C 448.08567 104.22751 439.65363 104.23831 430.83789 104.26953 L 366.72266 104.49805 L 349.26367 163.84961 C 339.66094 196.49385 331.98232 223.50179 332.20117 223.86719 L 332.20117 223.86914 C 332.91314 225.05935 384.56303 224.6724 385.37305 223.4707 C 385.76698 222.88606 391.07407 205.64418 397.16406 185.15625 L 408.23633 147.90625 L 418.20312 147.6543 C 427.04989 147.43196 428.16992 147.57202 428.16992 148.89453 C 428.16992 149.714 423.3609 166.72388 417.48438 186.69531 C 411.37117 207.47222 407.13221 223.33933 407.57617 223.7832 C 408.00293 224.21004 420.25891 224.45334 434.81055 224.32422 L 461.26758 224.08984 L 478.73828 164.73633 C 488.3461 132.0919 495.92591 105.08155 495.58008 104.71289 C 495.3204 104.4363 478.86799 104.25497 455.78125 104.23438 z M 133.72656 147.46484 C 141.59077 147.46484 142.91797 147.67116 142.91797 148.89258 C 142.91797 151.01555 134.81328 178.73347 133.81641 180.01953 C 133.22763 180.77918 130.07001 181.12695 123.76367 181.12695 C 115.87781 181.12695 114.57031 180.92316 114.57031 179.69141 C 114.57031 177.60916 122.69824 149.88418 123.69336 148.57227 C 124.27 147.81151 127.41037 147.46484 133.72656 147.46484 z M 504.26953 147.50977 C 502.14855 147.43197 499.97022 148.17512 498.26953 149.89844 C 496.42038 151.77156 495.08812 155.18555 492.50781 164.66797 C 488.78 178.3733 488.78591 181.67275 492.54688 184.63086 C 495.8949 187.26478 500.38936 187.00366 503.34961 184.00391 C 506.42211 180.89087 512.78582 158.6076 511.91992 153.99219 C 511.17974 150.04784 507.8045 147.63943 504.26953 147.50977 z M 211.30664 237.4043 C 202.8221 237.3796 197.87583 238.0597 192.39648 243.79492 C 184.42658 252.13741 182.56308 265.95859 185.58008 275.6582 C 189.81258 286.72287 201.82969 290.4154 207.06836 292.80664 C 194.04155 282.28119 198.75761 261.00691 212.33789 251.01953 L 223.41797 251.01953 C 248.32766 250.99553 246.75807 248.70082 247.10156 265.97656 L 247.2168 265.97656 C 247.69516 241.58761 247.28048 237.95673 225.45508 237.4707 C 219.75447 237.57719 215.16307 237.416 211.30664 237.4043 z M 254.27539 286.05664 C 254.09403 287.08167 253.88332 288.10416 253.65234 289.12305 C 253.89308 288.16256 254.10298 287.14574 254.27539 286.05664 z M 253.65234 289.12305 C 250.392 302.13098 240.81351 303.71337 223.41797 303.66406 C 223.40137 303.66106 223.40054 303.65234 223.40234 303.65234 L 167.25 303.65234 L 162.03125 321.25977 L 219.66211 321.25977 L 219.85352 321.25977 C 239.6228 320.83352 249.91941 305.5897 253.65234 289.12305 z " />
</svg>