<svg width="512" height="512" viewBox="0 0 512 512" fill="none" xmlns="http://www.w3.org/2000/svg">
<path fill="#4b4b4b" d="m 337.125,104.00781 c -19.15305,-0.43979 -42.82986,-4.204624 -42.68353,21.57909 -5.53801,18.34764 -10.95464,36.73161 -16.4278,55.09865 -12.75574,1.6772 -26.49851,1.20417 -16.03383,-15.38678 3.79882,-19.58372 16.71539,-44.28043 14.30529,-60.77486 -17.09512,-0.60397 -34.20234,-0.0877 -51.30271,-0.0239 -11.54962,39.77839 -23.77299,79.37496 -34.51562,119.37695 43.00473,0.99626 86.04163,0.19871 129.06054,0.21485 11.55229,-39.77625 23.77185,-79.3723 34.52149,-119.3711 -5.5606,-0.91776 -11.30444,-0.52771 -16.92383,-0.71289 z m -166.61914,0.22461 c -29.7085,0.008 -59.41667,0.17524 -89.125001,0.26371 -11.536437,39.76173 -23.796379,79.3294 -34.466797,119.33008 24.418794,1.51989 48.957305,-0.16799 73.365238,1.50977 -10.29403,38.85819 -21.453747,77.53152 -33.423831,115.9082 -13.557466,5.05006 -23.239683,-1.02413 -15.093551,-14.66994 7.383907,-27.30479 16.139388,-54.24338 22.841598,-81.72678 -17.56854,0.0986 -39.198395,-3.65261 -54.605837,1.8603 -13.744949,46.00606 -27.267064,92.09211 -39.99572587,138.38798 42.46710487,0.82191 85.02159587,1.21368 127.47710687,-0.0305 9.00022,-15.1268 11.30103,-35.972 17.60848,-53.31879 21.65142,-75.70592 44.85653,-150.99392 65.2816,-227.03547 -13.27334,-0.61696 -26.57852,-0.36372 -39.86328,-0.47856 z m 285.27539,0.002 c -29.68636,0.008 -59.3724,0.17525 -89.05859,0.26372 -11.55074,39.7767 -23.76945,79.37314 -34.52149,119.37114 17.10272,-1.0245 41.14754,5.25344 54.32401,-3.7506 7.52179,-23.98413 14.50655,-48.13191 21.71115,-72.21229 12.75622,-1.6801 26.50142,-1.20676 16.03469,15.38492 -3.79993,19.58327 -16.71665,44.28104 -14.30576,60.7748 17.09498,0.60389 34.20208,0.0877 51.30232,0.0239 11.49851,-39.77271 23.92802,-79.30266 34.3125,-119.37695 -13.25176,-0.61767 -26.53569,-0.36333 -39.79883,-0.47861 z m -322.05469,43.23046 c 18.50884,-3.1529 1.91174,27.6293 -2.79244,33.39327 -26.6291,8.16245 -10.69126,-19.28038 -7.24076,-32.28584 3.15019,-1.48303 6.70255,-0.87006 10.0332,-1.10743 z m 370.54297,0.0449 c -15.6724,1.98212 -21.33882,50.98721 0.36602,34.50009 2.28715,-9.25222 15.64274,-31.40787 -0.36602,-34.50009 z M 211.30664,237.4043 c -27.82655,-4.03236 -38.10488,42.31421 -12.22346,51.84307 16.20273,10.60844 -8.55933,-14.02889 2.1847,-23.39242 3.56897,-17.12742 20.16842,-15.6226 33.55621,-14.94444 15.64494,-9.60625 11.9029,28.52237 12.49016,6.85883 3.90497,-23.94083 -20.16157,-20.22152 -36.00761,-20.36504 z m 42.96875,48.65234 -0.62305,3.06641 z m -0.62305,3.06641 c -4.76159,18.32931 -26.2609,13.94734 -40.76932,14.52931 -15.21101,0 -30.42201,0 -45.63302,0 0.16469,5.32005 -9.08489,17.66884 -1.7123,17.60743 20.41579,-0.47769 40.96968,1.00319 61.29095,-0.82787 14.87906,-3.04193 23.88572,-17.36272 26.82369,-31.30887 z" />
</svg>
