<svg width="512" height="512" viewBox="0 0 512 512" fill="none" xmlns="http://www.w3.org/2000/svg">
<path d="M64.0001 102.4C56.9309 102.4 51.2001 96.6693 51.2001 89.6001C51.2001 82.5308 56.9309 76.8001 64.0001 76.8001C71.0693 76.8001 76.8001 82.5308 76.8001 89.6001C76.8001 96.6693 71.0693 102.4 64.0001 102.4ZM243.2 102.4C236.131 102.4 230.4 96.6693 230.4 89.6001C230.4 82.5308 236.131 76.8001 243.2 76.8001C250.269 76.8001 256 82.5308 256 89.6001C256 96.6693 250.269 102.4 243.2 102.4ZM409.6 153.6C437.877 153.6 460.8 130.677 460.8 102.4C460.8 74.1231 437.877 51.2001 409.6 51.2001C381.323 51.2001 358.4 74.1231 358.4 102.4C358.4 130.677 381.323 153.6 409.6 153.6ZM243.2 332.8C207.854 332.8 179.2 304.146 179.2 268.8C179.2 233.454 207.854 204.8 243.2 204.8C278.546 204.8 307.2 233.454 307.2 268.8C307.2 304.146 278.546 332.8 243.2 332.8ZM422.4 281.6C429.469 281.6 435.2 275.869 435.2 268.8C435.2 261.731 429.469 256 422.4 256C415.331 256 409.6 261.731 409.6 268.8C409.6 275.869 415.331 281.6 422.4 281.6ZM76.8001 460.8C62.6616 460.8 51.2001 449.339 51.2001 435.2C51.2001 421.062 62.6616 409.6 76.8001 409.6C90.9386 409.6 102.4 421.062 102.4 435.2C102.4 449.339 90.9386 460.8 76.8001 460.8ZM230.4 460.8C244.539 460.8 256 449.339 256 435.2C256 421.062 244.539 409.6 230.4 409.6C216.262 409.6 204.8 421.062 204.8 435.2C204.8 449.339 216.262 460.8 230.4 460.8ZM422.4 460.8C415.331 460.8 409.6 455.069 409.6 448C409.6 440.931 415.331 435.2 422.4 435.2C429.469 435.2 435.2 440.931 435.2 448C435.2 455.069 429.469 460.8 422.4 460.8ZM486.4 102.4C486.4 144.816 452.016 179.2 409.6 179.2C367.185 179.2 332.8 144.816 332.8 102.4C332.8 59.9846 367.185 25.6001 409.6 25.6001C452.016 25.6001 486.4 59.9846 486.4 102.4ZM64.0001 128C85.2078 128 102.4 110.808 102.4 89.6001C102.4 68.3924 85.2078 51.2001 64.0001 51.2001C42.7924 51.2001 25.6001 68.3924 25.6001 89.6001C25.6001 110.808 42.7924 128 64.0001 128ZM243.2 128C264.408 128 281.6 110.808 281.6 89.6001C281.6 68.3924 264.408 51.2001 243.2 51.2001C221.992 51.2001 204.8 68.3924 204.8 89.6001C204.8 110.808 221.992 128 243.2 128ZM243.2 358.4C292.685 358.4 332.8 318.285 332.8 268.8C332.8 219.315 292.685 179.2 243.2 179.2C193.715 179.2 153.6 219.315 153.6 268.8C153.6 318.285 193.715 358.4 243.2 358.4ZM460.8 268.8C460.8 290.008 443.608 307.2 422.4 307.2C401.192 307.2 384 290.008 384 268.8C384 247.592 401.192 230.4 422.4 230.4C443.608 230.4 460.8 247.592 460.8 268.8ZM76.8001 486.4C105.077 486.4 128 463.477 128 435.2C128 406.923 105.077 384 76.8001 384C48.5231 384 25.6001 406.923 25.6001 435.2C25.6001 463.477 48.5231 486.4 76.8001 486.4ZM281.6 435.2C281.6 463.477 258.677 486.4 230.4 486.4C202.123 486.4 179.2 463.477 179.2 435.2C179.2 406.923 202.123 384 230.4 384C258.677 384 281.6 406.923 281.6 435.2ZM422.4 486.4C443.608 486.4 460.8 469.208 460.8 448C460.8 426.792 443.608 409.6 422.4 409.6C401.192 409.6 384 426.792 384 448C384 469.208 401.192 486.4 422.4 486.4Z" fill="#4B4B4B"/>
</svg>
