<svg width="20" height="20" viewBox="0 0 20 20" fill="none" xmlns="http://www.w3.org/2000/svg">
<path d="M3.5 3.5C3.5 4.05228 3.05228 4.5 2.5 4.5C1.94772 4.5 1.5 4.05228 1.5 3.5C1.5 2.94772 1.94772 2.5 2.5 2.5C3.05228 2.5 3.5 2.94772 3.5 3.5ZM10.5 3.5C10.5 4.05228 10.0523 4.5 9.5 4.5C8.94772 4.5 8.5 4.05228 8.5 3.5C8.5 2.94772 8.94772 2.5 9.5 2.5C10.0523 2.5 10.5 2.94772 10.5 3.5ZM18.5 4C18.5 5.38071 17.3807 6.5 16 6.5C14.6193 6.5 13.5 5.38071 13.5 4C13.5 2.61929 14.6193 1.5 16 1.5C17.3807 1.5 18.5 2.61929 18.5 4ZM12.5 10.5C12.5 12.1569 11.1569 13.5 9.5 13.5C7.84315 13.5 6.5 12.1569 6.5 10.5C6.5 8.84315 7.84315 7.5 9.5 7.5C11.1569 7.5 12.5 8.84315 12.5 10.5ZM17.5 10.5C17.5 11.0523 17.0523 11.5 16.5 11.5C15.9477 11.5 15.5 11.0523 15.5 10.5C15.5 9.94771 15.9477 9.5 16.5 9.5C17.0523 9.5 17.5 9.94771 17.5 10.5ZM4.5 17C4.5 17.8284 3.82843 18.5 3 18.5C2.17157 18.5 1.5 17.8284 1.5 17C1.5 16.1716 2.17157 15.5 3 15.5C3.82843 15.5 4.5 16.1716 4.5 17ZM10.5 17C10.5 17.8284 9.82843 18.5 9 18.5C8.17157 18.5 7.5 17.8284 7.5 17C7.5 16.1716 8.17157 15.5 9 15.5C9.82843 15.5 10.5 16.1716 10.5 17ZM17.5 17.5C17.5 18.0523 17.0523 18.5 16.5 18.5C15.9477 18.5 15.5 18.0523 15.5 17.5C15.5 16.9477 15.9477 16.5 16.5 16.5C17.0523 16.5 17.5 16.9477 17.5 17.5Z" stroke="#4B4B4B"/>
</svg>
