<svg width="20" height="20" viewBox="0 0 20 20" fill="none" xmlns="http://www.w3.org/2000/svg">
<path fill-rule="evenodd" clip-rule="evenodd" d="M6.42783 5.11278C7.13482 4.18141 8.28474 3.5 10 3.5C11.7153 3.5 12.8652 4.18141 13.5722 5.11279C14.2621 6.02163 14.5 7.12646 14.5 7.96227C14.5 8.82582 14.2036 9.66032 13.8614 10.3535C13.519 11.0467 13.1108 11.6373 12.8502 12.0141L12.8461 12.0202C12.6324 12.3292 12.4417 12.8308 12.3001 13.2964C12.2317 13.5214 12.1786 13.7245 12.1427 13.8712C12.1248 13.9443 12.1113 14.0031 12.1024 14.043L12.0924 14.0881L12.0901 14.099L12.0896 14.1013L12.0069 14.5L7.99306 14.5L7.91045 14.1017L7.90988 14.099L7.90756 14.0881L7.89763 14.043C7.88868 14.0031 7.87515 13.9443 7.85725 13.8712C7.82137 13.7245 7.76833 13.5214 7.6999 13.2964C7.55827 12.8308 7.36756 12.3292 7.15393 12.0202L7.14976 12.0141C6.88925 11.6373 6.48096 11.0467 6.13863 10.3535C5.79637 9.66031 5.5 8.82582 5.5 7.96226C5.5 7.12646 5.73795 6.02163 6.42783 5.11278ZM8.79511 13.5L11.2049 13.5C11.2411 13.3592 11.2874 13.1893 11.3434 13.0054C11.4887 12.5277 11.7154 11.8972 12.0235 11.4515C12.2849 11.0734 12.6567 10.5345 12.9647 9.9107C13.2746 9.28308 13.5 8.60814 13.5 7.96227C13.5 7.28863 13.3032 6.41234 12.7757 5.7174C12.2653 5.04501 11.4152 4.5 10 4.5C8.58483 4.5 7.73475 5.04501 7.22434 5.7174C6.69684 6.41234 6.5 7.28863 6.5 7.96226C6.5 8.60814 6.72537 9.28308 7.03528 9.9107C7.34329 10.5345 7.71508 11.0734 7.97651 11.4515C8.28461 11.8972 8.5113 12.5277 8.65662 13.0054C8.71256 13.1893 8.75892 13.3592 8.79511 13.5ZM8.5 15.5H11.5V16.5H8.5V15.5Z" fill="#4B4B4B"/>
<path fill-rule="evenodd" clip-rule="evenodd" d="M10 1.5C5.30558 1.5 1.5 5.30558 1.5 10C1.5 14.6944 5.30558 18.5 10 18.5C14.6944 18.5 18.5 14.6944 18.5 10C18.5 5.30558 14.6944 1.5 10 1.5ZM0.5 10C0.5 4.75329 4.75329 0.5 10 0.5C15.2467 0.5 19.5 4.75329 19.5 10C19.5 15.2467 15.2467 19.5 10 19.5C4.75329 19.5 0.5 15.2467 0.5 10Z" fill="#4B4B4B"/>
</svg>
