<svg width="512" height="512" viewBox="0 0 512 512" fill="none" xmlns="http://www.w3.org/2000/svg">
<path d="M164.552 130.887C182.651 107.044 212.089 89.6 256 89.6C299.911 89.6 329.349 107.044 347.448 130.887C365.109 154.154 371.2 182.438 371.2 203.834C371.2 225.941 363.613 247.304 354.851 265.048C346.088 282.796 335.635 297.915 328.966 307.562L328.859 307.717C323.391 315.628 318.508 328.469 314.883 340.389C313.131 346.149 311.773 351.347 310.854 355.102C310.396 356.975 310.05 358.479 309.821 359.501L309.567 360.656L309.507 360.934L309.494 360.994L307.378 371.2L204.622 371.2L202.508 361.004L202.493 360.934L202.434 360.656L202.179 359.501C201.95 358.479 201.604 356.975 201.146 355.102C200.227 351.347 198.869 346.149 197.118 340.389C193.492 328.469 188.61 315.628 183.141 307.717L183.034 307.562C176.365 297.915 165.913 282.796 157.149 265.048C148.387 247.304 140.8 225.941 140.8 203.834C140.8 182.437 146.891 154.154 164.552 130.887ZM225.155 345.6L286.845 345.6C287.772 341.995 288.959 337.647 290.391 332.939C294.111 320.709 299.914 304.569 307.801 293.159C314.494 283.478 324.012 269.683 331.897 253.714C339.831 237.647 345.6 220.368 345.6 203.834C345.6 186.589 340.561 164.156 327.057 146.366C313.991 129.152 292.228 115.2 256 115.2C219.772 115.2 198.01 129.152 184.943 146.366C171.439 164.156 166.4 186.589 166.4 203.834C166.4 220.368 172.169 237.647 180.103 253.714C187.988 269.683 197.506 283.478 204.199 293.159C212.086 304.569 217.889 320.709 221.61 332.939C223.041 337.647 224.229 341.995 225.155 345.6ZM217.6 396.8H294.4V422.4H217.6V396.8Z" fill="#4B4B4B"/>
<path d="M256 38.4C135.823 38.4 38.4 135.823 38.4 256C38.4 376.177 135.823 473.6 256 473.6C376.177 473.6 473.6 376.177 473.6 256C473.6 135.823 376.177 38.4 256 38.4ZM12.8 256C12.8 121.684 121.684 12.8 256 12.8C390.316 12.8 499.2 121.684 499.2 256C499.2 390.316 390.316 499.2 256 499.2C121.684 499.2 12.8 390.316 12.8 256Z" fill="#4B4B4B"/>
</svg>
