<svg width="20" height="20" viewBox="0 0 20 20" fill="none" xmlns="http://www.w3.org/2000/svg">
<path d="M12.13 11.59C11.97 12.84 10.35 14.12 9.1 14.16C6.17 14.2 9.89 9.46 8.74 8.37C9.3 8.16 10.62 7.83 10.62 8.81C10.62 9.63 10.12 10.55 9.88 11.32C8.66 15.16 12.13 11.15 12.14 11.18C12.16 11.21 12.16 11.35 12.13 11.59C12.08 11.95 12.16 11.35 12.13 11.59ZM11.56 5.67C11.56 6.67 9.36 7.15 9.36 6.03C9.36 5 11.56 4.54 11.56 5.67Z" fill="#4B4B4B"/>
<path fill-rule="evenodd" clip-rule="evenodd" d="M10 1.5C5.30558 1.5 1.5 5.30558 1.5 10C1.5 14.6944 5.30558 18.5 10 18.5C14.6944 18.5 18.5 14.6944 18.5 10C18.5 5.30558 14.6944 1.5 10 1.5ZM0.5 10C0.5 4.75329 4.75329 0.5 10 0.5C15.2467 0.5 19.5 4.75329 19.5 10C19.5 15.2467 15.2467 19.5 10 19.5C4.75329 19.5 0.5 15.2467 0.5 10Z" fill="#4B4B4B"/>
</svg>
