<svg width="512" height="512" viewBox="0 0 512 512" fill="none" xmlns="http://www.w3.org/2000/svg">
<path d="M310.528 296.704C306.432 328.704 264.96 361.472 232.96 362.496C157.952 363.52 253.184 242.176 223.744 214.272C238.08 208.896 271.872 200.448 271.872 225.536C271.872 246.528 259.072 270.08 252.928 289.792C221.696 388.096 310.528 285.44 310.784 286.208C311.296 286.976 311.296 290.56 310.528 296.704C311.296 290.56 309.248 305.92 310.528 296.704ZM295.936 145.152C295.936 170.752 239.616 183.04 239.616 154.368C239.616 128 295.936 116.224 295.936 145.152Z" fill="#4B4B4B"/>
<path d="M256 38.4C135.823 38.4 38.4 135.823 38.4 256C38.4 376.177 135.823 473.6 256 473.6C376.177 473.6 473.6 376.177 473.6 256C473.6 135.823 376.177 38.4 256 38.4ZM12.8 256C12.8 121.684 121.684 12.8 256 12.8C390.316 12.8 499.2 121.684 499.2 256C499.2 390.316 390.316 499.2 256 499.2C121.684 499.2 12.8 390.316 12.8 256Z" fill="#4B4B4B"/>
</svg>
