<?xml version="1.0" encoding="UTF-8" standalone="no"?>
<svg
   width="512"
   height="512"
   viewBox="0 0 512 512"
   fill="none"
   version="1.1"
   id="svg4"
   xmlns="http://www.w3.org/2000/svg"
   xmlns:svg="http://www.w3.org/2000/svg">
  <defs
     id="defs8" />
  <path
     d="M 255.99999,0 34.3,128 V 383.99999 L 255.99999,512 477.7,383.99999 V 128.00001 Z m -22.89107,30.826666 h 0.0213 a 38.400693,38.399999 0 0 0 45.61149,0 l 160.72825,92.800004 a 38.27269,38.271998 0 0 0 0,8.59733 l -160.74956,92.8 a 38.400693,38.399999 0 0 0 -45.59017,0 l -160.770853,-92.8 a 38.294024,38.293332 0 0 0 0,-8.57599 z M 454.91558,157.86667 c 2.3254,1.70666 4.82143,3.13599 7.44547,4.288 V 347.75465 A 38.400693,38.399999 0 0 0 439.5553,387.264 l -160.74954,92.79999 a 38.400693,38.399999 0 0 0 -7.44547,-4.26667 L 271.16828,291.2 a 38.400693,38.399999 0 0 0 22.82708,-39.488 z M 57.084414,158.89068 217.83398,251.69067 A 38.400693,38.399999 0 0 0 240.63972,291.2 v 185.6 c -2.64538,1.152 -5.12009,2.60266 -7.44547,4.30933 l -160.749555,-92.8 A 38.400693,38.399999 0 0 0 49.638943,348.8 V 163.2 c 2.645389,-1.152 5.120093,-2.60266 7.466797,-4.30932 z"
     id="path1241"
     style="fill:#1a1a1a;stroke-width:21.3335" />
</svg>
