<?xml version="1.0" encoding="UTF-8" standalone="no"?>
<svg
   xmlns:dc="http://purl.org/dc/elements/1.1/"
   xmlns:cc="http://creativecommons.org/ns#"
   xmlns:rdf="http://www.w3.org/1999/02/22-rdf-syntax-ns#"
   xmlns:svg="http://www.w3.org/2000/svg"
   xmlns="http://www.w3.org/2000/svg"
   xmlns:sodipodi="http://sodipodi.sourceforge.net/DTD/sodipodi-0.dtd"
   xmlns:inkscape="http://www.inkscape.org/namespaces/inkscape"
   width="512"
   height="512"
   viewBox="0 0 512 512"
   fill="none"
   version="1.1"
   id="svg5"
   sodipodi:docname="jitsi.svg"
   inkscape:version="1.0.2 (e86c870879, 2021-01-15)">
  <sodipodi:namedview
     pagecolor="#ffffff"
     bordercolor="#666666"
     borderopacity="1"
     objecttolerance="10"
     gridtolerance="10"
     guidetolerance="10"
     inkscape:pageopacity="0"
     inkscape:pageshadow="2"
     inkscape:window-width="1351"
     inkscape:window-height="669"
     id="namedview7"
     showgrid="false"
     inkscape:zoom="0.69605824"
     inkscape:cx="156.59148"
     inkscape:cy="230.10983"
     inkscape:window-x="57"
     inkscape:window-y="733"
     inkscape:window-maximized="0"
     inkscape:current-layer="svg5" />
  <metadata
     id="metadata11">
    <rdf:RDF>
      <cc:Work
         rdf:about="">
        <dc:format>image/svg+xml</dc:format>
        <dc:type
           rdf:resource="http://purl.org/dc/dcmitype/StillImage" />
        <dc:title></dc:title>
      </cc:Work>
    </rdf:RDF>
  </metadata>
  <defs
     id="defs9" />
  <path
     id="path1016-3"
     style="color:#000000;font-style:normal;font-variant:normal;font-weight:normal;font-stretch:normal;font-size:medium;line-height:normal;font-family:sans-serif;font-variant-ligatures:normal;font-variant-position:normal;font-variant-caps:normal;font-variant-numeric:normal;font-variant-alternates:normal;font-variant-east-asian:normal;font-feature-settings:normal;font-variation-settings:normal;text-indent:0;text-align:start;text-decoration:none;text-decoration-line:none;text-decoration-style:solid;text-decoration-color:#000000;letter-spacing:normal;word-spacing:normal;text-transform:none;writing-mode:lr-tb;direction:ltr;text-orientation:mixed;dominant-baseline:auto;baseline-shift:baseline;text-anchor:start;white-space:normal;shape-padding:0;shape-margin:0;inline-size:0;clip-rule:nonzero;display:inline;overflow:visible;visibility:visible;isolation:auto;mix-blend-mode:normal;color-interpolation:sRGB;color-interpolation-filters:linearRGB;solid-color:#000000;solid-opacity:1;vector-effect:none;fill:#1c75bb;fill-opacity:1;fill-rule:nonzero;stroke:none;stroke-width:1.07572;stroke-linecap:butt;stroke-linejoin:miter;stroke-miterlimit:4;stroke-dasharray:none;stroke-dashoffset:0;stroke-opacity:1;color-rendering:auto;image-rendering:auto;shape-rendering:auto;text-rendering:auto;enable-background:accumulate;stop-color:#000000"
     d="m 344.89042,0 c -4.88809,0 -5.85753,2.6311196 -6.5408,17.747097 -0.7307,16.16621 -2.95543,28.790923 -6.18812,35.126688 -4.57276,8.962666 -16.29518,19.263153 -29.49894,25.916958 -2.95829,1.490727 -10.46346,4.695419 -16.67546,7.122739 -24.49246,9.570479 -32.22976,18.739838 -38.24664,45.326928 -2.67505,11.81835 -3.24922,34.07909 -1.13489,44.0318 0.93457,4.39743 1.58481,8.07535 1.44694,8.1737 -0.1388,0.0925 -6.06352,1.25547 -13.16393,2.57338 -15.7653,2.92574 -22.3463,4.72983 -32.80891,8.98224 -21.43993,8.71548 -35.86051,22.86659 -42.5147,41.72754 -4.39747,12.46332 -3.91267,34.51867 1.15142,52.40024 3.44425,12.16352 11.86542,29.1931 18.46582,37.34363 4.35058,5.37215 14.05429,13.51713 17.57479,14.7536 1.14059,0.3998 -0.65834,8.68395 -2.92387,13.45683 -2.64295,5.56984 -3.56493,5.23818 -26.24286,-9.39467 -17.63911,-11.38264 -23.36823,-14.35553 -31.90105,-16.56755 -13.59975,-3.52311 -20.45315,-1.2859 -31.9745,10.45218 -8.598174,8.76183 -13.96578,18.09352 -18.22016,31.67049 -4.137454,13.20595 -5.166629,21.52995 -5.119651,41.46946 0.06686,28.337 3.097461,50.03856 10.004552,71.64635 3.025468,9.46351 9.253306,23.4555 11.909219,26.75404 1.53866,1.90997 3.80467,1.6625 4.95588,-0.53956 0.54063,-1.0354 2.07045,-6.72185 3.39594,-12.63677 8.08597,-36.07833 20.12159,-57.62917 39.63426,-70.96121 l 7.41243,-5.06716 5.7925,4.45442 c 7.09109,5.45082 25.01912,14.24755 33.75655,16.55901 47.16236,12.48025 106.42689,-9.27167 134.42528,-49.33676 2.89291,-4.14058 5.62454,-7.95078 6.06725,-8.46772 0.44393,-0.51513 2.24945,0.084 4.01394,1.34525 4.61803,3.28975 10.12763,2.94122 17.3099,-1.08569 23.70344,-13.28973 42.85102,-40.33629 53.83598,-76.04793 7.76801,-25.2538 11.10538,-49.03743 11.1984,-79.79588 0.0565,-19.71183 -0.19223,-23.0115 -2.38027,-31.08225 -7.57994,-27.9465 -24.61003,-42.30048 -52.10078,-43.91644 -10.07567,-0.59174 -10.47946,-0.71186 -9.7806,-2.8822 1.32906,-4.12059 0.73103,-17.21648 -1.10978,-24.31627 -0.99641,-3.84585 -3.32609,-10.27325 -5.17227,-14.28322 l -3.35429,-7.29078 2.75287,-2.9279 c 1.51274,-1.61077 4.75105,-6.053923 7.19876,-9.87501 10.06555,-15.711319 11.89204,-33.462301 5.4876,-53.29729 C 356.46124,10.873714 350.71813,0 344.89042,0 Z m -18.093,85.387908 c 0.0425,0.009 0.0655,0.04676 0.0655,0.09702 0,0.392672 -1.63417,4.249633 -3.63144,8.571951 -4.31125,9.331181 -10.62448,18.868181 -16.42629,24.810951 -4.37034,4.47467 -5.93482,5.28762 -28.7219,14.92765 l -13.81484,5.84783 0.6931,-3.93187 c 0.3822,-2.1633 1.7136,-7.22821 2.95855,-11.25469 3.07274,-9.93378 6.44023,-12.60391 31.5099,-24.968353 11.24096,-5.543835 22.01504,-11.124049 23.93797,-12.399066 1.68329,-1.116597 3.09812,-1.809867 3.42561,-1.702428 z m 11.30315,37.245032 c 2.28826,0 4.90191,8.06596 4.90191,15.12851 0,12.8762 -7.44112,20.63993 -14.82565,15.46684 -3.46232,-2.42492 -5.61365,-7.21379 -5.61365,-12.50102 0,-4.26912 0.51541,-5.09885 7.04976,-11.34936 3.8764,-3.70984 7.69561,-6.74497 8.48763,-6.74497 z m -36.46368,20.43995 c 0.84475,0 1.96682,1.96101 2.61567,4.57385 2.97345,11.97181 8.83498,19.47031 18.26843,23.37793 1.7997,0.74546 3.2708,1.93952 3.2708,2.65436 0,2.75533 -7.02009,11.7072 -12.31556,15.70602 -7.96771,6.01475 -19.53798,11.77973 -23.64143,11.77973 -2.16807,0 -5.13669,-1.17402 -7.71754,-3.05045 -9.82604,-7.14499 -16.41124,-17.42887 -18.96883,-29.6211 -1.13419,-5.40718 -1.05754,-6.16941 0.84323,-8.27497 3.53334,-3.91363 32.58374,-17.14537 37.64523,-17.14537 z m 79.29438,31.422 c 4.54286,-0.27826 13.06207,8.52497 17.37966,18.28664 5.85099,13.23025 7.60273,36.3014 4.83893,63.76453 -1.66849,16.58289 -2.37263,17.77409 -4.749,8.02848 -2.11237,-8.66929 -7.59052,-25.84716 -17.09111,-53.59424 -3.31768,-9.68958 -6.03372,-19.16101 -6.03372,-21.04898 0,-4.85311 3.0636,-14.59087 4.80095,-15.25743 0.26532,-0.0995 0.55109,-0.16041 0.85429,-0.17867 z m -24.33391,5.58521 c 0.80802,0.16753 1.08272,2.36 1.16228,8.41102 0.12443,9.51621 0.27259,10.06502 11.58725,42.25711 10.42109,29.64767 19.14291,63.07175 17.00827,65.18239 -0.47207,0.46711 -4.24862,-1.53952 -8.39012,-4.45769 -31.8782,-22.46242 -45.0933,-29.91613 -64.54848,-36.41164 -32.7318,-10.92807 -65.37176,-8.3143 -96.75464,7.74246 -12.93089,6.61503 -27.23958,17.12311 -28.12621,20.65657 -0.96702,3.85266 0.46399,6.90855 3.60673,7.69727 1.69895,0.42649 7.57943,-0.42724 14.72203,-2.13559 29.49506,-7.05925 46.9093,-6.70066 65.52822,1.34755 5.4424,2.35217 18.97347,10.84317 18.97347,11.90643 0,0.91113 -42.74259,12.52489 -57.55271,15.63884 -7.1002,1.49236 -16.78185,2.97874 -21.51476,3.30257 -7.3361,0.50056 -9.09354,0.27438 -11.91674,-1.51711 -7.52282,-4.77108 -15.39056,-17.83894 -20.52111,-34.08977 -2.77138,-8.78165 -3.05856,-11.13047 -3.06059,-25.30062 -0.002,-15.47999 0.0233,-15.68597 3.52654,-22.78628 5.22807,-10.61924 15.04391,-18.13186 31.20468,-23.87483 8.78536,-3.12183 26.87571,-7.46427 38.72957,-9.29784 l 7.84438,-1.21365 7.4797,7.05501 c 9.22309,8.69963 17.36634,13.53764 22.81147,13.55182 9.14413,0.0157 24.1481,-8.73907 43.31013,-25.29646 10.08508,-8.7147 21.27524,-17.07676 24.51251,-18.31865 0.13796,-0.0491 0.26244,-0.0706 0.37813,-0.0466 z m -88.45223,86.84486 c 1.81447,0.0127 3.86241,0.0587 6.14532,0.12585 19.67529,0.54866 27.79866,2.21538 43.17818,8.86346 11.77882,5.09034 18.95738,9.55334 36.17314,22.48413 l 14.40313,10.82052 -3.47031,1.41446 c -6.95332,2.83717 -26.54284,4.27371 -33.94283,2.48716 -5.67492,-1.3692 -8.37794,-3.41875 -19.36181,-14.66957 -15.14746,-15.51453 -30.47973,-24.76029 -47.29884,-28.5251 -9.75496,-2.1835 -8.5248,-3.1376 4.17402,-3.00157 z m 35.9912,49.88356 3.56518,3.37922 c 5.10156,4.83443 12.52622,8.27473 22.79306,10.56183 l 3.09256,0.68885 -0.73599,6.49617 c -4.25645,37.62098 -38.59169,73.41321 -80.43236,83.84405 -13.1311,3.27332 -36.05354,3.79622 -48.18905,1.10251 -5.02842,-1.11574 -11.87467,-3.06396 -15.21456,-4.3312 -7.30208,-2.77016 -23.68633,-13.33615 -22.35577,-14.41765 0.25224,-0.20522 3.36313,-1.98452 6.91245,-3.95014 20.60249,-11.40555 33.80594,-25.52769 41.29369,-44.16479 1.68312,-4.18898 3.49022,-8.04176 4.01266,-8.56194 1.56889,-1.5583 23.87198,-9.81806 55.47572,-20.54158 z m 81.36541,6.288 c 0.12584,0.002 0.21121,0.0162 0.24788,0.0582 0.765,0.76458 -6.56605,13.87558 -12.38948,22.15876 -4.97467,7.07657 -20.85898,23.66586 -22.65967,23.66587 -0.53852,0 -1.59159,-0.73825 -2.33961,-1.63888 -1.10498,-1.33252 -0.99561,-2.98178 0.58076,-8.8074 1.0679,-3.94281 2.47027,-11.74589 3.11688,-17.34037 l 1.17676,-10.17708 9.1367,-1.86953 c 5.02623,-1.02905 12.22113,-2.92082 15.98821,-4.2019 3.2966,-1.12166 6.25389,-1.87585 7.14157,-1.84999 z M 124.0489,350.69604 c 2.21834,0 2.80935,5.92756 2.65164,26.65803 -0.16126,21.22087 0.27619,23.14715 6.8529,30.07779 l 3.31233,3.48774 -4.77669,3.9953 c -10.77299,9.0117 -20.25819,20.65717 -25.88375,31.78903 -1.72039,3.40197 -3.29637,6.18823 -3.50309,6.18823 -0.20738,0 -0.65187,-2.05919 -0.99038,-4.57423 -0.33969,-2.51408 -1.20335,-10.85008 -1.919339,-18.52436 -2.122837,-22.75256 1.128719,-43.529 9.447979,-60.353 4.06774,-8.2258 12.37781,-18.74453 14.8084,-18.74453 z m 26.92648,10.09122 c 0.98426,0.0517 3.98299,1.54512 7.23388,3.63177 3.71591,2.38437 9.35825,5.79403 12.53976,7.57788 l 5.78518,3.24264 -6.86026,5.05658 c -6.47649,4.77339 -18.06771,11.27577 -20.09592,11.27577 -0.51033,0 -1.25209,-0.31988 -1.64741,-0.71394 -1.4986,-1.49964 0.9485,-28.20619 2.74965,-30.00344 0.0499,-0.0499 0.15294,-0.0705 0.29512,-0.0614 z" />
</svg>
