<svg width="512" height="512" viewBox="0 0 512 512" fill="none" xmlns="http://www.w3.org/2000/svg">
<path d="M256 358.4C199.446 358.4 153.6 312.554 153.6 256C153.6 199.446 199.446 153.6 256 153.6C312.554 153.6 358.4 199.446 358.4 256C358.4 312.554 312.554 358.4 256 358.4ZM256 384C326.693 384 384 326.693 384 256C384 185.308 326.693 128 256 128C185.308 128 128 185.308 128 256C128 326.693 185.308 384 256 384Z" fill="#4B4B4B"/>
<path d="M269.553 25.6001H243.953V102.4H269.553V25.6001Z" fill="#4B4B4B"/>
<path d="M269.553 409.6V486.4H243.953V409.6H269.553Z" fill="#4B4B4B"/>
<path d="M486.4 268.8H409.6V243.2H486.4V268.8Z" fill="#4B4B4B"/>
<path d="M102.4 268.8H25.6001V243.2H102.4V268.8Z" fill="#4B4B4B"/>
<path d="M421.536 102.666L367.23 156.972L349.128 138.87L403.434 84.5642L421.536 102.666Z" fill="#4B4B4B"/>
<path d="M150.007 374.195L95.7009 428.501L77.5989 410.399L131.905 356.093L150.007 374.195Z" fill="#4B4B4B"/>
<path d="M402.901 427.968L348.596 373.663L366.697 355.561L421.003 409.867L402.901 427.968Z" fill="#4B4B4B"/>
<path d="M131.372 156.439L77.0665 102.134L95.1685 84.0318L149.474 138.338L131.372 156.439Z" fill="#4B4B4B"/>
</svg>
