<svg width="20" height="20" viewBox="0 0 20 20" fill="none" xmlns="http://www.w3.org/2000/svg">
<path fill-rule="evenodd" clip-rule="evenodd" d="M10 14C12.2091 14 14 12.2091 14 10C14 7.79086 12.2091 6 10 6C7.79086 6 6 7.79086 6 10C6 12.2091 7.79086 14 10 14ZM10 15C12.7614 15 15 12.7614 15 10C15 7.23858 12.7614 5 10 5C7.23858 5 5 7.23858 5 10C5 12.7614 7.23858 15 10 15Z" fill="#4B4B4B"/>
<path fill-rule="evenodd" clip-rule="evenodd" d="M10.5294 1V4H9.52941V1H10.5294Z" fill="#4B4B4B"/>
<path fill-rule="evenodd" clip-rule="evenodd" d="M10.5294 16V19H9.52941V16H10.5294Z" fill="#4B4B4B"/>
<path fill-rule="evenodd" clip-rule="evenodd" d="M19 10.5H16V9.5H19V10.5Z" fill="#4B4B4B"/>
<path fill-rule="evenodd" clip-rule="evenodd" d="M4 10.5H1V9.5H4V10.5Z" fill="#4B4B4B"/>
<path fill-rule="evenodd" clip-rule="evenodd" d="M16.4662 4.01039L14.3449 6.13171L13.6378 5.4246L15.7591 3.30328L16.4662 4.01039Z" fill="#4B4B4B"/>
<path fill-rule="evenodd" clip-rule="evenodd" d="M5.85963 14.617L3.73831 16.7383L3.0312 16.0312L5.15252 13.9099L5.85963 14.617Z" fill="#4B4B4B"/>
<path fill-rule="evenodd" clip-rule="evenodd" d="M15.7383 16.7175L13.617 14.5962L14.3241 13.8891L16.4454 16.0104L15.7383 16.7175Z" fill="#4B4B4B"/>
<path fill-rule="evenodd" clip-rule="evenodd" d="M5.13173 6.11091L3.01041 3.98959L3.71751 3.28249L5.83883 5.40381L5.13173 6.11091Z" fill="#4B4B4B"/>
</svg>
