<svg xmlns="http://www.w3.org/2000/svg" width="512" height="512" viewBox="0 0 512 512" fill="none">
<path fill="#4B4B4B" d="M 0 0 L 0 30 L 0 482 L 0 512 L 30 512 L 60 512 L 60 482 L 30 482 L 30 30 L 60 30 L 60 0 L 30 0 L 0 0 z M 452 0 L 452 30 L 482 30 L 482 482 L 452 482 L 452 512 L 482 512 L 512 512 L 512 482 L 512 30 L 512 0 L 482 0 L 452 0 z M 220.25781 161.67383 C 208.24565 161.67383 197.51317 164.23468 188.25781 169.45312 C 179.00257 174.57314 171.0269 181.8583 164.42969 191.31055 L 163.74219 191.31055 L 163.74219 166.59766 L 116.48047 166.59766 L 116.48047 349.3418 L 166.59766 349.3418 L 166.59766 243.39648 C 166.59766 234.43648 167.8775 227.15051 170.4375 221.63672 C 172.9975 216.123 176.14823 211.88945 179.79102 208.93555 C 183.43419 205.98182 187.27328 204.01271 191.11328 202.92969 C 194.95328 201.84668 198.10565 201.35352 200.46875 201.35352 C 208.54255 201.35352 214.54823 202.73222 218.68359 205.39062 C 222.81883 208.04922 225.77242 211.69216 227.54492 216.12305 C 229.31706 220.65216 230.40082 225.47604 230.59766 230.79297 C 230.89241 236.10983 230.99023 241.42824 230.99023 246.84375 L 230.99023 349.24219 L 281.10742 349.24219 L 281.10742 247.5332 C 281.10742 241.92095 281.60087 236.30681 282.38867 230.79297 C 283.17617 225.18078 284.84914 220.25796 287.31055 215.92578 C 289.77216 211.49489 293.21859 208.04995 297.55078 205.29297 C 301.88335 202.63451 307.59419 201.25586 314.68359 201.25586 C 321.67419 201.25586 327.28652 202.43764 331.42188 204.80078 C 335.55712 207.16392 338.60927 210.3147 340.77539 214.35156 C 342.84325 218.29014 344.12309 223.01437 344.61523 228.42969 C 345.10773 233.84526 345.30469 239.6551 345.30469 245.75977 L 345.30469 349.24219 L 395.42188 349.24219 L 395.42188 227.05273 C 395.42188 215.23734 393.74745 205.19333 390.49805 196.82422 C 387.15024 188.45486 382.62073 181.75942 376.71289 176.54102 C 370.80537 171.32256 363.81552 167.58195 355.54492 165.21875 C 347.27398 162.85567 338.31312 161.67383 328.66406 161.67383 C 315.96252 161.67383 304.93499 164.72565 295.67969 170.83008 C 286.42439 176.93475 279.0403 184.02468 273.625 192 C 268.60346 180.77532 261.41583 172.79991 251.86523 168.36914 C 242.31429 163.93831 231.77781 161.67383 220.25781 161.67383 z " />
</svg>