<svg width="512" height="512" viewBox="0 0 512 512" fill="none" xmlns="http://www.w3.org/2000/svg">
<path d="M76.8 307.2C105.077 307.2 128 284.277 128 256C128 227.723 105.077 204.8 76.8 204.8C48.523 204.8 25.6 227.723 25.6 256C25.6 284.277 48.523 307.2 76.8 307.2Z" fill="#4B4B4B"/>
<path d="M256 307.2C284.277 307.2 307.2 284.277 307.2 256C307.2 227.723 284.277 204.8 256 204.8C227.723 204.8 204.8 227.723 204.8 256C204.8 284.277 227.723 307.2 256 307.2Z" fill="#4B4B4B"/>
<path d="M486.4 256C486.4 284.277 463.477 307.2 435.2 307.2C406.923 307.2 384 284.277 384 256C384 227.723 406.923 204.8 435.2 204.8C463.477 204.8 486.4 227.723 486.4 256Z" fill="#4B4B4B"/>
</svg>
