<svg width="512" height="512" viewBox="0 0 512 512" fill="none" xmlns="http://www.w3.org/2000/svg">
<path d="M 58.182844,255.71249 H 57 v 152.98169 c 0,11.03994 9.068516,20.10874 20.108434,20.10874 H 234.62396 C 233.24457,333.18904 154.78166,255.71249 58.182844,255.71249 Z m 0,-126.17083 H 57 v 65.05689 c 129.91603,0.59142 235.5835,105.07645 236.96401,234.20437 h 67.42178 C 360.20356,263.59797 224.76752,129.54166 58.182844,129.54166 Z M 456.99991,408.89145 V 270.69532 C 411.26263,158.71888 319.19778,70.202586 204.65881,29.000088 H 77.108434 C 66.068516,29.000088 57,38.068605 57,49.108511 V 68.625474 C 256.90075,69.216931 419.54255,230.28186 420.72615,429 h 16.16521 c 11.23731,-0.19708 20.10855,-9.06868 20.10855,-20.10855 z M 404.36329,84.79105 c 18.53094,18.53143 37.45675,41.99065 52.63662,62.69128 V 48.911329 A 19.852179,19.852179 0 0 0 437.08875,29.000088 h -101.5277 c 23.65654,16.362702 48.10184,35.091148 68.80224,55.790962 z" fill="#4b4b4b" />
</svg>
