<svg width="512" height="512" viewBox="0 0 512 512" fill="none" xmlns="http://www.w3.org/2000/svg">
<path style="fill:#666666" d="M 256.1075,5.881409e-4 C 153.25404,-1.8962601 54.534177,66.045095 17.657038,161.75915 -20.724468,255.45351 4.1750154,370.71027 78.10534,439.98329 142.44683,504.02301 242.43664,528.0873 328.94127,501.3738 426.92251,473.38442 502.49897,381.88202 510.81237,280.24099 522.09112,179.04424 465.21945,75.527998 374.91247,29.197471 338.43819,10.1555 297.33693,-0.48487306 256.1075,5.881409e-4 Z M 374.1368,79.365818 c 10.30991,5.269553 36.9021,13.88194 33.8517,23.114452 -14.66607,-1.9678 -47.66054,3.11808 -24.02787,21.881 18.32587,10.76236 32.06973,31.18135 26.783,53.04298 -4.2725,25.27699 -26.46799,41.41281 -46.44668,54.37389 -1.48916,20.63659 -6.62815,48.36368 -31.89512,51.70311 -20.1445,7.79626 -46.76685,4.42753 -59.00413,25.82251 -8.6611,11.26817 -25.40966,30.61639 0.034,17.55251 19.74669,-1.47198 46.29038,-25.27528 62.23242,-5.01954 9.48097,8.73886 22.43483,37.63556 -1.19362,22.62432 -15.01494,-1.61987 -19.30909,-18.95477 -36.142,-6.88766 -20.81015,-0.80252 -46.17772,27.47861 -62.53547,11.42915 -5.91325,-17.15357 21.20405,-40.88294 17.89792,-48.00206 -16.82245,5.07392 -29.34283,17.84551 -42.89988,28.31847 -11.75328,18.4546 -31.86048,31.31521 -42.53515,52.05859 -13.2801,19.52306 -29.22277,37.27097 -42.14649,56.82227 -17.94543,15.01085 -3.62504,-22.57026 -5,-31.26369 0.59347,-17.45855 28.9557,-12.8252 32.24409,-32.99437 15.12933,-17.18573 23.17497,-39.86856 38.17583,-55.94508 11.62192,-9.16286 52.87277,-33.94753 19.61133,-38.17773 -26.33099,-10.16789 -53.25784,-25.93164 -79.03125,-4.07617 -23.101,-2.29454 -43.548608,-28.42906 -23.35547,-48.12696 27.51844,-26.60521 70.33041,-9.41809 102.16048,-26.83213 34.92769,-20.79381 79.58633,-33.53891 118.36101,-15.52143 18.28881,7.00758 42.08749,17.56657 59.32617,2.81834 18.72345,-20.86626 0.0576,-45.02416 -18.97422,-56.96863 -15.76365,-11.43539 -22.78688,-50.94134 4.50938,-51.746142 z" />
</svg>
