<svg width="512" height="512" viewBox="0 0 512 512" fill="none" xmlns="http://www.w3.org/2000/svg">
<path fill="#4b4b4b" d="m 334.09671,150.55342 c -9.79833,-9.80569 27.09983,-2.23269 6.54654,0 -2.18218,0 -4.36436,0 -6.54654,0 z m 0,-6.94442 c -9.79833,-9.80569 27.09983,-2.23268 6.54654,0 -2.18218,0 -4.36436,0 -6.54654,0 z m 0,-6.9444 c -9.79833,-9.80571 27.09983,-2.23269 6.54654,0 -2.18218,0 -4.36436,0 -6.54654,0 z m 0,-6.94442 c -9.79833,-9.8057 27.09983,-2.23268 6.54654,0 -2.18218,0 -4.36436,0 -6.54654,0 z m 0,-6.94441 c -9.79833,-9.8057 27.09983,-2.23269 6.54654,0 -2.18218,0 -4.36436,0 -6.54654,0 z m 0,-6.94441 c -9.79833,-9.8057 27.09983,-2.23269 6.54654,0 -2.18218,0 -4.36436,0 -6.54654,0 z m -13.88881,-6.94441 c -6.38486,-7.82891 14.40336,-3.62845 20.43535,-4.66578 5.48016,0.0796 27.26395,-1.6646 16.61354,4.66578 -12.34963,0 -24.69927,0 -37.04889,0 z m -55.55526,41.66647 c -9.79834,-9.80569 27.09982,-2.23269 6.54655,0 -2.18219,0 -4.36437,0 -6.54655,0 z m 0,-6.94442 c -9.79834,-9.80569 27.09982,-2.23268 6.54655,0 -2.18219,0 -4.36437,0 -6.54655,0 z m 0,-6.9444 c -9.79834,-9.80571 27.09982,-2.23269 6.54655,0 -2.18219,0 -4.36437,0 -6.54655,0 z m 0,-6.94442 c -6.38485,-7.82891 14.40336,-3.62844 20.43536,-4.66577 11.95895,-3.27318 18.02105,6.59519 2.85734,4.66577 -7.76423,0 -15.52846,0 -23.2927,0 z m 0,-6.94441 c -9.79834,-9.8057 27.09982,-2.23269 6.54655,0 -2.18219,0 -4.36437,0 -6.54655,0 z m 27.77763,0 c -9.79834,-9.8057 27.09982,-2.23269 6.54654,0 -2.18218,0 -4.36436,0 -6.54654,0 z m -27.77763,-6.94441 c -9.79834,-9.8057 27.09982,-2.23269 6.54655,0 -2.18219,0 -4.36437,0 -6.54655,0 z m 27.77763,0 c -9.79834,-9.8057 27.09982,-2.23269 6.54654,0 -2.18218,0 -4.36436,0 -6.54654,0 z m -27.77763,-6.94441 c -6.38485,-7.82891 14.40336,-3.62845 20.43536,-4.66578 11.95895,-3.27318 18.02105,6.59519 2.85734,4.66578 -7.76423,0 -15.52846,0 -23.2927,0 z m -55.55526,41.66647 c -6.38485,-7.82891 14.40335,-3.62844 20.43535,-4.66577 5.48016,0.0796 27.26395,-1.66461 16.61355,4.66577 -12.34962,0 -24.69928,0 -37.0489,0 z m 0,-6.94442 c -9.79832,-9.8057 27.09982,-2.23267 6.54655,0 -2.18218,0 -4.36437,0 -6.54655,0 z m 6.94441,-6.9444 c -9.79832,-9.80571 27.09983,-2.23268 6.54654,0 -2.18217,0 -4.36436,0 -6.54654,0 z m 13.88881,-6.94442 c -9.79832,-9.8057 27.09983,-2.23268 6.54655,0 -2.18219,0 -4.36436,0 -6.54655,0 z m 6.94441,-6.94441 c -9.79832,-9.8057 27.09982,-2.23268 6.54655,0 -2.18218,0 -4.36437,0 -6.54655,0 z m -27.77763,-6.94441 c -9.79832,-9.80571 27.09982,-2.23268 6.54655,0 -2.18218,0 -4.36437,0 -6.54655,0 z m 27.77763,0 c -9.79832,-9.80571 27.09982,-2.23268 6.54655,0 -2.18218,0 -4.36437,0 -6.54655,0 z m -20.83322,-6.94441 c -6.38486,-7.82892 14.40335,-3.62844 20.43534,-4.66578 15.30323,1.83882 -3.9845,6.97083 -10.89883,4.66578 -3.17884,0 -6.35768,0 -9.53651,0 z m -62.49967,41.66647 c -9.79833,-9.80571 27.09983,-2.23267 6.54655,0 -2.18218,0 -4.36436,0 -6.54655,0 z m 0,-6.94442 c -9.79833,-9.8057 27.09983,-2.23267 6.54655,0 -2.18218,0 -4.36436,0 -6.54655,0 z m 0,-6.9444 c -9.79833,-9.80571 27.09983,-2.23268 6.54655,0 -2.18218,0 -4.36436,0 -6.54655,0 z m 0,-6.94442 c -6.38485,-7.82891 14.40337,-3.62844 20.43535,-4.66577 11.95895,-3.27318 18.02107,6.59519 2.85735,4.66577 -7.76424,0 -15.52846,0 -23.2927,0 z m 0,-6.94441 c -9.79833,-9.80571 27.09983,-2.23268 6.54655,0 -2.18218,0 -4.36436,0 -6.54655,0 z m 27.77764,0 c -9.79833,-9.80571 27.09981,-2.23268 6.54654,0 -2.18218,0 -4.36437,0 -6.54654,0 z m -27.77764,-6.94441 c -9.79833,-9.80571 27.09983,-2.23268 6.54655,0 -2.18218,0 -4.36436,0 -6.54655,0 z m 27.77764,0 c -9.79833,-9.80571 27.09981,-2.23268 6.54654,0 -2.18218,0 -4.36437,0 -6.54654,0 z m -27.77764,-6.94441 c -6.38485,-7.82892 14.40337,-3.62844 20.43535,-4.66578 11.95895,-3.27318 18.02107,6.59519 2.85735,4.66578 -7.76424,0 -15.52846,0 -23.2927,0 z m -7.61014,341.09854 C 108.75092,428.29027 71.157131,407.2395 34.671325,384.39407 31.037465,309.29181 32.594676,233.93734 33.145774,158.74075 28.238169,133.76459 39.415656,116.82769 63.168636,108.72646 125.60041,72.168346 187.91947,35.390348 251.0224,0 c 23.90183,0.49090232 44.57846,23.21251 67.04614,32.532371 53.23815,30.982614 106.75054,61.526249 159.42112,93.461919 3.61555,73.66665 2.05392,147.58405 1.60204,221.34647 2.15446,22.73717 0.0285,44.50522 -25.23041,51.31789 C 388.66803,436.79214 323.61631,475.20963 257.65596,512 219.45761,493.2647 183.0266,470.84569 145.93198,449.98549 Z m 138.33549,14.20386 c 54.84251,-32.53288 111.42505,-62.40945 164.93402,-97.01592 5.89095,-6.13083 1.25087,-16.58339 2.58723,-24.58336 -1.04472,-66.35439 -0.28999,-132.77602 -3.3764,-199.0688 C 430.75562,128.08634 406.5989,118.11399 386.34017,105.03505 343.00153,80.409849 300.11348,54.893737 255.98303,31.719288 191.50563,65.97804 128.46682,103.08047 65.972434,140.85363 c -11.026133,18.60188 -2.776171,45.06475 -5.576951,66.58452 0.453022,51.79343 -1.186632,103.67017 1.251975,155.40934 13.722242,18.15142 40.227722,25.74357 58.969152,39.4556 44.85564,25.69891 89.12783,52.59612 135.10822,76.22431 10.12087,-3.3668 19.23836,-9.21256 28.54264,-14.33805 z m -30.5428,-107.61379 c -28.18732,-41.76179 -80.16571,-65.03228 -98.76029,-113.8239 -12.42602,-29.19908 0.83289,-67.4152 31.98516,-77.91411 23.39739,-6.30818 50.75478,-0.07 63.94856,21.78335 6.05539,19.70955 11.88328,-10.88953 22.05347,-12.99531 19.67913,-15.64176 51.95173,-14.70145 70.38785,2.4236 27.97635,23.96332 19.72862,66.55191 -0.45336,92.69239 -25.67666,33.63389 -63.16718,56.16239 -87.73541,90.81029 z" />
</svg>
