<svg width="512" height="512" viewBox="0 0 512 512" fill="none" xmlns="http://www.w3.org/2000/svg">
<g transform="matrix(1.38414,0,0,1.38414,99.435379,15.115428)" style="fill:#4B4B4B">
<path d="m 169.28516,98.734375 q -0.9375,0 -1.48438,-0.507813 -0.54687,-0.507812 -0.54687,-1.171875 0,-0.664062 0.54687,-1.171875 0.54688,-0.507812 1.48438,-0.507812 h 7.65625 q 0.9375,0 1.48437,0.507812 0.54688,0.507813 0.54688,1.171875 0,0.664063 -0.54688,1.171875 -0.54687,0.507813 -1.48437,0.507813 z m 0,-5 q -0.9375,0 -1.48438,-0.507813 -0.54687,-0.507812 -0.54687,-1.171875 0,-0.664062 0.54687,-1.171875 0.54688,-0.507812 1.48438,-0.507812 h 7.65625 q 0.9375,0 1.48437,0.507812 0.54688,0.507813 0.54688,1.171875 0,0.664063 -0.54688,1.171875 -0.54687,0.507813 -1.48437,0.507813 z m 0,-5 q -0.9375,0 -1.48438,-0.507813 -0.54687,-0.507812 -0.54687,-1.171875 0,-0.664062 0.54687,-1.171875 0.54688,-0.507812 1.48438,-0.507812 h 7.65625 q 0.9375,0 1.48437,0.507812 0.54688,0.507813 0.54688,1.171875 0,0.664063 -0.54688,1.171875 -0.54687,0.507813 -1.48437,0.507813 z m 0,-5 q -0.9375,0 -1.48438,-0.507813 -0.54687,-0.507812 -0.54687,-1.171875 0,-0.664062 0.54687,-1.171875 0.54688,-0.507812 1.48438,-0.507812 h 7.65625 q 0.9375,0 1.48437,0.507812 0.54688,0.507813 0.54688,1.171875 0,0.664063 -0.54688,1.171875 -0.54687,0.507813 -1.48437,0.507813 z m 0,-5 q -0.9375,0 -1.48438,-0.507813 -0.54687,-0.507812 -0.54687,-1.171875 0,-0.664062 0.54687,-1.171875 0.54688,-0.507812 1.48438,-0.507812 h 7.65625 q 0.9375,0 1.48437,0.507812 0.54688,0.507813 0.54688,1.171875 0,0.664063 -0.54688,1.171875 -0.54687,0.507813 -1.48437,0.507813 z m 0,-5 q -0.9375,0 -1.48438,-0.507813 -0.54687,-0.507812 -0.54687,-1.171875 0,-0.664062 0.54687,-1.171875 0.54688,-0.507812 1.48438,-0.507812 h 7.65625 q 0.9375,0 1.48437,0.507812 0.54688,0.507813 0.54688,1.171875 0,0.664063 -0.54688,1.171875 -0.54687,0.507813 -1.48437,0.507813 z m -10,-5 q -0.9375,0 -1.48438,-0.507813 -0.54687,-0.507812 -0.54687,-1.171875 0,-0.664062 0.54687,-1.171875 0.54688,-0.507812 1.48438,-0.507812 h 27.65625 q 0.9375,0 1.48437,0.507812 0.54688,0.507813 0.54688,1.171875 0,0.664063 -0.54688,1.171875 -0.54687,0.507813 -1.48437,0.507813 z m -40,30 q -0.9375,0 -1.48438,-0.507813 -0.54687,-0.507812 -0.54687,-1.171875 0,-0.664062 0.54687,-1.171875 0.54688,-0.507812 1.48438,-0.507812 h 7.65625 q 0.9375,0 1.48437,0.507812 0.54688,0.507813 0.54688,1.171875 0,0.664063 -0.54688,1.171875 -0.54687,0.507813 -1.48437,0.507813 z m 0,-5 q -0.9375,0 -1.48438,-0.507813 -0.54687,-0.507812 -0.54687,-1.171875 0,-0.664062 0.54687,-1.171875 0.54688,-0.507812 1.48438,-0.507812 h 7.65625 q 0.9375,0 1.48437,0.507812 0.54688,0.507813 0.54688,1.171875 0,0.664063 -0.54688,1.171875 -0.54687,0.507813 -1.48437,0.507813 z m 0,-5 q -0.9375,0 -1.48438,-0.507813 -0.54687,-0.507812 -0.54687,-1.171875 0,-0.664062 0.54687,-1.171875 0.54688,-0.507812 1.48438,-0.507812 h 7.65625 q 0.9375,0 1.48437,0.507812 0.54688,0.507813 0.54688,1.171875 0,0.664063 -0.54688,1.171875 -0.54687,0.507813 -1.48437,0.507813 z m 0,-5 q -0.9375,0 -1.48438,-0.507813 -0.54687,-0.507812 -0.54687,-1.171875 0,-0.664062 0.54687,-1.171875 0.54688,-0.507812 1.48438,-0.507812 h 22.65625 q 0.9375,0 1.48437,0.507812 0.54688,0.507813 0.54688,1.171875 0,0.664063 -0.54688,1.171875 -0.54687,0.507813 -1.48437,0.507813 z m 0,-5 q -0.9375,0 -1.48438,-0.507813 -0.54687,-0.507812 -0.54687,-1.171875 0,-0.664062 0.54687,-1.171875 0.54688,-0.507812 1.48438,-0.507812 h 7.65625 q 0.9375,0 1.48437,0.507812 0.54688,0.507813 0.54688,1.171875 0,0.664063 -0.54688,1.171875 -0.54687,0.507813 -1.48437,0.507813 z m 20,0 q -0.9375,0 -1.48438,-0.507813 -0.54687,-0.507812 -0.54687,-1.171875 0,-0.664062 0.54687,-1.171875 0.54688,-0.507812 1.48438,-0.507812 h 7.65625 q 0.9375,0 1.48437,0.507812 0.54688,0.507813 0.54688,1.171875 0,0.664063 -0.54688,1.171875 -0.54687,0.507813 -1.48437,0.507813 z m -20,-5 q -0.9375,0 -1.48438,-0.507813 -0.54687,-0.507812 -0.54687,-1.171875 0,-0.664062 0.54687,-1.171875 0.54688,-0.507812 1.48438,-0.507812 h 7.65625 q 0.9375,0 1.48437,0.507812 0.54688,0.507813 0.54688,1.171875 0,0.664063 -0.54688,1.171875 -0.54687,0.507813 -1.48437,0.507813 z m 20,0 q -0.9375,0 -1.48438,-0.507813 -0.54687,-0.507812 -0.54687,-1.171875 0,-0.664062 0.54687,-1.171875 0.54688,-0.507812 1.48438,-0.507812 h 7.65625 q 0.9375,0 1.48437,0.507812 0.54688,0.507813 0.54688,1.171875 0,0.664063 -0.54688,1.171875 -0.54687,0.507813 -1.48437,0.507813 z m -20,-5 q -0.9375,0 -1.48438,-0.507813 -0.54687,-0.507812 -0.54687,-1.171875 0,-0.664062 0.54687,-1.171875 0.54688,-0.507812 1.48438,-0.507812 h 22.65625 q 0.9375,0 1.48437,0.507812 0.54688,0.507813 0.54688,1.171875 0,0.664063 -0.54688,1.171875 -0.54687,0.507813 -1.48437,0.507813 z m -40.000004,30 q -0.9375,0 -1.484375,-0.507813 -0.546875,-0.507812 -0.546875,-1.171875 0,-0.664062 0.546875,-1.171875 Q 78.347656,95.375 79.285156,95.375 h 27.656254 q 0.9375,0 1.48437,0.507812 0.54688,0.507813 0.54688,1.171875 0,0.664063 -0.54688,1.171875 -0.54687,0.507813 -1.48437,0.507813 z m 0,-5 q -0.9375,0 -1.484375,-0.507813 -0.546875,-0.507812 -0.546875,-1.171875 0,-0.664062 0.546875,-1.171875 Q 78.347656,90.375 79.285156,90.375 h 7.65625 q 0.9375,0 1.484375,0.507812 0.546875,0.507813 0.546875,1.171875 0,0.664063 -0.546875,1.171875 -0.546875,0.507813 -1.484375,0.507813 z m 5,-5 q -0.9375,0 -1.484375,-0.507813 -0.546875,-0.507812 -0.546875,-1.171875 0,-0.664062 0.546875,-1.171875 Q 83.347656,85.375 84.285156,85.375 h 7.65625 q 0.9375,0 1.484375,0.507812 0.546875,0.507813 0.546875,1.171875 0,0.664063 -0.546875,1.171875 -0.546875,0.507813 -1.484375,0.507813 z m 10,-5 q -0.9375,0 -1.484375,-0.507813 -0.546875,-0.507812 -0.546875,-1.171875 0,-0.664062 0.546875,-1.171875 Q 93.347656,80.375 94.285156,80.375 h 7.656254 q 0.9375,0 1.48437,0.507812 0.54688,0.507813 0.54688,1.171875 0,0.664063 -0.54688,1.171875 -0.54687,0.507813 -1.48437,0.507813 z m 5,-5 q -0.9375,0 -1.484375,-0.507813 -0.546875,-0.507812 -0.546875,-1.171875 0,-0.664062 0.546875,-1.171875 Q 98.347656,75.375 99.285156,75.375 h 7.656254 q 0.9375,0 1.48437,0.507812 0.54688,0.507813 0.54688,1.171875 0,0.664063 -0.54688,1.171875 -0.54687,0.507813 -1.48437,0.507813 z m -20,-5 q -0.9375,0 -1.484375,-0.507813 -0.546875,-0.507812 -0.546875,-1.171875 0,-0.664062 0.546875,-1.171875 Q 78.347656,70.375 79.285156,70.375 h 7.65625 q 0.9375,0 1.484375,0.507812 0.546875,0.507813 0.546875,1.171875 0,0.664063 -0.546875,1.171875 -0.546875,0.507813 -1.484375,0.507813 z m 20,0 q -0.9375,0 -1.484375,-0.507813 -0.546875,-0.507812 -0.546875,-1.171875 0,-0.664062 0.546875,-1.171875 Q 98.347656,70.375 99.285156,70.375 h 7.656254 q 0.9375,0 1.48437,0.507812 0.54688,0.507813 0.54688,1.171875 0,0.664063 -0.54688,1.171875 -0.54687,0.507813 -1.48437,0.507813 z m -15,-5 q -0.9375,0 -1.484375,-0.507813 -0.546875,-0.507812 -0.546875,-1.171875 0,-0.664062 0.546875,-1.171875 Q 83.347656,65.375 84.285156,65.375 h 17.656254 q 0.9375,0 1.48437,0.507812 0.54688,0.507813 0.54688,1.171875 0,0.664063 -0.54688,1.171875 -0.54687,0.507813 -1.48437,0.507813 z m -45,30 q -0.9375,0 -1.484375,-0.507813 -0.546875,-0.507812 -0.546875,-1.171875 0,-0.664062 0.546875,-1.171875 Q 38.347656,95.375 39.285156,95.375 h 7.65625 q 0.9375,0 1.484375,0.507812 0.546875,0.507813 0.546875,1.171875 0,0.664063 -0.546875,1.171875 -0.546875,0.507813 -1.484375,0.507813 z m 0,-5 q -0.9375,0 -1.484375,-0.507813 -0.546875,-0.507812 -0.546875,-1.171875 0,-0.664062 0.546875,-1.171875 Q 38.347656,90.375 39.285156,90.375 h 7.65625 q 0.9375,0 1.484375,0.507812 0.546875,0.507813 0.546875,1.171875 0,0.664063 -0.546875,1.171875 -0.546875,0.507813 -1.484375,0.507813 z m 0,-5 q -0.9375,0 -1.484375,-0.507813 -0.546875,-0.507812 -0.546875,-1.171875 0,-0.664062 0.546875,-1.171875 Q 38.347656,85.375 39.285156,85.375 h 7.65625 q 0.9375,0 1.484375,0.507812 0.546875,0.507813 0.546875,1.171875 0,0.664063 -0.546875,1.171875 -0.546875,0.507813 -1.484375,0.507813 z m 0,-5 q -0.9375,0 -1.484375,-0.507813 -0.546875,-0.507812 -0.546875,-1.171875 0,-0.664062 0.546875,-1.171875 Q 38.347656,80.375 39.285156,80.375 h 22.65625 q 0.9375,0 1.484375,0.507812 0.546875,0.507813 0.546875,1.171875 0,0.664063 -0.546875,1.171875 -0.546875,0.507813 -1.484375,0.507813 z m 0,-5 q -0.9375,0 -1.484375,-0.507813 -0.546875,-0.507812 -0.546875,-1.171875 0,-0.664062 0.546875,-1.171875 Q 38.347656,75.375 39.285156,75.375 h 7.65625 q 0.9375,0 1.484375,0.507812 0.546875,0.507813 0.546875,1.171875 0,0.664063 -0.546875,1.171875 -0.546875,0.507813 -1.484375,0.507813 z m 20,0 q -0.9375,0 -1.484375,-0.507813 -0.546875,-0.507812 -0.546875,-1.171875 0,-0.664062 0.546875,-1.171875 Q 58.347656,75.375 59.285156,75.375 h 7.65625 q 0.9375,0 1.484375,0.507812 0.546875,0.507813 0.546875,1.171875 0,0.664063 -0.546875,1.171875 -0.546875,0.507813 -1.484375,0.507813 z m -20,-5 q -0.9375,0 -1.484375,-0.507813 -0.546875,-0.507812 -0.546875,-1.171875 0,-0.664062 0.546875,-1.171875 Q 38.347656,70.375 39.285156,70.375 h 7.65625 q 0.9375,0 1.484375,0.507812 0.546875,0.507813 0.546875,1.171875 0,0.664063 -0.546875,1.171875 -0.546875,0.507813 -1.484375,0.507813 z m 20,0 q -0.9375,0 -1.484375,-0.507813 -0.546875,-0.507812 -0.546875,-1.171875 0,-0.664062 0.546875,-1.171875 Q 58.347656,70.375 59.285156,70.375 h 7.65625 q 0.9375,0 1.484375,0.507812 0.546875,0.507813 0.546875,1.171875 0,0.664063 -0.546875,1.171875 -0.546875,0.507813 -1.484375,0.507813 z m -20,-5 q -0.9375,0 -1.484375,-0.507813 -0.546875,-0.507812 -0.546875,-1.171875 0,-0.664062 0.546875,-1.171875 Q 38.347656,65.375 39.285156,65.375 h 22.65625 q 0.9375,0 1.484375,0.507812 0.546875,0.507813 0.546875,1.171875 0,0.664063 -0.546875,1.171875 -0.546875,0.507813 -1.484375,0.507813 z M 33.80583,314.32646 c -43.2521066,-24.93223 -79.300755,-46.1839 -80.108108,-47.22604 -2.142406,-2.76536 -2.142406,-183.323107 0,-186.084846 1.18911,-1.532864 142.842116,-83.9930261 155.773618,-90.6801624 2.93847,-1.5195406 4.18363,-1.6214116 6.2947,-0.5149936 13.19195,6.9139524 155.64407,89.816953 156.7626,91.231303 2.14269,2.709321 2.14269,183.302829 0,186.005599 -1.31253,1.65562 -153.87881,90.25663 -158.28112,91.91979 -1.09693,0.41455 -32.557313,-17.04822 -80.44169,-44.65065 z m 99.60208,10.22682 c 9.82905,-5.71273 39.80168,-23.00396 66.60577,-38.42488 26.80414,-15.42097 49.95723,-29.25205 51.45134,-30.73573 l 2.71658,-2.69762 -0.79945,-79.54 c -0.56941,-56.65101 -1.18217,-79.936905 -2.12942,-80.919335 -2.76207,-2.864719 -135.96396,-79.06231 -138.20972,-79.06231 -2.95931,0 -136.0037,76.706869 -138.794492,80.022104 -1.912332,2.271688 -2.055081,7.888441 -2.055081,80.861251 0,72.97287 0.14274,78.58955 2.055081,80.86109 2.926821,3.47661 135.376142,79.88241 138.608582,79.95888 1.47385,0.0355 10.72171,-4.61067 20.55081,-10.32345 z M 111.41698,247.071 C 110.11045,242.95454 97.12084,229.33814 79.281243,213.38461 58.695277,194.97512 49.10443,184.01015 43.341158,172.29527 c -12.5927,-25.59691 -5.73705,-50.81556 16.838379,-61.94037 4.436962,-2.18646 7.317162,-2.64686 16.529381,-2.64219 9.874365,0.005 11.856061,0.37402 17.247908,3.21194 6.894144,3.62865 13.722314,10.15848 16.722014,15.99143 l 2.02762,3.94271 3.79095,-5.90768 c 4.08893,-6.37205 8.27662,-10.01663 16.57939,-14.42912 4.51263,-2.39823 6.91404,-2.80625 16.44065,-2.79347 13.15667,0.0178 19.63681,2.53335 27.96434,10.85617 13.45089,13.44322 15.27979,33.00506 5.02154,53.71058 -6.50384,13.1275 -14.21168,21.90965 -37.53201,42.76302 -11.75484,10.51142 -22.7464,21.46796 -26.2123,26.12887 -3.28282,4.41476 -6.12471,8.02679 -6.31533,8.02679 -0.19059,0 -0.65264,-0.96433 -1.02671,-2.14295 z" />
</g>
</svg>
