<?xml version="1.0" encoding="UTF-8" standalone="no"?>
<svg
   xmlns:dc="http://purl.org/dc/elements/1.1/"
   xmlns:cc="http://creativecommons.org/ns#"
   xmlns:rdf="http://www.w3.org/1999/02/22-rdf-syntax-ns#"
   xmlns:svg="http://www.w3.org/2000/svg"
   xmlns="http://www.w3.org/2000/svg"
   width="512"
   height="512"
   viewBox="0 0 512 512"
   fill="none"
   version="1.1"
   id="svg8">
  <metadata
     id="metadata14">
    <rdf:RDF>
      <cc:Work
         rdf:about="">
        <dc:format>image/svg+xml</dc:format>
        <dc:type
           rdf:resource="http://purl.org/dc/dcmitype/StillImage" />
        <dc:title></dc:title>
      </cc:Work>
    </rdf:RDF>
  </metadata>
  <defs
     id="defs12" />
  <path
     id="rect950"
     style="fill:#4b4b4b;fill-opacity:1;stroke:#bf0000;stroke-width:0;stroke-linejoin:round;stroke-miterlimit:4;stroke-dasharray:none;stroke-opacity:1;paint-order:fill markers stroke"
     d="M 38.355469 51.197266 L 38.355469 473.59961 L 64.048828 473.59961 L 64.048828 375.78906 L 120.44336 321.70703 L 174.63672 347.79102 L 174.63672 473.59961 L 200.33008 473.59961 L 200.33008 359.31445 L 201.00586 357.91016 L 310.91797 410.81445 L 310.91797 473.59961 L 336.61133 473.59961 L 336.61133 422.60156 L 397.36133 362.24023 L 447.19922 386.23047 L 447.19922 473.59961 L 472.89258 473.59961 L 472.89258 51.197266 L 447.19922 51.197266 L 447.19922 214.41406 L 336.61133 138.81836 L 336.61133 51.197266 L 310.91797 51.197266 L 310.91797 138.35938 L 200.33008 186.80273 L 200.33008 51.197266 L 174.63672 51.197266 L 174.63672 192.0625 L 64.048828 116.4668 L 64.048828 51.197266 L 38.355469 51.197266 z M 64.048828 137.42188 L 174.1543 212.6875 L 174.63672 213.78906 L 174.63672 245.76367 L 117.13281 300.91211 L 64.048828 275.36133 L 64.048828 137.42188 z M 310.91797 157.24414 L 310.91797 301.61523 L 200.33008 248.38477 L 200.33008 205.68945 L 310.91797 157.24414 z M 336.61133 159.77344 L 447.19922 235.36914 L 447.19922 288.33398 L 393.84375 341.34766 L 336.61133 313.79883 L 336.61133 159.77344 z M 200.33008 267.58398 L 310.91797 320.81445 L 310.91797 391.61523 L 200.33008 338.38477 L 200.33008 267.58398 z M 174.63672 269.73438 L 174.63672 328.5918 L 133.77344 308.92188 L 174.63672 269.73438 z M 64.048828 294.56055 L 103.80273 313.69531 L 64.048828 351.82031 L 64.048828 294.56055 z M 447.19922 312.7207 L 447.19922 367.0293 L 410.37891 349.30664 L 447.19922 312.7207 z M 336.61133 332.99805 L 380.82812 354.28125 L 336.61133 398.21484 L 336.61133 332.99805 z " />
</svg>
