<svg width="512" height="512" viewBox="0 0 512 512" fill="none" xmlns="http://www.w3.org/2000/svg">
<path d="M256 38.4C135.823 38.4 38.4 135.823 38.4 256C38.4 376.177 135.823 473.6 256 473.6C376.177 473.6 473.6 376.177 473.6 256C473.6 135.823 376.177 38.4 256 38.4ZM12.8 256C12.8 121.684 121.684 12.8 256 12.8C390.316 12.8 499.2 121.684 499.2 256C499.2 390.316 390.316 499.2 256 499.2C121.684 499.2 12.8 390.316 12.8 256ZM192 166.4H230.4V345.6H192V166.4ZM281.6 166.4H320V345.6H281.6V166.4Z" fill="#4B4B4B"/>
</svg>
