<?xml version="1.0" encoding="UTF-8" standalone="no"?>
<svg
   width="512"
   height="512"
   viewBox="0 0 512 512"
   fill="none"
   version="1.1"
   id="svg4"
   xml:space="preserve"
   xmlns="http://www.w3.org/2000/svg"
   xmlns:svg="http://www.w3.org/2000/svg"><defs
     id="defs8" /><g
     id="g2383"
     transform="matrix(3.0349014,0,0,3.0349014,-46.85281,-53.805244)"><g
       fill="#0e172c"
       id="g1463" /><g
       fill="#21293e"
       id="g1477" /><g
       fill="#f27d2a"
       id="g1487"
       style="fill:#333333"><path
         id="path2412"
         style="fill:#333333"
         d="m 108.98,29.41 v -2.25 l 2.17,-0.06 c 1.19,-0.04 2.21,-0.02 2.25,0.02 0.04,0.04 0.08,1.07 0.08,2.3 v 2.21 h -2.25 -2.25 V 29.4 Z m -7.61,0 V 27.2 l 1.04,-0.14 c 0.55,-0.06 1.56,-0.12 2.25,-0.12 h 1.21 v 2.34 2.34 h -2.25 -2.25 V 29.39 Z M 93.95,29.3 v -2.34 h 2.25 2.25 v 2.34 2.34 H 96.2 93.95 Z m -7.62,0.09 v -2.25 h 2.25 2.25 v 2.25 2.25 h -2.25 -2.25 z m 7.48,18.17 c 0,-0.74 0.04,-1.04 0.08,-0.63 0.04,0.39 0.04,1.02 0,1.37 -0.04,0.33 -0.08,0.02 -0.08,-0.74 z m 0.02,6.93 c 0,-2.42 0.04,-3.4 0.06,-2.19 0.04,1.19 0.04,3.18 0,4.39 -0.02,1.19 -0.06,0.21 -0.06,-2.21 z M 78.77,60.41 C 78.2,60.35 77.85,60.2 77.66,59.94 77.41,59.55 77.39,59.55 77.29,59.9 77.23,60.1 77.19,53.24 77.17,44.69 L 77.15,29.1 h 1.27 1.27 v 3.52 3.52 h 2.93 2.93 l 0.04,7.19 0.06,7.17 1.91,0.06 1.89,0.06 v 3.98 4 l -1.02,0.02 c -1.41,0.02 -1.76,0.2 -1.84,0.86 -0.1,1 -0.43,1.07 -3.87,1.04 -1.74,-0.02 -3.52,-0.06 -3.96,-0.1 z m 15.06,3.46 c 0,-1.78 0.04,-2.5 0.06,-1.6 0.04,0.88 0.04,2.32 0,3.22 -0.02,0.88 -0.06,0.16 -0.06,-1.62 z m 11.74,59.74 c -0.31,-0.08 -2.77,-0.14 -5.43,-0.16 -4.1,-0.02 -4.9,-0.06 -5.31,-0.33 -0.27,-0.18 -0.49,-0.25 -0.49,-0.18 0,0.1 -0.2,0 -0.43,-0.21 -0.23,-0.2 -0.35,-0.25 -0.27,-0.12 0.1,0.16 -0.02,0.23 -0.37,0.23 -0.27,0 -0.47,-0.06 -0.41,-0.16 0.04,-0.08 -0.2,-0.16 -0.53,-0.18 -0.57,-0.02 -0.98,-0.1 -1.6,-0.27 -0.1,-0.04 1.07,-0.12 2.64,-0.18 2.77,-0.12 2.73,-0.12 -1.52,-0.16 -4,-0.04 -4.36,-0.08 -4.65,-0.41 -0.18,-0.2 -0.8,-1.46 -1.39,-2.79 C 84.77,116.35 76.94,98.2 76.06,96.07 L 75.59,95 V 81.19 67.36 h 3.59 3.59 l 0.61,0.8 c 2.77,3.77 6.45,6.54 10.64,7.99 2.07,0.72 2.34,0.74 2.15,0.16 -0.06,-0.25 -0.23,-0.59 -0.35,-0.74 -0.14,-0.16 -0.21,-0.64 -0.2,-1.07 0.02,-0.43 -0.04,-0.88 -0.14,-1 -0.21,-0.25 -0.16,-1.25 0.06,-1.25 0.37,0 -0.31,-0.92 -0.84,-1.11 l -0.57,-0.21 -0.04,-12.48 -0.06,-12.46 -0.98,-0.1 -0.98,-0.1 -0.06,-4.84 -0.04,-4.82 h 3.91 3.91 V 79 121.87 H 106 c 5.68,0 6.25,-0.04 6.54,-0.35 0.39,-0.43 0.84,-1.45 5.02,-11.17 1.89,-4.45 3.79,-8.81 4.2,-9.67 0.39,-0.86 1.13,-2.48 1.6,-3.61 l 0.88,-2.05 0.04,-14.65 0.02,-14.65 h 0.84 l 0.82,-0.02 v 14.51 c 0,13.95 -0.02,14.57 -0.39,15.63 -0.21,0.61 -0.33,1.17 -0.25,1.29 0.06,0.12 0.02,0.14 -0.08,0.08 -0.2,-0.14 -1.54,3.05 -1.5,3.52 0.02,0.14 -0.04,0.21 -0.1,0.16 -0.21,-0.12 -1.05,2.01 -0.88,2.27 0.08,0.14 0.06,0.18 -0.06,0.12 -0.27,-0.18 -0.86,1.31 -0.72,1.76 0.08,0.25 0.06,0.27 -0.06,0.1 -0.21,-0.29 -3.07,6.31 -2.87,6.64 0.08,0.12 0.06,0.16 -0.06,0.1 -0.1,-0.06 -0.39,0.39 -0.64,1 -0.25,0.61 -1.23,2.91 -2.19,5.12 -1.97,4.53 -2.58,5.39 -3.95,5.55 -1.35,0.18 -6.04,0.23 -6.66,0.1 z m -11.68,48.91 c -0.18,-0.16 -0.18,-37.3 -0.02,-38.91 l 0.14,-1.19 h 2.89 2.91 v 20.12 20.12 h -2.89 c -1.6,0 -2.97,-0.06 -3.03,-0.14 z M 108.2,54.69 v -6.04 l 1.91,-0.06 1.89,-0.06 0.06,-7.17 0.04,-7.19 h 3.03 3.03 v -3.61 -3.61 h 2.25 2.25 v 16.89 16.89 h -7.23 -7.23 v -6.05 z m -31.05,5.17 c 0,-0.76 0.06,-0.88 0.41,-0.88 0.21,0 0.57,0.2 0.74,0.41 0.31,0.39 0.57,0.43 3.55,0.53 3.65,0.1 4.08,0 4.08,-0.96 0,-0.7 0.53,-0.96 1.97,-0.96 h 0.96 v -3.42 -3.4 L 86.97,51.12 85.06,51.06 85,43.89 84.96,36.7 H 82.03 79.1 v -3.52 -3.52 h -0.98 -0.98 v -1.04 c 0,-0.57 0.1,-1.13 0.23,-1.27 0.16,-0.16 0.94,-0.23 2.25,-0.23 h 2.01 v 3.52 3.52 h 3.03 3.03 v 7.13 7.13 h 1.86 1.86 l 0.02,2.3 c 0.04,3.81 0.04,5.12 0.02,7.62 l -0.04,2.38 h -7.13 -7.13 v -0.88 z m 16.4,92.78 v -20.21 l -0.63,-0.57 -0.64,-0.57 -0.06,-3.73 -0.06,-3.73 h -1.5 c -1.82,0 -4.06,-0.45 -4.73,-0.94 -0.27,-0.2 -0.74,-0.82 -1.04,-1.37 C 84.36,120.54 76.84,103.2 74.58,97.71 L 73.43,94.96 V 80.21 65.48 l 1.33,-0.12 c 0.72,-0.08 3.05,-0.14 5.16,-0.14 h 3.85 l 1.27,1.72 c 2.25,3.05 5.18,5.55 7.93,6.72 1.91,0.82 1.95,0.8 1.95,-0.82 0,-0.78 -0.08,-1.37 -0.2,-1.37 -0.1,0 -0.37,-0.18 -0.59,-0.39 -0.39,-0.39 -0.39,-0.64 -0.39,-12.7 v -12.3 h -1.86 -1.86 l 0.04,-5.9 0.06,-5.92 9.82,-0.06 9.8,-0.04 v 5.96 5.96 h -1.95 -1.95 l -0.04,12.56 -0.06,12.54 -0.43,0.2 c -0.41,0.18 -0.45,0.33 -0.45,1.6 v 1.43 l 1.27,-0.49 c 3.07,-1.15 6.25,-3.71 8.61,-6.93 l 1.13,-1.56 h 3.54 c 1.93,0 4.24,-0.06 5.14,-0.14 l 1.6,-0.12 v 14.96 14.98 l -0.47,1.23 c -0.61,1.62 -10.39,24.39 -10.98,25.55 -0.29,0.61 -0.66,1.02 -1.11,1.23 -0.88,0.41 -0.92,0.41 -0.92,-0.18 v -0.49 h -6.74 -6.74 V 79.58 36.71 h -3.32 -3.32 l 0.04,4.26 0.06,4.24 0.98,0.1 0.98,0.1 0.06,12.46 0.04,12.48 0.57,0.21 c 0.78,0.29 0.96,0.78 0.98,2.62 0,1 0.12,1.76 0.31,2.13 0.16,0.31 0.29,0.9 0.29,1.31 v 0.72 h -0.88 c -1.11,0 -3.77,-0.92 -5.72,-1.97 -2.79,-1.5 -5.47,-3.85 -7.48,-6.6 l -0.61,-0.8 h -3.01 -3.01 v 13.24 13.22 l 0.47,1.07 c 0.88,2.13 8.71,20.27 9.75,22.62 0.59,1.33 1.21,2.6 1.39,2.79 0.29,0.35 0.63,0.37 4.61,0.37 h 4.3 v 0.66 c 0,0.59 -0.08,0.68 -0.53,0.76 -0.31,0.04 1.04,0.1 2.99,0.12 7.34,0.06 12.38,0.27 12.38,0.51 0,0.35 -0.66,0.49 -2.48,0.49 h -1.62 v 3.73 3.75 l -0.68,0.64 -0.68,0.64 v 20.12 20.14 H 99.8 93.55 v -20.21 z m 5.66,-0.1 v -19.53 h -2.32 -2.3 l -0.14,1.19 c -0.16,1.6 -0.16,37.58 0.02,37.73 0.06,0.08 1.17,0.14 2.44,0.14 h 2.3 z m 6.02,-22.3 c 0.16,-0.16 0.23,-1.17 0.23,-3.32 v -3.09 h -5.57 -5.57 v 3.18 c 0,1.76 0.06,3.26 0.14,3.32 0.06,0.08 2.46,0.14 5.33,0.14 3.77,0 5.25,-0.06 5.43,-0.23 z m 9.12,-10.04 c 0.64,-1.43 0.8,-1.82 0.59,-1.62 -0.18,0.18 -1.45,3.11 -1.35,3.11 0.04,0 0.39,-0.66 0.76,-1.48 z m 2.05,-4.69 c 0.55,-1.25 0.96,-2.3 0.92,-2.34 -0.06,-0.08 -2.03,4.36 -2.23,5 -0.21,0.74 0.41,-0.53 1.31,-2.66 z m 2.15,-5.04 c 0.55,-1.27 0.96,-2.36 0.92,-2.4 -0.04,-0.04 -0.49,0.92 -1.02,2.13 -1.07,2.54 -1.17,2.83 -1.02,2.7 0.06,-0.06 0.57,-1.15 1.11,-2.42 z m 1.54,-3.73 c 0,-0.1 -0.12,0.02 -0.27,0.29 -0.16,0.27 -0.27,0.59 -0.27,0.68 0,0.12 0.12,-0.02 0.27,-0.29 0.16,-0.27 0.27,-0.57 0.27,-0.68 z m 1.09,-2.44 c 0.96,-2.21 1.13,-2.68 0.92,-2.44 -0.16,0.18 -1.39,2.97 -1.74,3.95 -0.31,0.92 0.2,-0.02 0.82,-1.5 z m 4.16,-23.67 c 0.04,-9.63 -0.02,-14.22 -0.16,-14.22 -0.23,0 -0.27,1.82 -0.29,17.23 0,7.99 0.06,11.74 0.2,11.52 0.12,-0.21 0.21,-5.51 0.25,-14.53 z" /></g></g></svg>
