<svg width="20" height="20" viewBox="0 0 20 20" fill="none" xmlns="http://www.w3.org/2000/svg">
<path fill-rule="evenodd" clip-rule="evenodd" d="M17.6035 3.52645C16.8185 2.74143 15.5525 2.74118 14.7672 3.5257L14.7664 3.52645L4.58836 13.6239L2.99649 18.0015L7.38959 16.5372L17.6029 6.36427L17.6066 6.36052C18.3778 5.57597 18.3778 4.31402 17.6066 3.52947L17.6035 3.52645ZM15.4735 4.23355C15.8678 3.83932 16.5001 3.83882 16.8949 4.23204C17.2816 4.62705 17.2817 5.26275 16.8951 5.65782L15.9835 6.56582L14.5557 5.14412L15.4721 4.23496L15.4735 4.23355ZM13.8458 5.84842L5.45163 14.1761L4.6435 16.3985L6.8504 15.6628L15.2749 7.27154L13.8458 5.84842Z" fill="#4B4B4B"/>
</svg>
