<svg width="512" height="512" viewBox="0 0 512 512" fill="none" xmlns="http://www.w3.org/2000/svg">
<path d="M450.651 90.277C430.555 70.1807 398.144 70.1743 378.04 90.2578L378.021 90.277L117.462 348.772L76.7102 460.84L189.174 423.352L450.633 162.925L450.728 162.829C470.472 142.745 470.472 110.439 450.728 90.3543L450.651 90.277ZM396.123 108.379C406.215 98.2865 422.402 98.2736 432.51 108.34C442.41 118.453 442.411 134.726 432.514 144.84L409.176 168.085L372.626 131.689L396.087 108.415L396.123 108.379ZM354.452 149.72L391.039 186.151L175.37 400.968L118.874 419.8L139.562 362.908L354.452 149.72Z" fill="#4B4B4B"/>
</svg>
