<svg xmlns="http://www.w3.org/2000/svg" width="512" height="512" viewBox="0 0 512 512" fill="none">
<path fill="#4B4B4B" d="M 363.00006,137.46272 A 107.4627,107.4627 0 0 1 255.53733,244.92552 107.4627,107.4627 0 0 1 148.07454,137.46272 107.4627,107.4627 0 0 1 255.53733,30 107.4627,107.4627 0 0 1 363.00006,137.46272 Z M 135.60068,195.24741 A 253.73142,358.20535 0 0 0 3,509.998 253.73142,358.20535 0 0 0 3,510 h 507.46288 a 253.73142,358.20535 0 0 0 0,-0.002 253.73142,358.20535 0 0 0 -132.60029,-314.75054 131.34335,131.34335 0 0 1 -121.13131,80.57115 131.34335,131.34335 0 0 1 -121.1306,-80.57115 z" />
</svg>