<svg width="512" height="512" viewBox="0 0 512 512" fill="none" xmlns="http://www.w3.org/2000/svg">
<path d="M454.258 219.107L268.8 268.8L364.8 435.077C365.791 434.505 366.776 433.924 367.755 433.336C374.135 429.499 380.263 425.308 386.113 420.793C412.53 400.403 433.302 373.378 446.185 342.275C459.068 311.172 463.49 277.376 459.228 244.278C458.176 236.109 456.595 227.983 454.482 219.95C454.408 219.669 454.333 219.388 454.258 219.107ZM307.651 284.893L434.242 250.973C437.215 278.558 433.255 306.595 422.533 332.479C411.812 358.363 394.787 380.987 373.18 398.391L307.651 284.893ZM339.2 435.077L243.2 268.8V76.8002C234.615 76.8002 226.063 77.376 217.6 78.5145C197.033 81.2814 176.994 87.3723 158.281 96.6006C131.867 109.626 108.804 128.553 90.8761 151.918C72.9478 175.283 60.6347 202.458 54.8892 231.343C49.1437 260.227 50.1199 290.046 57.7422 318.493C65.3645 346.94 79.4287 373.253 98.8467 395.395C118.265 417.537 142.516 434.915 169.725 446.185C196.933 457.455 226.37 462.315 255.757 460.389C276.578 459.024 296.978 454.279 316.173 446.392C323.018 443.58 329.711 440.367 336.214 436.765C337.214 436.212 338.209 435.649 339.2 435.077ZM303.239 423.991C287.545 430.063 270.974 433.737 254.083 434.844C228.614 436.513 203.102 432.301 179.521 422.534C155.941 412.766 134.923 397.705 118.094 378.515C101.265 359.326 89.0759 336.522 82.4699 311.868C75.8639 287.214 75.0179 261.37 79.9973 236.337C84.9767 211.304 95.6481 187.752 111.186 167.502C126.724 147.253 146.712 130.849 169.603 119.561C184.784 112.074 200.973 106.97 217.6 104.381V275.66L303.239 423.991ZM268.8 51.2002V243.2L454.258 193.507C454.182 193.226 454.107 192.945 454.03 192.665C451.844 184.652 449.15 176.823 445.976 169.223C433.119 138.429 412.391 111.371 385.682 90.8764C358.973 70.382 327.473 57.3636 294.4 52.9142C285.951 51.7776 277.4 51.2002 268.8 51.2002ZM294.4 78.781C321.815 83.0495 347.871 94.1309 370.098 111.186C392.325 128.242 409.772 150.542 420.991 175.918L294.4 209.838V78.781Z" fill="#4B4B4B"/>
</svg>
