<svg xmlns="http://www.w3.org/2000/svg" width="512" height="512" viewBox="0 0 512 512" fill="none">
<path d="M 454.258,219.107 C 392.43867,235.67133 330.61933,252.23567 268.8,268.8 c 32,55.42567 64,110.85133 96,166.277 67.93958,-38.03319 106.99249,-120.2204 93.53977,-196.91691 -1.03712,-6.41461 -2.39975,-12.77666 -4.08177,-19.05309 z m -146.607,65.786 c 42.197,-11.30667 84.394,-22.61333 126.591,-33.92 6.40741,55.30274 -17.42727,112.84302 -61.062,147.418 -21.843,-37.83267 -43.686,-75.66533 -65.529,-113.498 z M 339.2,435.077 c -32,-55.42567 -64,-110.85133 -96,-166.277 0,-63.99993 0,-127.99987 0,-191.9998 C 164.67739,75.671159 89.332258,128.30314 63.103724,202.24683 35.258932,274.64216 57.443522,362.43842 116.33601,412.91689 176.43247,466.94549 269.55415,476.34824 339.2,435.077 Z M 303.239,423.991 C 238.44367,450.20393 158.74787,429.30586 114.99317,374.87513 69.812651,321.84897 64.189033,239.95064 101.6965,181.24602 126.70187,140.36887 170.20023,111.49106 217.6,104.381 c 0,57.093 0,114.186 0,171.279 28.54633,49.44367 57.09267,98.88733 85.639,148.331 z M 268.8,51.2002 c 0,63.99993 0,127.99987 0,191.9998 61.81933,-16.56433 123.63867,-33.12867 185.458,-49.693 C 434.85771,116.87664 363.71017,57.390613 284.85464,51.872397 279.5156,51.424432 274.1578,51.200165 268.8,51.2002 Z m 25.6,27.5808 c 55.07707,8.124812 104.48759,46.03996 126.591,97.137 -42.197,11.30667 -84.394,22.61333 -126.591,33.92 0,-43.68567 0,-87.37133 0,-131.057 z" fill="#4b4b4b" />
</svg>
