<svg width="20" height="20" viewBox="0 0 20 20" fill="none" xmlns="http://www.w3.org/2000/svg">
<path d="M9 3.51788V10.5V10.634L9.06699 10.75L12.558 16.7967C11.7454 17.1914 10.8625 17.4257 9.95782 17.485C8.88641 17.5552 7.8132 17.378 6.82122 16.9672C5.82923 16.5563 4.94507 15.9227 4.23712 15.1154C3.52917 14.3082 3.01642 13.3489 2.73852 12.3117C2.46062 11.2746 2.42503 10.1874 2.6345 9.13437C2.84397 8.08128 3.29289 7.0905 3.94653 6.23867C4.60016 5.38684 5.44099 4.69678 6.40398 4.22189C7.21708 3.82091 8.09886 3.58241 9 3.51788ZM11.2588 10.8143L17.3736 9.17586C17.6321 10.5176 17.4928 11.9097 16.9672 13.1788C16.4415 14.4479 15.5556 15.5307 14.4241 16.2967L11.2588 10.8143ZM11 2.51787C12.3629 2.61545 13.6715 3.11029 14.7613 3.94653C15.8511 4.78276 16.6678 5.91873 17.1148 7.20993L11 8.84839V2.51787Z" stroke="#4B4B4B"/>
</svg>
