<svg xmlns="http://www.w3.org/2000/svg" width="512" height="512" viewBox="0 0 512 512" fill="none">
<path fill="#808080" d="m 375.85938,112.58594 c -31.35198,1.04425 -62.92006,7.07401 -92.19849,17.93684 0.17543,65.26435 0.22724,130.53053 0.35669,195.79558 13.31251,-2.96745 39.33743,6.81177 43.94138,-4.88409 -0.36355,-54.64671 -0.72649,-109.29342 -1.08982,-163.94013 25.83371,-9.02399 57.59492,-16.35614 81.88315,0.24238 15.77695,10.38544 14.98318,30.09308 15.13864,46.71197 0.84777,41.00358 0.39678,82.02131 -0.13898,123.02612 13.67664,-3.18132 39.98972,6.51829 45.00614,-5.49079 0.54323,-53.56736 2.6777,-107.29096 -1.31037,-160.76041 -5.35819,-24.43109 -30.07602,-39.64684 -53.0992,-44.94689 -12.5812,-3.0046 -25.58326,-3.9129 -38.48914,-3.69058 z m -249.72461,1.17578 c -28.732032,0.33533 -58.240084,3.90425 -84.300786,16.74414 -0.08871,93.97136 -0.18416,187.94271 -0.27539,281.91406 14.621251,-1.96478 36.801285,3.52701 46.618867,-3.17432 -0.224771,-29.65282 -0.447538,-59.30566 -0.671602,-88.95849 36.131801,13.63184 81.270161,19.75221 114.247741,-4.72532 30.88519,-24.22918 37.31153,-66.66096 37.72623,-103.49634 0.66355,-36.42056 -17.1505,-75.43794 -52.19531,-90.09783 -19.0337,-8.5652 -40.73989,-7.53821 -61.14975,-8.2059 z m 6.0039,34.11133 c 25.46182,-1.67041 49.27033,16.54569 54.82587,41.33185 7.96661,32.11411 3.43205,68.70619 -15.41004,96.30818 -18.19258,16.05666 -45.19715,11.33781 -67.03567,6.71493 -12.636108,-0.93739 -21.528108,-5.68241 -18.08073,-18.89453 0.124149,-38.72574 0.248298,-77.45147 0.372447,-116.17721 14.537293,-5.24773 29.780833,-9.22213 45.328123,-9.28322 z" />
</svg>
