<?xml version="1.0" encoding="UTF-8" standalone="no"?>
<svg
   xmlns:dc="http://purl.org/dc/elements/1.1/"
   xmlns:cc="http://creativecommons.org/ns#"
   xmlns:rdf="http://www.w3.org/1999/02/22-rdf-syntax-ns#"
   xmlns:svg="http://www.w3.org/2000/svg"
   xmlns="http://www.w3.org/2000/svg"
   width="512"
   height="512"
   viewBox="0 0 512 512"
   fill="none"
   version="1.1"
   id="svg5">
  <metadata
     id="metadata11">
    <rdf:RDF>
      <cc:Work
         rdf:about="">
        <dc:format>image/svg+xml</dc:format>
        <dc:type
           rdf:resource="http://purl.org/dc/dcmitype/StillImage" />
        <dc:title></dc:title>
      </cc:Work>
    </rdf:RDF>
  </metadata>
  <defs
     id="defs9" />
  <path
     id="path872"
     style="color:#000000;font-style:normal;font-variant:normal;font-weight:normal;font-stretch:normal;font-size:medium;line-height:normal;font-family:sans-serif;font-variant-ligatures:normal;font-variant-position:normal;font-variant-caps:normal;font-variant-numeric:normal;font-variant-alternates:normal;font-variant-east-asian:normal;font-feature-settings:normal;font-variation-settings:normal;text-indent:0;text-align:start;text-decoration:none;text-decoration-line:none;text-decoration-style:solid;text-decoration-color:#000000;letter-spacing:normal;word-spacing:normal;text-transform:none;writing-mode:lr-tb;direction:ltr;text-orientation:mixed;dominant-baseline:auto;baseline-shift:baseline;text-anchor:start;white-space:normal;shape-padding:0;shape-margin:0;inline-size:0;clip-rule:nonzero;display:inline;overflow:visible;visibility:visible;opacity:1;isolation:auto;mix-blend-mode:normal;color-interpolation:sRGB;color-interpolation-filters:linearRGB;solid-color:#000000;solid-opacity:1;vector-effect:none;fill:#004c00;fill-opacity:1;fill-rule:nonzero;stroke:none;stroke-linecap:butt;stroke-linejoin:miter;stroke-miterlimit:4;stroke-dasharray:none;stroke-dashoffset:0;stroke-opacity:1;color-rendering:auto;image-rendering:auto;shape-rendering:auto;text-rendering:auto;enable-background:accumulate;stop-color:#000000;stop-opacity:1"
     d="m 381.57623,114.56083 c -1.89789,-0.0192 -3.79661,-0.0103 -5.69336,0.0254 -5.05799,0.0953 -10.09962,0.37665 -15.06835,0.80273 -39.74991,3.40864 -74.79297,16.04297 -74.79297,16.04297 l -0.33203,0.11914 0.002,0.35156 0.32226,192.4336 39.9668,0.36718 -1.12109,-168.5625 c 0.85929,-0.35523 19.83477,-8.12748 41.5625,-9.86328 11.11509,-0.88797 22.86325,-0.16436 33.10742,3.96289 10.24417,4.12726 18.99494,11.6308 24.21289,24.41407 0.4601,1.12718 0.93578,4.51136 1.28516,9.33203 0.34937,4.82066 0.61427,11.14642 0.8125,18.44336 0.39645,14.59387 0.52302,33.07495 0.51562,51.22851 -0.0148,36.30713 -0.56445,71.30274 -0.56445,71.30274 l -0.008,0.50976 40.9082,-0.0762 0.0117,-0.48828 c 0,0 0.87945,-39.40959 0.99023,-80.33984 0.0554,-20.46513 -0.0813,-41.31023 -0.61719,-57.80469 -0.26794,-8.24723 -0.63457,-15.40687 -1.1289,-20.89453 -0.24717,-2.74383 -0.52586,-5.06845 -0.8418,-6.91016 -0.31593,-1.8417 -0.65545,-3.1871 -1.0918,-4.04687 -9.41611,-18.55347 -25.31652,-29.30639 -43.79101,-34.9668 -12.12389,-3.71465 -25.36124,-5.24867 -38.64649,-5.38281 z m -0.01,1 c 13.21452,0.1345 26.36075,1.66042 38.36328,5.33789 18.28957,5.60375 33.91204,16.17501 43.19336,34.46289 0.33309,0.65632 0.68734,1.96381 0.99609,3.76367 0.30876,1.79986 0.58637,4.10487 0.83203,6.83203 0.49133,5.45433 0.85741,12.60157 1.125,20.83789 0.53519,16.47265 0.67257,37.30876 0.61719,57.76758 -0.10966,40.51509 -0.96348,79.06991 -0.98047,79.83398 l -38.91797,0.0723 c 0.006,-0.36784 0.30622,-19.55706 0.46485,-44.22852 l -0.13281,43.91407 h 19.11718 19.11524 l 0.41601,-14.09571 c 0.68282,-23.12899 0.54614,-118.01589 -0.18945,-131.17382 -0.72936,-13.04642 -1.38531,-19.0649 -2.4375,-22.375 -1.18823,-3.73806 -6.44388,-11.31799 -11.39844,-16.43946 -5.62988,-5.81954 -11.65594,-10.18719 -19.03711,-13.79687 -26.41577,-12.91833 -66.00607,-13.84284 -114.47461,-2.67188 -7.98617,1.84065 -21.24799,5.51176 -28.50781,7.89063 l -2.79492,0.91601 0.0156,3.42774 c 0.009,1.88571 0.0659,44.76999 0.12696,95.29883 l 0.11133,91.87109 18.66796,0.24414 c 10.26666,0.13383 18.72097,0.20164 18.78907,0.15234 0.0681,-0.0493 -0.13784,-37.8456 -0.45899,-83.99218 -0.30695,-44.13654 -0.44814,-80.32446 -0.33008,-83.55664 l 1.11524,167.84179 -37.96094,-0.34961 -0.32031,-191.08593 c 0.93653,-0.33541 35.15788,-12.5245 74.20703,-15.87305 4.94877,-0.42437 9.97068,-0.70649 15.00391,-0.80078 1.88745,-0.0354 3.77627,-0.0446 5.66406,-0.0254 z M 126.14045,115.762 c -25.0927,0.16739 -56.553065,3.43892 -82.025394,15.85937 l -0.28125,0.13672 v 0.3125 l -0.273198,278.33594 42.623047,-0.27734 -0.701172,-92.83594 c 1.954443,0.85564 32.059007,13.81098 65.427737,12.81055 17.24275,-0.51696 35.21853,-4.82995 50.27148,-16.63086 15.05295,-11.80091 27.14924,-31.0762 32.68555,-61.38477 11.04675,-60.4755 -4.87413,-93.93809 -23.62109,-112.20508 -18.74696,-18.26698 -40.29493,-21.35156 -40.29493,-21.35156 -0.009,-0.001 -18.72366,-2.93688 -43.81054,-2.76953 z m -0.0312,1.02734 c 25.00203,-0.17312 43.69336,2.73047 43.69336,2.73047 h 0.004 0.002 c 0,0 21.22697,3.04081 39.74023,21.08008 18.51326,18.03927 34.33859,51.06384 23.33398,111.30859 -5.50355,30.12926 -17.47648,49.14191 -32.31835,60.77735 -14.84188,11.63543 -32.58651,15.90733 -49.6836,16.41992 -34.19417,1.02518 -65.701171,-13.00781 -65.701171,-13.00781 l -0.671875,-0.30078 c 0.109081,-0.1011 0.248657,-0.0841 0.429687,-0.01 12.606884,5.17985 28.349839,9.50757 42.759769,11.75391 4.55417,0.70995 8.86423,0.91025 19.55664,0.90625 13.04931,-0.004 14.03342,-0.073 20.3164,-1.41211 25.94042,-5.52863 43.55027,-19.30088 54.97852,-43 10.78492,-22.36503 16.1365,-59.90647 12.52539,-87.86133 -1.6703,-12.93037 -4.48532,-22.44295 -9.84961,-33.28906 -7.82929,-15.83016 -20.35546,-28.447 -36.04492,-36.30274 -12.73678,-6.37731 -21.29906,-8.00495 -48.5918,-9.24023 -34.89877,-1.57952 -67.766385,3.17803 -90.873045,13.15429 l -4.55664,1.9668 -0.126954,138.25781 -0.128906,138.25782 h 20.03711 20.039062 l -0.232422,-38.47461 c -0.127559,-21.16191 -0.328533,-42.2109 -0.447265,-46.77344 -0.147519,-5.66873 -0.156028,-7.46999 0.171875,-7.89258 l 0.705078,93.29883 -40.615235,0.26367 0.273438,-277.00195 c 25.194753,-12.19874 56.363664,-15.43688 81.275394,-15.60938 z m 10.54297,28.21289 c 2.89374,0.0928 5.50131,0.27798 7.37109,0.58594 20.46844,3.3712 34.9969,14.98058 43.0918,34.43359 5.22532,12.55703 7.36771,27.4343 6.52929,45.3379 -0.59866,12.78394 -2.80467,24.67585 -6.83007,36.82617 -4.00951,12.10237 -10.20782,23.45372 -15.21289,27.85937 -5.0436,4.43956 -14.92057,8.03027 -25.26368,9.1836 -12.33528,1.37546 -27.88759,-0.20221 -45.29883,-4.59571 -6.527429,-1.64712 -17.060458,-4.90798 -17.609371,-5.45117 -0.0022,-0.002 -0.0037,-0.12771 -0.0059,-0.13867 l 0.285156,0.10937 c 0,0 15.154808,5.78921 33.779295,8.71485 18.62451,2.92563 40.7805,3.0351 54.80079,-8.55078 l 0.0293,-0.0234 0.0254,-0.0293 c 8.16605,-9.18968 14.98415,-25.2109 18.61719,-43.34375 3.63304,-18.13284 4.06575,-38.37383 -0.67383,-55.97656 -4.73958,-17.60273 -14.68608,-32.58999 -31.7793,-40.0332 -6.29364,-2.74057 -13.55206,-4.44974 -21.85546,-4.90821 z m -10.58985,0.0723 c -12.02715,0.78278 -25.927,3.88838 -41.91992,9.84961 l -0.324219,0.12109 -0.002,0.3457 -0.427735,132.83399 c -0.139662,-4.62429 -0.126626,-32.61004 0.04102,-66.39844 l 0.332031,-67.02734 5.587891,-1.9668 c 6.444119,-2.26917 18.648742,-5.46244 25.650392,-6.71094 2.86869,-0.51153 6.86424,-0.86407 11.0625,-1.04687 z m 255.44141,0.13672 c 3.98542,0.11033 6.02143,0.37617 8.79687,0.99023 9.76772,2.1611 16.99175,5.75649 23.2168,11.55469 7.00533,6.52497 11.41121,14.19858 12.29297,21.4082 0.93164,7.6174 1.40229,24.9583 1.49805,56.72461 -0.0638,-12.04641 -0.20196,-23.66528 -0.46875,-33.48633 -0.19846,-7.30549 -0.46512,-13.64121 -0.81641,-18.48828 -0.35129,-4.84707 -0.74295,-8.13613 -1.35547,-9.63672 -5.31444,-13.01965 -14.31363,-20.7519 -24.76562,-24.96289 -5.80871,-2.34025 -12.06303,-3.59837 -18.39844,-4.10351 z m -15.19336,0.0742 c -22.41413,1.79691 -42.14648,10.05078 -42.14648,10.05078 l -0.29688,0.12304 c 0.002,-0.0206 0.004,-0.21838 0.006,-0.2207 0.59244,-0.59245 12.72088,-4.48094 18.93555,-6.07031 9.93324,-2.54037 15.61216,-3.54874 23.50195,-3.88281 z m -235.53516,0.59765 c 1.83496,-0.028 3.62236,0.002 5.36133,0.0879 8.39238,0.41329 15.68066,2.11845 21.9707,4.85742 16.77345,7.30398 26.52936,21.97318 31.21485,39.375 4.68548,17.40183 4.26604,37.51247 0.6582,55.51954 -3.60435,17.98964 -10.4081,33.87739 -18.36328,42.8457 -13.61897,11.2272 -35.48156,11.21553 -53.97461,8.31055 -18.202566,-2.85936 -32.76762,-8.37087 -33.251953,-8.55469 l 0.424018,-132.57227 c 17.898835,-6.63916 33.116235,-9.67335 45.960935,-9.86914 z" />
</svg>
