<?xml version="1.0" encoding="UTF-8" standalone="no"?>
<svg
   xmlns:dc="http://purl.org/dc/elements/1.1/"
   xmlns:cc="http://creativecommons.org/ns#"
   xmlns:rdf="http://www.w3.org/1999/02/22-rdf-syntax-ns#"
   xmlns:svg="http://www.w3.org/2000/svg"
   xmlns="http://www.w3.org/2000/svg"
   xmlns:sodipodi="http://sodipodi.sourceforge.net/DTD/sodipodi-0.dtd"
   xmlns:inkscape="http://www.inkscape.org/namespaces/inkscape"
   width="20"
   height="20"
   viewBox="0 0 20 20"
   fill="none"
   version="1.1"
   id="svg10"
   sodipodi:docname="refresh-circle.svg"
   inkscape:version="1.0.1 (3bc2e813f5, 2020-09-07)">
  <metadata
     id="metadata16">
    <rdf:RDF>
      <cc:Work
         rdf:about="">
        <dc:format>image/svg+xml</dc:format>
        <dc:type
           rdf:resource="http://purl.org/dc/dcmitype/StillImage" />
        <dc:title></dc:title>
      </cc:Work>
    </rdf:RDF>
  </metadata>
  <defs
     id="defs14" />
  <sodipodi:namedview
     pagecolor="#ffffff"
     bordercolor="#666666"
     borderopacity="1"
     objecttolerance="10"
     gridtolerance="10"
     guidetolerance="10"
     inkscape:pageopacity="0"
     inkscape:pageshadow="2"
     inkscape:window-width="1274"
     inkscape:window-height="1395"
     id="namedview12"
     showgrid="true"
     inkscape:zoom="43.1"
     inkscape:cx="10"
     inkscape:cy="10"
     inkscape:window-x="4"
     inkscape:window-y="4"
     inkscape:window-maximized="0"
     inkscape:current-layer="svg10">
    <inkscape:grid
       type="xygrid"
       id="grid36" />
  </sodipodi:namedview>
  <path
     fill-rule="evenodd"
     clip-rule="evenodd"
     d="M10 1.5C5.30558 1.5 1.5 5.30558 1.5 10C1.5 14.6944 5.30558 18.5 10 18.5C14.6944 18.5 18.5 14.6944 18.5 10C18.5 5.30558 14.6944 1.5 10 1.5ZM0.5 10C0.5 4.75329 4.75329 0.5 10 0.5C15.2467 0.5 19.5 4.75329 19.5 10C19.5 15.2467 15.2467 19.5 10 19.5C4.75329 19.5 0.5 15.2467 0.5 10Z"
     fill="#4B4B4B"
     id="path2" />
  <path
     d="M 9.0138336,4.3878896 10.380068,3.0216867 9.8383772,2.4800344 7.3542535,4.9642043 9.9222572,7.5407483 10.464782,7 8.7697813,5.2993682 c 0.3907455,-0.098097 0.8004892,-0.1508673 1.2245572,-0.1508673 2.7471375,0 4.9791255,2.2319962 4.9791255,4.9791251 0,2.753992 -2.231322,4.979432 -4.97966,4.986785 -2.7468694,-3.05e-4 -4.9785903,-2.232179 -4.9785903,-4.979124 0,-0.115057 0.00676,-0.2249041 0.014481,-0.3490761 l -0.8409385,-0.052551 -3.057e-4,0.00487 c -0.0075,0.1196524 -0.015852,0.2533235 -0.015852,0.3967221 0,3.212532 2.6092153,5.821747 5.8217457,5.821747 h 0.00114 c 3.2110248,-0.0083 5.8206298,-2.608678 5.8206298,-5.829406 0,-3.2125016 -2.609245,-5.821747 -5.8217475,-5.821747 -0.3348262,0 -0.6622986,0.028235 -0.9805039,0.08201 z"
     fill="#4b4b4b"
     id="path2-5"
     style="stroke-width:0.76602" />
</svg>
