<svg width="20" height="20" viewBox="0 0 20 20" fill="none" xmlns="http://www.w3.org/2000/svg">
<path d="M11.33 4.13706L9.54645 2.35355L10.2536 1.64645L13.4965 4.88941L10.1441 8.25296L9.43586 7.54704L11.6486 5.32695C11.1385 5.19889 10.6036 5.13 10.05 5.13C6.46375 5.13 3.55 8.04376 3.55 11.63C3.55 15.2252 6.46288 18.1304 10.0507 18.14C13.6366 18.1396 16.55 15.226 16.55 11.64C16.55 11.4898 16.5412 11.3464 16.5311 11.1843L17.6289 11.1157L17.6293 11.1221C17.6391 11.2783 17.65 11.4528 17.65 11.64C17.65 15.8338 14.2438 19.24 10.05 19.24L10.0486 19.24C5.85671 19.2292 2.45 15.8345 2.45 11.63C2.45 7.43624 5.85624 4.03 10.05 4.03C10.4871 4.03 10.9146 4.06686 11.33 4.13706Z" fill="#4B4B4B"/>
</svg>
