<svg width="512" height="512" viewBox="0 0 512 512" fill="none" xmlns="http://www.w3.org/2000/svg">
<path d="M290.047 105.909L244.389 60.2509L262.491 42.1489L345.511 125.169L259.69 211.276L241.558 193.204L298.203 136.37C285.146 133.091 271.453 131.328 257.28 131.328C165.472 131.328 90.8797 205.92 90.8797 297.728C90.8797 389.765 165.45 464.138 257.297 464.384C349.097 464.375 423.68 389.786 423.68 297.984C423.68 294.138 423.455 290.468 423.195 286.318L451.3 284.562L451.311 284.725C451.561 288.725 451.84 293.192 451.84 297.984C451.84 405.344 364.64 492.544 257.28 492.544L257.244 492.544C149.932 492.268 62.7197 405.364 62.7197 297.728C62.7197 190.368 149.92 103.168 257.28 103.168C268.47 103.168 279.414 104.112 290.047 105.909Z" fill="#4B4B4B"/>
</svg>
