<svg width="512" height="512" viewBox="0 0 512 512" fill="none" xmlns="http://www.w3.org/2000/svg">
<path d="M373.605 133.8L397.381 153.253L220.026 370.02L132.488 260.598L156.476 241.407L220.294 321.18L373.605 133.8Z" fill="#4B4B4B"/>
<path d="M256 12.8C121.684 12.8 12.8 121.684 12.8 256C12.8 390.316 121.684 499.2 256 499.2C390.316 499.2 499.2 390.316 499.2 256C499.2 121.684 390.316 12.8 256 12.8ZM38.4 256C38.4 135.823 135.823 38.4 256 38.4C376.177 38.4 473.6 135.823 473.6 256C473.6 376.177 376.177 473.6 256 473.6C135.823 473.6 38.4 376.177 38.4 256Z" fill="#4B4B4B"/>
</svg>
