<svg xmlns="http://www.w3.org/2000/svg" width="512" height="512" viewBox="0 0 512 512" fill="none">
<path fill="#4B4B4B" d="M 440 51.199219 L 440 80.041016 C 324.60229 115.59345 238.77273 96.352745 209.21289 87.271484 L 209.21289 76.082031 L 183.61133 76.082031 L 183.61133 86.851562 C 115.98642 96.376048 90.099889 90.409721 64 75.296875 L 64 51.201172 L 38.400391 51.201172 L 38.400391 473.59961 L 64 473.59961 L 64 434.51367 C 158.18059 465.88791 239.76521 462.38947 309.35938 438.15039 L 309.35938 460.62109 L 334.96094 460.62109 L 334.96094 451.01953 C 370.36668 465.19205 410.63891 462.3567 440 450.6543 L 440 473.59961 L 465.59961 473.59961 L 465.59961 51.199219 L 440 51.199219 z M 209.21289 174.98633 C 288.52599 197.10001 376.11229 185.24622 440 175.0957 L 440 219.70508 C 314.37866 229.844 271.52788 236.39795 209.21289 211.3457 L 209.21289 174.98633 z M 64 267.50781 C 91.829141 284.98994 132.3749 296.22312 183.61133 283.70703 L 183.61133 297.88281 L 209.21289 297.88281 L 209.21289 284.32031 C 317.1795 313.30749 370.86048 299.13914 440 287.35742 L 440 323.05273 C 412.46051 332.50415 370.23617 339.76031 334.96094 329.32227 L 334.96094 320.02148 L 309.35938 320.02148 L 309.35938 338.95898 C 243.20449 361.91751 150.67231 365.09652 64 323.10156 L 64 267.50781 z M 440 398.36719 L 440 432.01758 C 389.96012 444.64378 353.94151 440.75192 334.96094 432.88477 L 334.96094 401.17383 C 355.04906 407.27102 389.45313 410.5917 440 398.36719 z " />
</svg>