<svg width="512" height="512" viewBox="0 0 512 512" fill="none" xmlns="http://www.w3.org/2000/svg">
<path fill-rule="evenodd" clip-rule="evenodd" d="M64 448L64 51.2002H38.4L38.4 473.6H460.8V448L64 448Z" fill="#4B4B4B"/>
<path d="M230.4 204.8C230.4 218.939 218.939 230.4 204.8 230.4C190.662 230.4 179.2 218.939 179.2 204.8C179.2 190.662 190.662 179.2 204.8 179.2C218.939 179.2 230.4 190.662 230.4 204.8Z" fill="#4B4B4B"/>
<path d="M204.8 358.4C204.8 372.539 193.339 384 179.2 384C165.062 384 153.6 372.539 153.6 358.4C153.6 344.262 165.062 332.8 179.2 332.8C193.339 332.8 204.8 344.262 204.8 358.4Z" fill="#4B4B4B"/>
<path d="M358.4 153.6C358.4 167.739 346.939 179.2 332.8 179.2C318.662 179.2 307.2 167.739 307.2 153.6C307.2 139.462 318.662 128 332.8 128C346.939 128 358.4 139.462 358.4 153.6Z" fill="#4B4B4B"/>
<path d="M384 307.2C384 321.339 372.539 332.8 358.4 332.8C344.262 332.8 332.8 321.339 332.8 307.2C332.8 293.062 344.262 281.6 358.4 281.6C372.539 281.6 384 293.062 384 307.2Z" fill="#4B4B4B"/>
</svg>
