<svg width="20" height="20" viewBox="0 0 20 20" fill="none" xmlns="http://www.w3.org/2000/svg">
<path fill-rule="evenodd" clip-rule="evenodd" d="M9 1.45C4.83025 1.45 1.45 4.83025 1.45 9C1.45 13.1698 4.83025 16.55 9 16.55C10.8869 16.55 12.6122 15.8578 13.9356 14.7135L17.6111 18.3889L18.3889 17.6111L14.7135 13.9357C15.8578 12.6122 16.55 10.8869 16.55 9C16.55 4.83025 13.1697 1.45 9 1.45ZM2.55 9C2.55 5.43776 5.43776 2.55 9 2.55C12.5622 2.55 15.45 5.43776 15.45 9C15.45 12.5622 12.5622 15.45 9 15.45C5.43776 15.45 2.55 12.5622 2.55 9Z" fill="#4B4B4B"/>
</svg>
