<svg width="512" height="512" viewBox="0 0 512 512" fill="none" xmlns="http://www.w3.org/2000/svg">
<path d="M230.4 37.1201C123.654 37.1201 37.1199 123.655 37.1199 230.4C37.1199 337.146 123.654 423.68 230.4 423.68C278.705 423.68 322.871 405.96 356.752 376.665L450.844 470.756L470.756 450.844L376.665 356.753C405.959 322.871 423.68 278.705 423.68 230.4C423.68 123.655 337.146 37.1201 230.4 37.1201ZM65.2799 230.4C65.2799 139.207 139.207 65.2801 230.4 65.2801C321.593 65.2801 395.52 139.207 395.52 230.4C395.52 321.593 321.593 395.52 230.4 395.52C139.207 395.52 65.2799 321.593 65.2799 230.4Z" fill="#4B4B4B"/>
</svg>
