<svg id="icon-settings" viewBox="0 0 512 512">
<path fill="#4b4b4b" d="M156.416 48.64c-22.537 0-41.216 18.684-41.216 42.24s18.678 42.24 41.216 42.24c22.537 0 41.216-18.684 41.216-42.24s-18.678-42.24-41.216-42.24zM89.6 90.88c0-37.239 29.689-67.84 66.816-67.84s66.816 30.6 66.816 67.84c0 37.239-29.689 67.84-66.816 67.84s-66.816-30.601-66.816-67.84z"></path>
<path fill="#4b4b4b" d="M156.416 355.84c-22.537 0-41.216 18.683-41.216 42.24s18.678 42.24 41.216 42.24c22.537 0 41.216-18.683 41.216-42.24s-18.678-42.24-41.216-42.24zM89.6 398.080c0-37.24 29.689-67.84 66.816-67.84s66.816 30.599 66.816 67.84c0 37.24-29.689 67.84-66.816 67.84s-66.816-30.599-66.816-67.84z"></path>
<path fill="#4b4b4b" d="M336.64 202.24c-23.329 0-42.24 18.911-42.24 42.24s18.911 42.24 42.24 42.24 42.24-18.911 42.24-42.24c0-23.328-18.911-42.24-42.24-42.24zM268.8 244.48c0-37.467 30.372-67.84 67.84-67.84s67.84 30.373 67.84 67.84c0 37.468-30.372 67.84-67.84 67.84s-67.84-30.372-67.84-67.84z"></path>
<path fill="#4b4b4b" d="M102.4 76.8h-76.8v25.6h76.8v-25.6z"></path>
<path fill="#4b4b4b" d="M460.8 76.8h-204.8v25.6h204.8v-25.6z"></path>
<path fill="#4b4b4b" d="M230.4 230.4h-204.8v25.6h204.8v-25.6z"></path>
<path fill="#4b4b4b" d="M460.8 230.4h-76.8v25.6h76.8v-25.6z"></path>
<path fill="#4b4b4b" d="M102.4 384h-76.8v25.6h76.8v-25.6z"></path>
<path fill="#4b4b4b" d="M460.8 384h-204.8v25.6h204.8v-25.6z"></path>
</svg>