<svg width="20" height="20" viewBox="0 0 20 20" fill="none" xmlns="http://www.w3.org/2000/svg">
<path fill-rule="evenodd" clip-rule="evenodd" d="M6.11 1.9C5.22963 1.9 4.5 2.62984 4.5 3.55C4.5 4.47016 5.22963 5.2 6.11 5.2C6.99037 5.2 7.72 4.47016 7.72 3.55C7.72 2.62984 6.99037 1.9 6.11 1.9ZM3.5 3.55C3.5 2.09534 4.65973 0.9 6.11 0.9C7.56027 0.9 8.72 2.09534 8.72 3.55C8.72 5.00466 7.56027 6.2 6.11 6.2C4.65973 6.2 3.5 5.00466 3.5 3.55Z" fill="#4B4B4B"/>
<path fill-rule="evenodd" clip-rule="evenodd" d="M6.11 13.9C5.22963 13.9 4.5 14.6298 4.5 15.55C4.5 16.4702 5.22963 17.2 6.11 17.2C6.99037 17.2 7.72 16.4702 7.72 15.55C7.72 14.6298 6.99037 13.9 6.11 13.9ZM3.5 15.55C3.5 14.0953 4.65973 12.9 6.11 12.9C7.56027 12.9 8.72 14.0953 8.72 15.55C8.72 17.0047 7.56027 18.2 6.11 18.2C4.65973 18.2 3.5 17.0047 3.5 15.55Z" fill="#4B4B4B"/>
<path fill-rule="evenodd" clip-rule="evenodd" d="M13.15 7.9C12.2387 7.9 11.5 8.63873 11.5 9.55C11.5 10.4613 12.2387 11.2 13.15 11.2C14.0613 11.2 14.8 10.4613 14.8 9.55C14.8 8.63873 14.0613 7.9 13.15 7.9ZM10.5 9.55C10.5 8.08645 11.6864 6.9 13.15 6.9C14.6136 6.9 15.8 8.08645 15.8 9.55C15.8 11.0136 14.6136 12.2 13.15 12.2C11.6864 12.2 10.5 11.0136 10.5 9.55Z" fill="#4B4B4B"/>
<path d="M4 3H1V4H4V3Z" fill="#4B4B4B"/>
<path d="M18 3H10V4H18V3Z" fill="#4B4B4B"/>
<path d="M9 9H1V10H9V9Z" fill="#4B4B4B"/>
<path d="M18 9H15V10H18V9Z" fill="#4B4B4B"/>
<path d="M4 15H1V16H4V15Z" fill="#4B4B4B"/>
<path d="M18 15H10V16H18V15Z" fill="#4B4B4B"/>
</svg>
