<svg width="512" height="512" viewBox="0 0 512 512" fill="none" xmlns="http://www.w3.org/2000/svg">
<path d="M156.416 48.64C133.879 48.64 115.2 67.3239 115.2 90.88C115.2 114.436 133.879 133.12 156.416 133.12C178.954 133.12 197.632 114.436 197.632 90.88C197.632 67.3239 178.954 48.64 156.416 48.64ZM89.6001 90.88C89.6001 53.6407 119.289 23.04 156.416 23.04C193.543 23.04 223.232 53.6407 223.232 90.88C223.232 128.119 193.543 158.72 156.416 158.72C119.289 158.72 89.6001 128.119 89.6001 90.88Z" fill="#4B4B4B"/>
<path d="M156.416 355.84C133.879 355.84 115.2 374.524 115.2 398.08C115.2 421.636 133.879 440.32 156.416 440.32C178.954 440.32 197.632 421.636 197.632 398.08C197.632 374.524 178.954 355.84 156.416 355.84ZM89.6001 398.08C89.6001 360.841 119.289 330.24 156.416 330.24C193.543 330.24 223.232 360.841 223.232 398.08C223.232 435.319 193.543 465.92 156.416 465.92C119.289 465.92 89.6001 435.319 89.6001 398.08Z" fill="#4B4B4B"/>
<path d="M336.64 202.24C313.312 202.24 294.4 221.152 294.4 244.48C294.4 267.809 313.312 286.72 336.64 286.72C359.969 286.72 378.88 267.809 378.88 244.48C378.88 221.152 359.969 202.24 336.64 202.24ZM268.8 244.48C268.8 207.013 299.173 176.64 336.64 176.64C374.107 176.64 404.48 207.013 404.48 244.48C404.48 281.947 374.107 312.32 336.64 312.32C299.173 312.32 268.8 281.947 268.8 244.48Z" fill="#4B4B4B"/>
<path d="M102.4 76.8H25.6001V102.4H102.4V76.8Z" fill="#4B4B4B"/>
<path d="M460.8 76.8H256V102.4H460.8V76.8Z" fill="#4B4B4B"/>
<path d="M230.4 230.4H25.6001V256H230.4V230.4Z" fill="#4B4B4B"/>
<path d="M460.8 230.4H384V256H460.8V230.4Z" fill="#4B4B4B"/>
<path d="M102.4 384H25.6001V409.6H102.4V384Z" fill="#4B4B4B"/>
<path d="M460.8 384H256V409.6H460.8V384Z" fill="#4B4B4B"/>
</svg>
