<svg width="512" height="512" viewBox="0 0 512 512" fill="none" xmlns="http://www.w3.org/2000/svg">
<path d="M396.8 44.8C356.506 44.8 323.84 77.4654 323.84 117.76C323.84 123.547 324.514 129.176 325.787 134.574L173.142 206.536C159.807 189.138 138.814 177.92 115.2 177.92C74.9055 177.92 42.2402 210.585 42.2402 250.88C42.2402 291.175 74.9055 323.84 115.2 323.84C138.902 323.84 159.964 312.538 173.291 295.029L325.052 365.566C324.256 369.883 323.84 374.333 323.84 378.88C323.84 419.175 356.506 451.84 396.8 451.84C437.095 451.84 469.76 419.175 469.76 378.88C469.76 338.585 437.095 305.92 396.8 305.92C371.073 305.92 348.456 319.236 335.465 339.353L185.698 269.743C187.304 263.726 188.16 257.403 188.16 250.88C188.16 244.271 187.281 237.867 185.634 231.779L337.452 160.207C350.689 178.682 372.339 190.72 396.8 190.72C437.095 190.72 469.76 158.055 469.76 117.76C469.76 77.4654 437.095 44.8 396.8 44.8ZM352 117.76C352 93.0177 372.058 72.9601 396.8 72.9601C421.543 72.9601 441.6 93.0177 441.6 117.76C441.6 142.502 421.543 162.56 396.8 162.56C372.058 162.56 352 142.502 352 117.76ZM396.8 334.08C421.543 334.08 441.6 354.138 441.6 378.88C441.6 403.622 421.543 423.68 396.8 423.68C372.058 423.68 352 403.622 352 378.88C352 354.138 372.058 334.08 396.8 334.08ZM70.4002 250.88C70.4002 226.138 90.4579 206.08 115.2 206.08C139.943 206.08 160 226.138 160 250.88C160 275.622 139.943 295.68 115.2 295.68C90.4579 295.68 70.4002 275.622 70.4002 250.88Z" fill="#4B4B4B"/>
</svg>
