<svg width="20" height="20" viewBox="0 0 20 20" fill="none" xmlns="http://www.w3.org/2000/svg">
<path fill-rule="evenodd" clip-rule="evenodd" d="M15.5 1.75C13.926 1.75 12.65 3.02599 12.65 4.6C12.65 4.82605 12.6763 5.04595 12.7261 5.25681L6.76336 8.06779C6.24247 7.3882 5.42241 6.95 4.5 6.95C2.92599 6.95 1.65 8.22599 1.65 9.8C1.65 11.374 2.92599 12.65 4.5 12.65C5.42585 12.65 6.24859 12.2085 6.76919 11.5246L12.6973 14.2799C12.6662 14.4485 12.65 14.6224 12.65 14.8C12.65 16.374 13.926 17.65 15.5 17.65C17.074 17.65 18.35 16.374 18.35 14.8C18.35 13.226 17.074 11.95 15.5 11.95C14.495 11.95 13.6115 12.4702 13.1041 13.256L7.25384 10.5368C7.31656 10.3018 7.35 10.0548 7.35 9.8C7.35 9.54183 7.31567 9.29168 7.25133 9.05385L13.1817 6.2581C13.6988 6.97977 14.5445 7.45 15.5 7.45C17.074 7.45 18.35 6.17401 18.35 4.6C18.35 3.02599 17.074 1.75 15.5 1.75ZM13.75 4.6C13.75 3.6335 14.5335 2.85 15.5 2.85C16.4665 2.85 17.25 3.6335 17.25 4.6C17.25 5.5665 16.4665 6.35 15.5 6.35C14.5335 6.35 13.75 5.5665 13.75 4.6ZM15.5 13.05C14.5335 13.05 13.75 13.8335 13.75 14.8C13.75 15.7665 14.5335 16.55 15.5 16.55C16.4665 16.55 17.25 15.7665 17.25 14.8C17.25 13.8335 16.4665 13.05 15.5 13.05ZM2.75 9.8C2.75 8.8335 3.5335 8.05 4.5 8.05C5.4665 8.05 6.25 8.8335 6.25 9.8C6.25 10.7665 5.4665 11.55 4.5 11.55C3.5335 11.55 2.75 10.7665 2.75 9.8Z" fill="#4B4B4B"/>
</svg>
