<svg width="512" height="512" viewBox="0 0 512 512" fill="none" xmlns="http://www.w3.org/2000/svg">
<path d="M25.6001 128H124.671L256 51.2V435.2L124.671 358.4H25.6001V128ZM128 330.691L230.4 390.573V95.8266L128 155.709V330.691ZM102.4 153.6H51.2001V332.8H102.4V153.6Z" fill="#4B4B4B"/>
<path d="M379.608 402.635C418.986 363.257 443.341 308.857 443.341 248.768C443.341 188.68 418.986 134.28 379.608 94.9019L397.71 76.8C397.84 76.9305 397.971 77.0611 398.101 77.1919C443.465 122.763 468.941 184.452 468.941 248.768C468.941 312.961 443.563 374.536 398.363 420.081C398.145 420.3 397.928 420.519 397.71 420.737L379.608 402.635Z" fill="#4B4B4B"/>
<path d="M361.506 384.533L343.404 366.431C373.516 336.318 392.141 294.718 392.141 248.768C392.141 202.818 373.516 161.218 343.404 131.106L361.506 113.004C396.251 147.749 417.741 195.749 417.741 248.768C417.741 301.788 396.251 349.788 361.506 384.533Z" fill="#4B4B4B"/>
<path d="M325.302 348.329L307.2 330.227C328.047 309.38 340.941 280.58 340.941 248.768C340.941 216.957 328.047 188.157 307.2 167.31L325.302 149.208C350.782 174.687 366.541 209.887 366.541 248.768C366.541 287.649 350.782 322.849 325.302 348.329Z" fill="#4B4B4B"/>
</svg>
