<?xml version="1.0" encoding="UTF-8" standalone="no"?>
<svg
   xmlns:dc="http://purl.org/dc/elements/1.1/"
   xmlns:cc="http://creativecommons.org/ns#"
   xmlns:rdf="http://www.w3.org/1999/02/22-rdf-syntax-ns#"
   xmlns:svg="http://www.w3.org/2000/svg"
   xmlns="http://www.w3.org/2000/svg"
   xmlns:sodipodi="http://sodipodi.sourceforge.net/DTD/sodipodi-0.dtd"
   xmlns:inkscape="http://www.inkscape.org/namespaces/inkscape"
   width="512"
   height="512"
   viewBox="0 0 512 512"
   fill="none"
   version="1.1"
   id="svg12"
   sodipodi:docname="sync.svg"
   inkscape:version="1.0.2 (e86c870879, 2021-01-15)">
  <metadata
     id="metadata18">
    <rdf:RDF>
      <cc:Work
         rdf:about="">
        <dc:format>image/svg+xml</dc:format>
        <dc:type
           rdf:resource="http://purl.org/dc/dcmitype/StillImage" />
        <dc:title />
      </cc:Work>
    </rdf:RDF>
  </metadata>
  <defs
     id="defs16" />
  <sodipodi:namedview
     pagecolor="#ffffff"
     bordercolor="#666666"
     borderopacity="1"
     objecttolerance="10"
     gridtolerance="10"
     guidetolerance="10"
     inkscape:pageopacity="0"
     inkscape:pageshadow="2"
     inkscape:window-width="2503"
     inkscape:window-height="1376"
     id="namedview14"
     showgrid="true"
     inkscape:zoom="1.96875"
     inkscape:cx="369.95055"
     inkscape:cy="310.52725"
     inkscape:window-x="57"
     inkscape:window-y="27"
     inkscape:window-maximized="1"
     inkscape:current-layer="svg12"
     inkscape:document-rotation="0">
    <inkscape:grid
       type="xygrid"
       id="grid1038" />
  </sodipodi:namedview>
  <path
     id="path878-2-18"
     style="opacity:0.15405;fill:#000000;stroke-width:0;stroke-linejoin:round;paint-order:markers fill stroke"
     d="M 134.86328 69.671875 A 39.130497 39.130497 0 0 0 95.732422 108.80078 A 39.130497 39.130497 0 0 0 134.86328 147.93164 A 39.130497 39.130497 0 0 0 173.99219 108.80078 A 39.130497 39.130497 0 0 0 134.86328 69.671875 z M 374.86328 69.671875 A 39.130497 39.130497 0 0 0 335.73242 108.80078 A 39.130497 39.130497 0 0 0 374.86328 147.93164 A 39.130497 39.130497 0 0 0 413.99219 108.80078 A 39.130497 39.130497 0 0 0 374.86328 69.671875 z M 164 150 A 45.000037 45.000037 0 0 1 134.86328 160.71094 A 45.000037 45.000037 0 0 1 105.72461 150.00391 A 90.8109 103.84327 0 0 0 44.863281 234.51172 L 224.86328 234.51172 A 90.8109 103.84327 0 0 0 164 150 z M 404 150 A 45.000037 45.000037 0 0 1 374.86328 160.71094 A 45.000037 45.000037 0 0 1 345.72461 150.00391 A 90.8109 103.84327 0 0 0 284.86328 234.51172 L 464.86328 234.51172 A 90.8109 103.84327 0 0 0 404 150 z M 254.83789 263.86719 A 39.130497 39.130497 0 0 0 215.70703 302.99805 A 39.130497 39.130497 0 0 0 254.83789 342.12891 A 39.130497 39.130497 0 0 0 293.96875 302.99805 A 39.130497 39.130497 0 0 0 254.83789 263.86719 z M 283.97461 344.19727 A 45.000037 45.000037 0 0 1 254.83789 354.9082 A 45.000037 45.000037 0 0 1 225.70117 344.20117 A 90.8109 103.84327 0 0 0 164.83789 428.70898 L 344.83789 428.70898 A 90.8109 103.84327 0 0 0 283.97461 344.19727 z " />
</svg>
