<svg xmlns="http://www.w3.org/2000/svg" width="512" height="512" viewBox="0 0 512 512" fill="none">
<path fill="#4B4B4B" d="M 134.86328 69.671875 A 39.130497 39.130497 0 0 0 95.732422 108.80078 A 39.130497 39.130497 0 0 0 134.86328 147.93164 A 39.130497 39.130497 0 0 0 173.99219 108.80078 A 39.130497 39.130497 0 0 0 134.86328 69.671875 z M 374.86328 69.671875 A 39.130497 39.130497 0 0 0 335.73242 108.80078 A 39.130497 39.130497 0 0 0 374.86328 147.93164 A 39.130497 39.130497 0 0 0 413.99219 108.80078 A 39.130497 39.130497 0 0 0 374.86328 69.671875 z M 164 150 A 45.000037 45.000037 0 0 1 134.86328 160.71094 A 45.000037 45.000037 0 0 1 105.72461 150.00391 A 90.8109 103.84327 0 0 0 44.863281 234.51172 L 224.86328 234.51172 A 90.8109 103.84327 0 0 0 164 150 z M 404 150 A 45.000037 45.000037 0 0 1 374.86328 160.71094 A 45.000037 45.000037 0 0 1 345.72461 150.00391 A 90.8109 103.84327 0 0 0 284.86328 234.51172 L 464.86328 234.51172 A 90.8109 103.84327 0 0 0 404 150 z M 254.83789 263.86719 A 39.130497 39.130497 0 0 0 215.70703 302.99805 A 39.130497 39.130497 0 0 0 254.83789 342.12891 A 39.130497 39.130497 0 0 0 293.96875 302.99805 A 39.130497 39.130497 0 0 0 254.83789 263.86719 z M 283.97461 344.19727 A 45.000037 45.000037 0 0 1 254.83789 354.9082 A 45.000037 45.000037 0 0 1 225.70117 344.20117 A 90.8109 103.84327 0 0 0 164.83789 428.70898 L 344.83789 428.70898 A 90.8109 103.84327 0 0 0 283.97461 344.19727 z " />
</svg>