<svg width="512" height="512" viewBox="0 0 512 512" fill="none" xmlns="http://www.w3.org/2000/svg">
<path d="m 256.21237,0.03056609 c -0.2486,0.0612512 -0.42199,0.19486323 -0.81612,0.24143898 C 253.65347,0.47794441 219.8224,19.647521 146.23295,62.127357 87.583304,95.983131 38.728914,124.29223 37.668124,125.03686 c -4.289086,3.01083 -3.999006,-6.4498 -3.999006,130.98101 0,137.43086 -0.29008,127.97129 3.999006,130.98102 2.015419,1.41425 208.086036,120.46708 213.514876,123.35367 1.71079,0.9096 3.92614,1.65141 4.92398,1.64584 2.43501,-0.0138 -0.24426,1.50196 116.51182,-65.90538 73.79812,-42.6062 103.11896,-59.87894 104.20535,-61.38269 l 1.50985,-2.09129 V 256.01787 129.42014 l -1.50985,-2.09132 C 475.73774,125.82526 446.4059,108.54714 372.6188,65.946137 263.2968,2.8290445 257.95268,-0.39814088 256.21237,0.03056609 Z M 255.23646,33.042759 c 0.70438,-0.05145 1.43889,-0.0293 2.03007,0.08161 1.68452,0.316012 181.9137,103.776061 189.43585,108.745061 1.01621,0.67124 2.17137,2.06835 2.56742,3.10467 0.48052,1.25739 0.79353,38.34985 0.94192,111.51303 l 0.22442,109.6326 -1.46221,1.97229 c -0.96309,1.30046 -20.90868,13.18608 -58.59087,34.91649 -141.10031,81.36916 -132.08261,76.27285 -134.77596,76.17152 -0.64638,-0.0243 -1.80012,-0.31207 -2.56738,-0.63931 -0.76728,-0.32724 -43.44464,-24.89831 -94.83696,-54.60205 -59.808724,-34.56822 -93.950917,-54.69262 -94.860757,-55.91128 -1.416218,-1.89687 -1.421408,-2.30999 -1.421408,-112.00953 0,-109.76962 0.002,-110.11116 1.421408,-112.01291 0.91358,-1.22363 34.928863,-21.26895 94.864157,-55.907867 51.39079,-29.700752 94.21848,-54.309115 95.17358,-54.687073 0.47753,-0.188983 1.1523,-0.315801 1.85672,-0.367257 z M 208.20733,163.38448 c -1.71015,-0.0483 -3.47586,-0.0316 -5.30822,0.0475 -9.48507,0.40968 -15.23073,1.88349 -22.83104,5.85231 -13.00347,6.79021 -23.63405,20.04786 -27.59518,34.42 -1.55437,5.63973 -1.72733,23.22687 -0.29243,29.64567 3.34362,14.95733 11.07098,29.67968 23.06906,43.94484 6.73817,8.01133 19.52801,20.35982 38.72849,37.39885 23.598,20.94154 32.09063,29.78142 39.00389,40.58853 1.39655,2.18315 2.8379,3.96844 3.19989,3.96844 0.362,0 1.11536,-0.88732 1.67647,-1.97233 1.93044,-3.73312 9.23418,-13.03466 15.10505,-19.2367 3.23497,-3.41744 15.61414,-14.90166 27.50677,-25.52089 27.4459,-24.50702 36.31484,-33.75124 45.51247,-47.43378 11.7962,-17.54809 17.41478,-38.48313 14.79224,-55.10532 -2.87276,-18.20803 -13.95851,-33.37144 -30.31217,-41.46247 -7.05221,-3.48907 -12.15824,-4.68709 -21.62386,-5.07356 -6.95277,-0.28386 -9.43147,-0.0912 -14.64604,1.14598 -15.11069,3.58512 -28.22009,13.49688 -35.35172,26.73144 -1.1887,2.20589 -2.42731,4.01263 -2.75106,4.01263 -0.32369,0 -1.3673,-1.53576 -2.31911,-3.41413 -2.48785,-4.90951 -9.47994,-13.34454 -13.77889,-16.61832 -10.55037,-8.03431 -19.8137,-11.58196 -31.78461,-11.91879 z" fill="#4B4B4B" />
</svg>
