<svg
  width="20"
  height="20"
  viewBox="0 0 20 20"
  fill="none"
  xmlns="http://www.w3.org/2000/svg"
>
  <path
    fill="#4b4b4b"
    d="m10,17c0.5523,0 1,-0.4477 1,-1c0,-0.5523 -0.4477,-1 -1,-1c-0.55229,0 -1,0.4477 -1,1c0,0.5523 0.44771,1 1,1z"
  />
  <path
    fill="#4b4b4b"
    d="m10.56,13.29c0,0 0.29,-1.75 0.41,-3.57c0.07,-1.18 0,-1.72 0,-1.72c0,-0.56 -0.44,-0.99 -0.98,-1c-0.53,0.02 -0.96,0.45 -0.96,1c0,0 -0.07,0.54 0,1.72c0.13,1.82 0.4,3.57 0.4,3.57c0.06,0.58 0.26,0.71 0.56,0.71c0.28,0 0.52,-0.13 0.57,-0.71z"
  />
  <path
    fill="none"
    stroke="#4b4b4b"
    stroke-width="1px"
    stroke-linejoin="round"
    d="m10,1l-9,18l18,0l-9,-18z"
  />
</svg>
