<svg width="20" height="20" viewBox="0 0 20 20" fill="none" xmlns="http://www.w3.org/2000/svg">
<path d="M10 15C10.5523 15 11 14.5523 11 14C11 13.4477 10.5523 13 10 13C9.44771 13 9 13.4477 9 14C9 14.5523 9.44771 15 10 15Z" fill="#4B4B4B"/>
<path d="M10.56 11.29C10.56 11.29 10.85 9.54 10.97 7.72C11.04 6.54 10.97 6 10.97 6C10.97 5.44 10.53 5.01 9.99 5C9.46 5.02 9.03 5.45 9.03 6C9.03 6 8.96 6.54 9.03 7.72C9.16 9.54 9.43 11.29 9.43 11.29C9.49 11.87 9.69 12 9.99 12C10.27 12 10.51 11.87 10.56 11.29Z" fill="#4B4B4B"/>
<path fill-rule="evenodd" clip-rule="evenodd" d="M0.449997 10C0.449997 4.72568 4.72568 0.450001 10 0.450001C15.2743 0.450001 19.55 4.72568 19.55 10C19.55 15.2743 15.2743 19.55 10 19.55C4.72568 19.55 0.449997 15.2743 0.449997 10ZM10 1.55C5.33319 1.55 1.55 5.33319 1.55 10C1.55 14.6668 5.33319 18.45 10 18.45C14.6668 18.45 18.45 14.6668 18.45 10C18.45 5.33319 14.6668 1.55 10 1.55Z" fill="#4B4B4B"/>
</svg>
