<svg width="512" height="512" viewBox="0 0 512 512" fill="none" xmlns="http://www.w3.org/2000/svg">
<path d="M256 384C270.139 384 281.6 372.539 281.6 358.4C281.6 344.262 270.139 332.8 256 332.8C241.862 332.8 230.4 344.262 230.4 358.4C230.4 372.539 241.862 384 256 384Z" fill="#4B4B4B"/>
<path d="M270.336 289.024C270.336 289.024 277.76 244.224 280.832 197.632C282.624 167.424 280.832 153.6 280.832 153.6C280.832 139.264 269.568 128.256 255.744 128C242.176 128.512 231.168 139.52 231.168 153.6C231.168 153.6 229.376 167.424 231.168 197.632C234.496 244.224 241.408 289.024 241.408 289.024C242.944 303.872 248.064 307.2 255.744 307.2C262.912 307.2 269.056 303.872 270.336 289.024Z" fill="#4B4B4B"/>
<path d="M11.52 256C11.52 120.977 120.977 11.52 256 11.52C391.023 11.52 500.48 120.977 500.48 256C500.48 391.023 391.023 500.48 256 500.48C120.977 500.48 11.52 391.023 11.52 256ZM256 39.68C136.53 39.68 39.68 136.53 39.68 256C39.68 375.47 136.53 472.32 256 472.32C375.47 472.32 472.32 375.47 472.32 256C472.32 136.53 375.47 39.68 256 39.68Z" fill="#4B4B4B"/>
</svg>
