<?xml version="1.0" encoding="UTF-8" standalone="no"?>
<svg
   xmlns:dc="http://purl.org/dc/elements/1.1/"
   xmlns:cc="http://creativecommons.org/ns#"
   xmlns:rdf="http://www.w3.org/1999/02/22-rdf-syntax-ns#"
   xmlns:svg="http://www.w3.org/2000/svg"
   xmlns="http://www.w3.org/2000/svg"
   xmlns:sodipodi="http://sodipodi.sourceforge.net/DTD/sodipodi-0.dtd"
   xmlns:inkscape="http://www.inkscape.org/namespaces/inkscape"
   width="512"
   height="512"
   viewBox="0 0 512 512"
   fill="none"
   version="1.1"
   id="svg4"
   sodipodi:docname="web.svg"
   inkscape:version="1.0.2 (e86c870879, 2021-01-15)">
  <sodipodi:namedview
     pagecolor="#ffffff"
     bordercolor="#666666"
     borderopacity="1"
     objecttolerance="10"
     gridtolerance="10"
     guidetolerance="10"
     inkscape:pageopacity="0"
     inkscape:pageshadow="2"
     inkscape:window-width="2503"
     inkscape:window-height="1376"
     id="namedview6"
     showgrid="false"
     inkscape:zoom="1.3921165"
     inkscape:cx="268.14838"
     inkscape:cy="415.85111"
     inkscape:window-x="57"
     inkscape:window-y="27"
     inkscape:window-maximized="1"
     inkscape:current-layer="svg4"
     inkscape:document-rotation="0" />
  <metadata
     id="metadata10">
    <rdf:RDF>
      <cc:Work
         rdf:about="">
        <dc:format>image/svg+xml</dc:format>
        <dc:type
           rdf:resource="http://purl.org/dc/dcmitype/StillImage" />
        <dc:title></dc:title>
      </cc:Work>
    </rdf:RDF>
  </metadata>
  <defs
     id="defs8" />
  <path
     id="path830"
     style="color:#000000;font-style:normal;font-variant:normal;font-weight:normal;font-stretch:normal;font-size:medium;line-height:normal;font-family:sans-serif;font-variant-ligatures:normal;font-variant-position:normal;font-variant-caps:normal;font-variant-numeric:normal;font-variant-alternates:normal;font-variant-east-asian:normal;font-feature-settings:normal;font-variation-settings:normal;text-indent:0;text-align:start;text-decoration:none;text-decoration-line:none;text-decoration-style:solid;text-decoration-color:#000000;letter-spacing:normal;word-spacing:normal;text-transform:none;writing-mode:lr-tb;direction:ltr;text-orientation:mixed;dominant-baseline:auto;baseline-shift:baseline;text-anchor:start;white-space:normal;shape-padding:0;shape-margin:0;inline-size:0;clip-rule:nonzero;display:inline;overflow:visible;visibility:visible;opacity:0.15405;isolation:auto;mix-blend-mode:normal;color-interpolation:sRGB;color-interpolation-filters:linearRGB;solid-color:#000000;solid-opacity:1;vector-effect:none;fill:#000000;fill-opacity:1;fill-rule:nonzero;stroke:none;stroke-width:232.651;stroke-linecap:butt;stroke-linejoin:round;stroke-miterlimit:4;stroke-dasharray:none;stroke-dashoffset:0;stroke-opacity:1;paint-order:markers stroke fill;color-rendering:auto;image-rendering:auto;shape-rendering:auto;text-rendering:auto;enable-background:accumulate;stop-color:#000000;stop-opacity:1"
     d="m 277.16061,25.744053 c -24.1417,0.04601 -43.68801,19.629618 -43.68797,43.771354 0,18.618838 11.63208,34.512813 28.01969,40.839003 l -6.58067,72.03463 c -0.68713,-0.0155 -1.36927,-0.051 -2.06035,-0.051 -29.5248,0 -55.39796,15.59715 -69.85671,38.99454 l -35.96178,-17.45532 c 0.61116,-2.91389 0.93604,-5.93205 0.93604,-9.02774 0,-24.17418 -19.59699,-43.7714 -43.7713,-43.7714 h -0.0836 c -24.141731,0.0454 -43.688079,19.62968 -43.688036,43.7714 0,24.17431 19.597095,43.77128 43.771356,43.77128 13.22391,0 25.06982,-5.87264 33.09573,-15.14246 l 36.79738,17.86112 c -2.14111,7.32096 -3.31057,15.05676 -3.31057,23.06975 0,6.47743 0.77409,12.76966 2.19281,18.81435 L 85.603079,315.56062 C 77.584134,305.47909 65.221213,299.00745 51.338384,299.00745 h -0.08328 c -24.141697,0.0455 -43.6880427,19.62961 -43.6880027,43.77134 0,24.17425 19.5970937,43.77129 43.7713537,43.77129 24.174248,0 43.771324,-19.59704 43.771324,-43.77129 0,-2.44748 -0.21013,-4.84315 -0.59628,-7.1812 L 180.7674,303.67521 c 13.07507,23.95054 37.74472,40.64623 66.4607,42.59146 l 1.52387,51.30322 c -18.89718,4.84948 -32.86062,21.99384 -32.86059,42.39717 0,24.17414 19.59709,43.77137 43.77146,43.77137 24.17419,0 43.77123,-19.59723 43.77123,-43.77137 0,-20.37984 -13.92687,-37.50582 -32.78369,-42.38002 l -1.5665,-52.72015 c 17.80013,-3.5717 33.50745,-12.90496 45.11781,-25.96782 l 97.38906,46.15224 c -0.95071,3.58774 -1.46394,7.35347 -1.46393,11.23992 0,24.1743 19.59685,43.77135 43.77123,43.77135 24.17432,0 43.7714,-19.59705 43.7714,-43.77135 0,-24.17419 -19.59708,-43.77141 -43.7714,-43.77141 h -0.0832 c -12.35493,0.0217 -23.49747,5.17216 -31.44121,13.42222 l -95.82255,-45.40859 c 5.3537,-10.90199 8.37138,-23.15873 8.37138,-36.12417 0,-9.95765 -1.77647,-19.50117 -5.02452,-28.33172 l 99.21638,-47.82789 c 7.95621,8.20867 19.08989,13.31749 31.42446,13.31749 24.17402,0 43.77128,-19.59726 43.77128,-43.77156 0,-24.17416 -19.59726,-43.7713 -43.77128,-43.7713 h -0.0838 c -24.14169,0.0458 -43.688,19.62956 -43.68796,43.7713 0,3.93828 0.52939,7.7529 1.50474,11.38337 l -98.63969,47.54986 c -10.42674,-14.5783 -25.49545,-25.6009 -43.05925,-30.89636 l 6.66836,-72.9644 c 21.33504,-2.9251 37.7741,-21.213866 37.7741,-43.352463 0,-24.174258 -19.59698,-43.771374 -43.77129,-43.771374 z m 0.083,21.885681 c 12.08708,0 21.88556,9.798545 21.88556,21.885673 0,12.087133 -9.79847,21.885687 -21.88556,21.885687 -12.08708,0 -21.88571,-9.798554 -21.88571,-21.885687 0,-12.087128 9.79864,-21.885673 21.88571,-21.885673 z m 183.29456,88.280116 c 12.08707,0 21.88561,9.79842 21.88561,21.88557 0,12.08716 -9.79854,21.88577 -21.88561,21.88577 -12.08724,0 -21.88573,-9.79861 -21.88573,-21.88577 0,-12.08715 9.79849,-21.88557 21.88573,-21.88557 z m -356.34099,37.05384 c 12.08719,0 21.88573,9.79873 21.88573,21.88568 0,12.08713 -9.79854,21.88573 -21.88573,21.88572 -12.087021,0 -21.885611,-9.79858 -21.885611,-21.88572 0,-12.08696 9.79859,-21.88568 21.885611,-21.88568 z M 51.33851,320.89286 c 12.087132,0 21.885683,9.79869 21.885683,21.88575 0,12.08717 -9.798551,21.88566 -21.885683,21.88566 -12.087136,0 -21.885687,-9.79848 -21.885687,-21.88566 0,-12.08707 9.798551,-21.88575 21.885687,-21.88575 z m 402.55961,33.51253 c 12.08706,0 21.88573,9.79852 21.88573,21.88566 0,12.08707 -9.79867,21.8855 -21.88573,21.8855 -12.08707,0 -21.88557,-9.79843 -21.88557,-21.8855 0,-12.08714 9.7985,-21.88566 21.88557,-21.88566 z m -194.2352,63.67576 c 12.08701,0 21.8856,9.79849 21.8856,21.88573 0,12.087 -9.79859,21.88555 -21.8856,21.88555 -12.08719,0 -21.88584,-9.79855 -21.88584,-21.88555 0,-12.08724 9.79865,-21.88573 21.88584,-21.88573 z" />
</svg>
