<?xml version="1.0" encoding="UTF-8" standalone="no"?>
<svg
   width="512"
   height="512"
   viewBox="0 0 512 512"
   fill="none"
   version="1.1"
   id="svg4"
   xmlns="http://www.w3.org/2000/svg"
   xmlns:svg="http://www.w3.org/2000/svg">
  <defs
     id="defs8" />
  <g
     id="circle2">
    <path
       style="color:#000000;fill:#ffffff;stroke-width:50;-inkscape-stroke:none"
       d="M 480.99997,255.99998 A 224.99998,224.99998 0 0 1 255.99998,480.99997 224.99998,224.99998 0 0 1 31,255.99998 224.99998,224.99998 0 0 1 255.99998,31 224.99998,224.99998 0 0 1 480.99997,255.99998 Z"
       id="path827" />
    <path
       style="color:#000000;fill:#3c790a;-inkscape-stroke:none"
       d="M 256,6 C 118.22507,6 6,118.22507 6,256 6,393.77493 118.22507,506 256,506 393.77493,506 506,393.77493 506,256 506,118.22507 393.77493,6 256,6 Z m 0,50 c 110.75295,0 200,89.24705 200,200 0,110.75295 -89.24705,200 -200,200 C 145.24705,456 56,366.75295 56,256 56,145.24705 145.24705,56 256,56 Z"
       id="path829" />
  </g>
  <path
     fill="#3c790a"
     d="m 337.14993,317.18504 h 40.02566 v -96.09 l -45.08565,-45.08556 -28.3049,28.29489 33.36489,33.36547 z m 40.12002,20.06025 h -58.2849 -81.30518 l -33.37004,-33.36067 14.15001,-14.15472 27.56556,27.56537 h 56.7001 l -55.86052,-55.96539 14.25489,-14.25565 55.86006,55.86039 v -56.70476 l -27.45002,-27.45002 14.03999,-14.04529 -69.37472,-69.69478 h -68.42541 v 0 H 94.814467 l 39.915323,39.91458 v 0.10346 h 0.20877 82.57992 l 29.24508,29.24473 -42.76985,42.77022 -29.24047,-29.25005 v -22.69972 h -40.02461 v 39.27652 l 69.26518,69.27375 -28.19045,28.19528 45.08573,45.08991 h 68.41929 127.88105 v 0 z"
     id="path4"
     style="stroke-width:5" />
</svg>
