<svg width="512" height="512" viewBox="0 0 512 512" fill="none" xmlns="http://www.w3.org/2000/svg">
<path d="M384 216.832H179.2L179.2 243.968H384V216.832Z" fill="#4B4B4B"/>
<path d="M474.88 230.4C474.88 123.654 388.346 37.1199 281.6 37.1199C174.854 37.1199 88.32 123.654 88.32 230.4C88.32 278.705 106.04 322.871 135.335 356.753L41.2439 450.844L61.156 470.756L155.247 376.665C189.129 405.959 233.295 423.68 281.6 423.68C388.346 423.68 474.88 337.145 474.88 230.4ZM281.6 65.2799C372.793 65.2799 446.72 139.207 446.72 230.4C446.72 321.593 372.793 395.52 281.6 395.52C190.407 395.52 116.48 321.593 116.48 230.4C116.48 139.207 190.407 65.2799 281.6 65.2799Z" fill="#4B4B4B"/>
</svg>
