<svg width="20" height="20" viewBox="0 0 20 20" fill="none" xmlns="http://www.w3.org/2000/svg">
<path d="M15 8.47H7L7 9.53H15V8.47Z" fill="#4B4B4B"/>
<path fill-rule="evenodd" clip-rule="evenodd" d="M18.55 9C18.55 4.83025 15.1698 1.45 11 1.45C6.83025 1.45 3.45 4.83025 3.45 9C3.45 10.8869 4.14221 12.6122 5.28654 13.9356L1.61109 17.6111L2.38891 18.3889L6.06435 14.7135C7.38784 15.8578 9.11309 16.55 11 16.55C15.1698 16.55 18.55 13.1697 18.55 9ZM11 2.55C14.5622 2.55 17.45 5.43776 17.45 9C17.45 12.5622 14.5622 15.45 11 15.45C7.43777 15.45 4.55 12.5622 4.55 9C4.55 5.43776 7.43777 2.55 11 2.55Z" fill="#4B4B4B"/>
</svg>
