<svg width="512" height="512" viewBox="0 0 512 512" fill="none" xmlns="http://www.w3.org/2000/svg">
<path d="M295.168 243.968V332.8H268.032V243.968H179.2V216.832H268.032V128H295.168V216.832H384V243.968H295.168Z" fill="#4B4B4B"/>
<path d="M281.6 37.1199C388.346 37.1199 474.88 123.654 474.88 230.4C474.88 337.145 388.346 423.68 281.6 423.68C233.295 423.68 189.129 405.96 155.247 376.665L61.156 470.756L41.2439 450.844L135.335 356.753C106.04 322.871 88.3199 278.705 88.3199 230.4C88.3199 123.654 174.854 37.1199 281.6 37.1199ZM446.72 230.4C446.72 139.207 372.793 65.2799 281.6 65.2799C190.407 65.2799 116.48 139.207 116.48 230.4C116.48 321.593 190.407 395.52 281.6 395.52C372.793 395.52 446.72 321.593 446.72 230.4Z" fill="#4B4B4B"/>
</svg>
