<svg width="20" height="20" viewBox="0 0 20 20" fill="none" xmlns="http://www.w3.org/2000/svg">
<path d="M11.53 9.53V13H10.47V9.53H6.99999V8.47H10.47V5H11.53V8.47H15V9.53H11.53Z" fill="#4B4B4B"/>
<path fill-rule="evenodd" clip-rule="evenodd" d="M11 1.45C15.1697 1.45 18.55 4.83025 18.55 9C18.55 13.1697 15.1697 16.55 11 16.55C9.11308 16.55 7.38783 15.8578 6.06434 14.7135L2.3889 18.3889L1.61108 17.6111L5.28652 13.9356C4.1422 12.6122 3.44999 10.8869 3.44999 9C3.44999 4.83025 6.83024 1.45 11 1.45ZM17.45 9C17.45 5.43776 14.5622 2.55 11 2.55C7.43776 2.55 4.54999 5.43776 4.54999 9C4.54999 12.5622 7.43776 15.45 11 15.45C14.5622 15.45 17.45 12.5622 17.45 9Z" fill="#4B4B4B"/>
</svg>
