<?xml version="1.0" standalone="no"?>
<!DOCTYPE svg PUBLIC "-//W3C//DTD SVG 1.1//EN" "http://www.w3.org/Graphics/SVG/1.1/DTD/svg11.dtd">
<svg xmlns="http://www.w3.org/2000/svg">
<defs >
<font id="SourceSerifPro" horiz-adv-x="576" ><font-face
    font-family="Source Serif Pro"
    units-per-em="1000"
    panose-1="2 4 8 3 5 4 5 2 2 4"
    ascent="918"
    descent="-335"
    alphabetic="0" />
<glyph unicode=" " glyph-name="space" horiz-adv-x="214" />
<glyph unicode="!" glyph-name="exclam" horiz-adv-x="347" d="M173 -15Q134 -15 107 11T80 77Q80 115 107 142T173 170Q213 170 240 143T267 77Q267 38 240 12T173 -15ZM173 668Q217 668 243 644T269 573Q269 546 260 492T225 345L200 249H147L122 345Q96 439
87 492T78 573Q78 620 104 644T173 668Z" />
<glyph unicode="&quot;" glyph-name="quotedbl" horiz-adv-x="447" d="M117 729Q154 729 175 709T196 646Q196 623 191 594T180 540T171 500L145 395H91L65 500Q62 514 56 539T45 594T40 646Q40 688 60 708T117 729ZM328 729Q365 729 386 709T407 646Q407 623
402 594T391 540T382 500L356 395H302L276 500Q273 514 267 539T256 594T251 646Q251 688 271 708T328 729Z" />
<glyph unicode="#" glyph-name="numbersign" horiz-adv-x="567" d="M208 268H347L363 374H224L208 268ZM87 0L111 159H19V268H127L143 374H52V483H160L184 643H265L241 483H380L404 643H485L461 483H549V374H444L428 268H515V159H412L388 0H306L330 159H192L168 0H87Z" />
<glyph unicode="$" glyph-name="dollar" horiz-adv-x="542" d="M243 -115V-15Q152 -12 102 26T51 129Q61 154 77 165T112 176Q141 176 157 161T181 107L193 43Q204 41 216 40T243 38V253L236 256Q148 285 101 334T54 454Q54 531 105 583T249 644V736H311V645Q387
640 433 604T485 507Q481 480 464 469T429 458Q404 458 381 473T350 540L342 589Q334 591 327 591T311 592V387H312Q417 353 461 302T506 181Q506 105 453 52T305 -12V-115H243ZM377 138Q377 173 362 193T305 231V45Q339 55 358 79T377 138ZM178 500Q178 466 194
445T249 408V587Q217 579 198 558T178 500Z" />
<glyph unicode="%" glyph-name="percent" horiz-adv-x="874" d="M242 -32L195 0L642 659L689 627L242 -32ZM154 440Q154 371 161 334T180 284T206 270Q221 270 233 284T252 334T259 440Q259 510 252 546T233 597T206 611Q192 611 180 598T161 547T154 440ZM206
645Q246 645 281 624T337 557T359 440Q359 370 338 325T281 259T206 237Q166 237 131 258T75 325T54 440Q54 511 75 556T131 623T206 645ZM616 194Q616 125 623 88T642 38T668 24Q683 24 695 38T714 88T721 194Q721 264 714 300T695 351T668 365Q654 365 642 352T623
301T616 194ZM668 399Q708 399 743 378T799 311T821 194Q821 124 800 79T743 13T668 -9Q628 -9 593 12T537 79T516 194Q516 265 537 310T593 377T668 399Z" />
<glyph unicode="&amp;" glyph-name="ampersand" horiz-adv-x="721" d="M265 453Q272 444 279 435T298 412Q333 450 348 486T363 554Q363 589 346 608T297 628Q267 628 249 607T230 552Q230 531 237 507T265 453ZM686 -1Q651 -8 631 -11T588 -15Q544 -15 510 -4T441
37Q436 42 431 47T420 57Q392 28 346 7T228 -15Q161 -15 116 9T47 73T23 161Q23 218 58 264T175 347Q174 349 173 350T170 353Q136 397 123 435T110 511Q110 585 162 627T299 670Q382 670 427 635T472 540Q472 490 437 453T324 382Q338 367 356 347T398 300Q425
270 447 247T490 201Q513 242 527 281T552 369L475 381V426H696V381L626 370Q607 309 583 262T524 166Q541 148 558 130T596 90L694 69L686 -1ZM298 197Q264 238 241 266T201 315Q179 290 169 262T159 203Q159 142 198 106T296 69Q348 69 386 92Q361 119 340 146T298
197Z" />
<glyph unicode="&apos;" glyph-name="quotesingle" horiz-adv-x="236" d="M117 729Q154 729 175 709T196 646Q196 623 191 594T180 540T171 500L145 395H91L65 500Q62 514 56 539T45 594T40 646Q40 688 60 708T117 729Z" />
<glyph unicode="(" glyph-name="parenleft" horiz-adv-x="377" d="M192 278Q192 200 208 134T258 5T349 -127L302 -168Q190 -80 132 32T73 278Q73 412 131 524T302 724L349 683Q293 614 259 551T208 422T192 278Z" />
<glyph unicode=")" glyph-name="parenright" horiz-adv-x="377" d="M185 278Q185 356 169 422T119 551T28 683L75 724Q187 636 245 524T304 278Q304 144 246 32T75 -168L28 -127Q84 -58 118 5T169 134T185 278Z" />
<glyph unicode="*" glyph-name="asterisk" horiz-adv-x="431" d="M215 736Q241 736 253 720T266 681Q266 665 260 642T245 587L236 556L264 574Q303 602 328 613T369 624Q387 624 402 612T417 573Q417 541 383 530T282 516L249 515L276 494Q323 458 341 437T359
393Q359 376 345 361T310 345Q279 345 262 375T226 459L214 489L203 459Q182 398 163 372T118 346Q96 346 83 362T69 394Q69 419 91 441T154 494L180 515L148 516Q77 516 45 528T12 574Q12 600 28 612T61 625Q82 625 107 612T166 574L194 556L185 587Q165 655 165
681Q165 704 177 720T215 736Z" />
<glyph unicode="+" glyph-name="plus" horiz-adv-x="544" d="M226 72V279H30V367H226V569H318V367H515V279H318V72H226Z" />
<glyph unicode="," glyph-name="comma" horiz-adv-x="300" d="M238 56Q238 -12 207 -65T128 -152T32 -202L18 -160Q68 -134 100 -99T151 -24L116 -6Q85 11 73 33T60 78Q60 115 85 140T148 165Q169 165 187 159T223 137Q232 114 235 97T238 56Z" />
<glyph unicode="-" glyph-name="hyphen" horiz-adv-x="339" d="M40 209V299H299V209H40Z" />
<glyph unicode="." glyph-name="period" horiz-adv-x="300" d="M150 -15Q112 -15 86 11T60 74Q60 111 86 138T150 165Q188 165 214 138T240 74Q240 37 214 11T150 -15Z" />
<glyph unicode="/" glyph-name="slash" horiz-adv-x="387" d="M9 -160L276 710H378L111 -160H9Z" />
<glyph unicode="0" glyph-name="zero" horiz-adv-x="542" d="M187 315Q187 203 198 143T228 60T271 37Q295 37 314 60T344 143T356 315Q356 427 345 487T314 571T271 594Q247 594 228 571T198 488T187 315ZM271 646Q333 646 387 612T474 504T508 315Q508 200 475
127T387 20T271 -15Q209 -15 155 19T69 127T36 315Q36 431 68 504T155 611T271 646Z" />
<glyph unicode="1" glyph-name="one" horiz-adv-x="542" d="M98 586L347 641L361 631L357 489V208Q357 175 357 142T358 75L474 47V0H73V47L195 75Q196 108 196 141T196 208V537L98 528V586Z" />
<glyph unicode="2" glyph-name="two" horiz-adv-x="542" d="M52 0V89Q87 123 120 156T184 220Q232 268 263 308T311 387T327 472Q327 530 300 562T225 594Q219 594 213 594T200 593L187 522Q180 470 158 454T113 437Q92 437 75 448T48 478Q50 533 82 570T166 627T280
646Q353 646 398 623T466 561T488 473Q488 425 463 380T385 288T249 184Q229 170 207 155T162 123H501V0H52Z" />
<glyph unicode="3" glyph-name="three" horiz-adv-x="542" d="M182 356H211Q268 356 300 385T333 480Q333 537 307 565T231 594Q227 594 222 594T212 593L202 528Q196 490 176 475T128 459Q90 459 72 491Q75 546 102 580T174 630T270 646Q381 646 435 600T490
486Q490 439 457 396T348 333Q436 317 472 275T509 167Q509 115 480 74T395 9T260 -15Q156 -15 101 28T42 150Q51 174 68 184T104 195Q135 195 153 176T178 106L187 39Q193 38 198 38T210 37Q345 37 345 172Q345 234 312 267T217 300H182V356Z" />
<glyph unicode="4" glyph-name="four" horiz-adv-x="542" d="M515 134H423V0H281V134H21V225L312 641H423V244H515V134ZM104 244H281V501L104 244Z" />
<glyph unicode="5" glyph-name="five" horiz-adv-x="542" d="M514 192Q514 124 479 78T385 8T249 -15Q153 -15 99 29T40 150Q48 173 66 184T104 195Q135 195 152 176T176 110L184 42Q193 39 202 38T222 37Q277 37 311 74T346 175Q346 244 314 280T225 317Q200
317 178 314T130 306L102 326L123 630H489V507H179L170 381Q217 390 267 390Q382 390 448 340T514 192Z" />
<glyph unicode="6" glyph-name="six" horiz-adv-x="542" d="M270 37Q304 37 327 75T351 193Q351 255 330 290T271 325Q252 325 234 319T195 299Q193 283 192 266T191 230Q191 132 212 85T270 37ZM511 208Q511 134 476 85T387 10T273 -15Q200 -15 145 16T59 108T28
255Q28 332 59 399T148 518T285 604T461 646L467 596Q354 567 290 507T203 350Q232 373 264 383T335 393Q394 393 433 369T491 302T511 208Z" />
<glyph unicode="7" glyph-name="seven" horiz-adv-x="542" d="M109 10L400 507H53V630H501V554L266 0H119L109 10Z" />
<glyph unicode="8" glyph-name="eight" horiz-adv-x="542" d="M189 513Q189 492 198 471T232 429T306 383Q334 417 344 444T354 504Q354 542 333 567T273 593Q240 593 215 572T189 513ZM44 136Q44 186 77 224T175 290Q56 356 56 465Q56 521 85 561T164 624T277
646Q347 646 391 626T456 573T478 501Q478 463 452 427T357 359Q428 323 464 276T500 166Q500 84 436 35T258 -15Q151 -15 98 26T44 136ZM175 144Q175 98 202 68T270 37Q314 37 335 64T357 127Q357 167 330 199T227 265Q199 236 187 208T175 144Z" />
<glyph unicode="9" glyph-name="nine" horiz-adv-x="542" d="M186 447Q186 379 212 343T284 307Q322 307 348 325Q351 355 351 390Q351 470 341 514T313 576T269 594Q235 594 211 560T186 447ZM512 376Q512 273 462 191T318 55T93 -20L83 31Q202 69 262 125T341
275Q319 259 291 251T227 242Q170 242 125 264T54 328T28 432Q28 498 61 546T148 620T266 646Q385 646 448 575T512 376Z" />
<glyph unicode=":" glyph-name="colon" horiz-adv-x="300" d="M150 324Q112 324 86 350T60 413Q60 450 86 477T150 504Q188 504 214 477T240 413Q240 376 214 350T150 324ZM150 -15Q112 -15 86 11T60 74Q60 111 86 138T150 165Q188 165 214 138T240 74Q240 37
214 11T150 -15Z" />
<glyph unicode=";" glyph-name="semicolon" horiz-adv-x="300" d="M150 324Q112 324 86 350T60 413Q60 450 86 477T150 504Q188 504 214 477T240 413Q240 376 214 350T150 324ZM238 56Q238 -12 207 -65T128 -152T32 -202L18 -160Q68 -134 100 -99T151 -24L116
-6Q85 11 73 33T60 78Q60 115 85 140T148 165Q169 165 187 159T223 137Q232 114 235 97T238 56Z" />
<glyph unicode="&lt;" glyph-name="less" horiz-adv-x="544" d="M38 286V361L456 577L499 491L156 324L499 156L456 70L38 286Z" />
<glyph unicode="=" glyph-name="equal" horiz-adv-x="544" d="M515 430H30V518H515V430ZM515 384H30V472H515V384Z" />
<glyph unicode="&gt;" glyph-name="greater" horiz-adv-x="544" d="M506 361V286L88 70L45 156L388 324L45 491L88 577L506 361Z" />
<glyph unicode="?" glyph-name="question" horiz-adv-x="449" d="M172 -15Q133 -15 106 11T78 77Q78 115 105 142T172 170Q212 170 238 143T265 77Q265 38 239 12T172 -15ZM391 446Q391 393 366 361T281 311L238 298Q214 291 207 284T197 257L195 229H138L126
265Q109 317 109 349Q109 376 128 391T188 416L264 433Q290 440 301 449T312 478Q312 490 307 505L162 527Q108 535 90 553T71 600Q71 655 146 676Q190 667 233 645T312 591T369 522T391 446Z" />
<glyph unicode="@" glyph-name="at" horiz-adv-x="890" d="M361 218Q361 172 378 150T423 127Q437 127 452 135T484 162L524 395Q514 406 504 410T482 414Q456 414 428 389T381 320T361 218ZM616 40Q568 40 538 64T496 127Q464 81 429 61T353 40Q305 40 270 76T235
185Q235 237 254 289T307 386T384 456T477 483Q506 483 530 473T571 443L630 475L656 458L610 196Q602 145 611 127T649 108Q675 108 704 135T753 213T774 337Q774 463 701 533T497 603Q411 603 343 571T226 482T152 356T126 209Q126 114 163 47T268 -54T424 -89Q504
-89 580 -64L595 -109Q551 -128 502 -140T398 -153Q289 -153 211 -108T90 15T48 195Q48 283 79 365T169 512T312 616T503 654Q614 654 690 611T805 496T844 336Q844 246 811 180T726 77T616 40Z" />
<glyph unicode="A" glyph-name="A" horiz-adv-x="675" d="M290 504L207 249H371L290 504ZM9 0V54L90 66L293 658H396L601 59L662 52V0H353V52L430 62L389 191H188L148 66L224 54V0H9Z" />
<glyph unicode="B" glyph-name="B" horiz-adv-x="651" d="M309 317H275Q275 247 275 184T277 58H309Q379 58 417 90T456 186Q456 254 420 285T309 317ZM312 599H277Q276 543 276 486T275 370H303Q367 370 397 400T427 490Q427 599 312 599ZM33 603V657H356Q441
657 492 637T566 581T589 502Q589 468 574 439T522 387T419 352Q531 339 579 296T628 184Q628 153 614 121T566 61T472 17T318 0H33V54L108 62Q110 124 110 187T110 314V343Q110 405 110 468T108 595L33 603Z" />
<glyph unicode="C" glyph-name="C" horiz-adv-x="622" d="M381 -19Q285 -19 206 19T81 135T34 329Q34 418 62 483T140 591T254 655T388 676Q445 676 492 664T584 626L588 471H512L483 602Q449 619 411 619Q358 619 313 589T239 495T211 328Q211 226 238 163T309
69T407 39Q428 39 449 44T491 58L519 186H595L591 32Q551 10 499 -4T381 -19Z" />
<glyph unicode="D" glyph-name="D" horiz-adv-x="705" d="M278 314Q278 249 278 185T280 58H313Q399 58 448 128T498 329Q498 461 449 530T314 599H280Q279 537 279 474T278 347V314ZM33 603V657H330Q437 657 513 618T630 505T671 330Q671 226 627 152T503 39T312
0H33V54L108 62Q110 123 110 186T110 313V347Q110 409 110 471T108 595L33 603Z" />
<glyph unicode="E" glyph-name="E" horiz-adv-x="595" d="M33 603V657H543L550 485H467L447 601H280Q279 544 279 486T278 369H386L398 447H456V232H398L386 310H278Q278 241 278 179T280 56H467L487 172H570L563 0H33V54L108 62Q110 123 110 185T110 310V347Q110
409 110 471T108 595L33 603Z" />
<glyph unicode="F" glyph-name="F" horiz-adv-x="580" d="M33 603V657H550L557 485H474L454 601H280Q279 544 279 486T278 369H389L401 447H459V222H401L388 310H278Q278 243 278 183T280 63L369 54V0H33V54L108 62Q110 123 110 185T110 310V347Q110 409 110 471T108
595L33 603Z" />
<glyph unicode="G" glyph-name="G" horiz-adv-x="675" d="M380 -19Q277 -19 199 23T78 143T34 330Q34 435 76 512T198 633T392 676Q441 676 491 665T585 630L589 474H512L483 604Q447 619 411 619Q357 619 312 588T239 494T211 330Q211 231 237 166T309 70T409
38Q431 38 447 42V85Q447 129 447 172T445 258L355 270V324H660V270L608 263Q607 218 607 174T606 82V40Q554 10 500 -4T380 -19Z" />
<glyph unicode="H" glyph-name="H" horiz-adv-x="765" d="M417 603V657H733V603L659 595Q658 534 658 472T657 347V310Q657 249 657 187T659 62L733 54V0H417V54L487 61Q489 123 489 185T489 308H276Q276 241 276 181T278 61L348 54V0H33V54L106 62Q108 123 108
185T108 310V347Q108 409 108 471T106 595L33 603V657H348V603L278 596Q277 535 277 475T276 367H489Q489 424 489 481T487 596L417 603Z" />
<glyph unicode="I" glyph-name="I" horiz-adv-x="388" d="M33 603V657H355V603L280 595Q279 534 279 472T278 347V311Q278 249 278 187T280 62L355 54V0H33V54L108 62Q110 123 110 185T110 310V347Q110 409 110 471T108 595L33 603Z" />
<glyph unicode="J" glyph-name="J" horiz-adv-x="395" d="M35 603V657H368V603L291 595Q290 537 290 477T290 356V252Q290 116 273 32T204 -103Q133 -173 35 -173Q-6 -173 -37 -158T-85 -110Q-84 -75 -62 -56T-6 -36Q20 -36 41 -49T85 -91L106 -116Q118 -93 123
-56T128 37Q128 84 127 156T124 336T120 594L35 603Z" />
<glyph unicode="K" glyph-name="K" horiz-adv-x="696" d="M428 603V657H660V603L565 591L433 433L630 61L691 54V0H402V54L450 59L327 308L270 240Q270 197 270 152T272 62L337 54V0H33V54L108 62Q110 123 110 185T110 310V347Q110 409 110 471T108 595L33 603V657H348V603L272
595Q271 534 271 472T270 347V314L494 591L428 603Z" />
<glyph unicode="L" glyph-name="L" horiz-adv-x="580" d="M33 603V657H363V603L280 595Q279 534 279 472T278 347V294Q278 240 278 180T280 57H453L480 196H561L551 0H33V54L108 62Q110 123 110 181T110 289V347Q110 409 110 471T108 595L33 603Z" />
<glyph unicode="M" glyph-name="M" horiz-adv-x="896" d="M18 0V54L115 66V593L27 603V657H291L454 217L607 657H860V603L789 595Q788 534 788 472T787 347V310Q787 248 787 186T789 62L863 54V0H544V54L617 63Q619 124 619 182T619 289L621 510L443 0H366L175
511L180 311V67L262 54V0H18Z" />
<glyph unicode="N" glyph-name="N" horiz-adv-x="728" d="M436 603V657H699V603L614 590V-2H530L178 486V67L292 54V0H28V54L113 66V577L99 596L30 603V657H256L550 253V590L436 603Z" />
<glyph unicode="O" glyph-name="O" horiz-adv-x="702" d="M351 -19Q289 -19 232 2T131 67T60 176T34 329Q34 415 60 480T131 588T233 654T351 676Q413 676 469 655T571 590T642 482T668 329Q668 242 642 177T572 69T470 3T351 -19ZM351 39Q402 39 432 77T477 180T491
329Q491 412 477 477T433 580T351 618Q301 618 270 580T225 477T211 329Q211 246 225 181T270 77T351 39Z" />
<glyph unicode="P" glyph-name="P" horiz-adv-x="613" d="M303 599H280Q279 537 279 474T278 347V307H307Q373 307 406 349T439 460Q439 529 404 564T303 599ZM33 603V657H305Q409 657 473 633T566 564T596 459Q596 402 569 355T478 279T306 251H278Q278 208 278
161T280 63L369 54V0H33V54L108 62Q110 123 110 185T110 310V347Q110 409 110 471T108 595L33 603Z" />
<glyph unicode="Q" glyph-name="Q" horiz-adv-x="702" d="M351 39Q402 39 432 77T477 180T491 329Q491 412 477 477T433 580T351 618Q301 618 270 580T225 477T211 329Q211 246 225 181T270 77T351 39ZM493 -206Q390 -206 331 -151T267 -9Q203 8 150 50T66 162T34
329Q34 415 60 480T131 588T233 654T351 676Q413 676 469 655T571 590T642 482T668 329Q668 231 635 161T548 48T426 -11Q428 -67 458 -98T537 -130Q552 -130 571 -128T609 -118L631 -174Q606 -190 570 -198T493 -206Z" />
<glyph unicode="R" glyph-name="R" horiz-adv-x="683" d="M317 599H277Q276 537 276 476T275 358H313Q363 358 391 375T431 420T443 480Q443 599 317 599ZM33 603V657H358Q476 657 539 613T603 491Q603 458 586 426T530 369T424 333Q481 326 513 306T561 253T584
173L603 62L679 54V0Q655 -5 639 -8T608 -13T569 -14Q505 -14 469 8T424 88L406 204Q399 254 378 278T311 302H275Q275 238 275 179T277 62L355 54V0H33V54L108 62Q110 123 110 185T110 310V347Q110 409 110 471T108 595L33 603Z" />
<glyph unicode="S" glyph-name="S" horiz-adv-x="541" d="M251 -19Q195 -19 136 -6T34 34L40 182H133L153 59Q176 50 199 46T250 41Q304 41 332 68T360 136Q360 176 340 198T274 240L231 259Q143 300 95 350T46 483Q46 573 113 624T294 676Q348 676 397 663T483
625L475 485H383L364 603Q348 609 332 612T297 616Q254 616 224 591T194 525Q194 485 217 462T285 418L332 397Q427 354 469 307T512 183Q512 95 446 38T251 -19Z" />
<glyph unicode="T" glyph-name="T" horiz-adv-x="634" d="M20 471L24 657H611L614 471H531L513 601H403Q402 539 402 476T401 347V311Q401 249 401 187T403 63L489 54V0H146V54L231 63Q233 124 233 186T233 310V347Q233 410 233 473T231 601H122L103 471H20Z" />
<glyph unicode="U" glyph-name="U" horiz-adv-x="731" d="M466 603V657H705V603L622 596V283Q622 124 553 53T359 -19Q285 -19 227 7T136 92T103 248V357Q103 416 103 476T101 596L29 603V657H355V603L272 595Q271 536 271 477T271 357V280Q271 165 307 119T414
72Q481 72 519 121T557 283V595L466 603Z" />
<glyph unicode="V" glyph-name="V" horiz-adv-x="661" d="M442 606V657H659V603L584 591L378 -2H281L66 597L8 603V657H330V606L245 595L382 183L520 593L442 606Z" />
<glyph unicode="W" glyph-name="W" horiz-adv-x="981" d="M767 603V657H978V603L900 590L724 -2H626L484 452L346 -2H248L69 597L8 603V657H318V603L245 595L347 193L467 594L394 603V657H694V603L606 592L723 185L838 592L767 603Z" />
<glyph unicode="X" glyph-name="X" horiz-adv-x="654" d="M11 603V657H324V603L264 596L363 426L467 598L405 603V657H614V603L539 597L394 373L576 61L647 54V0H318V54L391 62L280 253L157 59L220 54V0H7V54L85 61L249 306L80 595L11 603Z" />
<glyph unicode="Y" glyph-name="Y" horiz-adv-x="624" d="M8 603V657H330V603L255 594L369 341L484 592L415 603V657H622V603L549 591L398 284Q398 208 398 158T399 63L486 54V0H143V54L229 63Q230 104 230 149T230 258L64 597L8 603Z" />
<glyph unicode="Z" glyph-name="Z" horiz-adv-x="563" d="M20 0V46L341 600H135L109 471H30L38 657H533V611L212 57H437L463 186H543L535 0H20Z" />
<glyph unicode="[" glyph-name="bracketleft" horiz-adv-x="348" d="M103 158V398Q103 477 103 556T100 715H333V661L225 650Q224 588 224 525T224 398V158Q224 96 224 33T226 -94L333 -105V-159H100Q102 -82 102 -2T103 158Z" />
<glyph unicode="\" glyph-name="backslash" horiz-adv-x="387" d="M378 -160H275L8 710H111L378 -160Z" />
<glyph unicode="]" glyph-name="bracketright" horiz-adv-x="348" d="M245 398V158Q245 79 245 0T248 -159H15V-105L123 -94Q124 -32 124 31T124 158V398Q124 460 124 523T122 650L15 661V715H248Q246 638 246 558T245 398Z" />
<glyph unicode="^" glyph-name="asciicircum" horiz-adv-x="544" d="M54 232L231 505H314L491 232L419 182L272 406L125 182L54 232Z" />
<glyph unicode="_" glyph-name="underscore" horiz-adv-x="539" d="M40 -90V0H499V-90H40Z" />
<glyph unicode="`" glyph-name="grave" horiz-adv-x="400" d="M289 584L251 553Q232 568 208 586T140 637Q111 660 94 679T77 721Q77 747 94 761T132 776Q157 776 173 762T210 714Q242 662 259 635T289 584Z" />
<glyph unicode="a" glyph-name="a" horiz-adv-x="531" d="M415 -14Q328 -14 305 58Q273 24 244 5T162 -15Q104 -15 68 18T31 113Q31 149 47 178T105 232T224 279Q239 284 259 289T300 299V332Q300 399 284 423T219 447Q212 447 206 447T192 446L187 402Q186 353
165 331T114 309Q59 309 47 359Q51 421 110 460T277 499Q373 499 414 455T456 310V86Q456 57 478 57Q486 57 493 61T508 79L535 61Q517 21 489 4T415 -14ZM179 139Q179 102 196 84T239 66Q250 66 262 71T300 94V256Q287 252 275 248T253 239Q219 225 199 200T179
139Z" />
<glyph unicode="b" glyph-name="b" horiz-adv-x="610" d="M29 -1V46L82 57Q83 93 83 135T83 209V631L21 639V681L228 726L244 716L240 576V435Q303 499 385 499Q440 499 484 471T554 386T581 246Q581 165 551 107T473 17T367 -15Q285 -15 235 44L218 -14L29 -1ZM312
412Q293 412 276 404T243 383V97Q274 69 311 69Q355 69 383 112T412 243Q412 332 385 372T312 412Z" />
<glyph unicode="c" glyph-name="c" horiz-adv-x="513" d="M277 -15Q209 -15 153 13T62 99T28 240Q28 322 64 380T162 468T298 499Q351 499 392 479T457 426T485 353Q469 301 417 301Q388 301 366 322T341 396L334 446Q330 447 325 447T315 447Q287 447 259 428T213
368T195 259Q195 173 233 127T335 80Q371 80 398 95T447 136L482 105Q453 44 401 15T277 -15Z" />
<glyph unicode="d" glyph-name="d" horiz-adv-x="594" d="M198 239Q198 157 227 115T302 72Q336 72 364 95V393Q337 414 305 414Q259 414 229 371T198 239ZM377 -11L369 46Q311 -15 228 -15Q172 -15 127 14T55 99T29 237Q29 319 60 377T142 467T249 499Q288 499
317 486T370 446V629L300 639V681L511 726L527 716L523 576V57L572 47V0L377 -11Z" />
<glyph unicode="e" glyph-name="e" horiz-adv-x="521" d="M276 447Q248 447 225 413T198 286H283Q319 286 331 300T344 349Q344 399 324 423T276 447ZM278 -15Q205 -15 149 15T61 103T29 241Q29 325 66 382T163 469T286 499Q352 499 398 471T469 396T493 287Q493
258 487 234H198Q203 155 241 118T332 80Q373 80 402 95T453 134L488 102Q457 43 404 14T278 -15Z" />
<glyph unicode="f" glyph-name="f" horiz-adv-x="362" d="M30 0V47L85 58Q86 96 86 134T87 210V415H22V474L89 482Q97 550 115 591T166 666Q203 703 249 719T339 736Q381 736 415 721T459 665Q458 637 440 618T387 598Q362 598 340 615T297 669L289 681Q262 653
252 608T244 483H351V415H246V210Q246 173 246 137T247 63L324 47V0H30Z" />
<glyph unicode="g" glyph-name="g" horiz-adv-x="543" d="M245 224Q280 224 297 255T315 339Q315 392 298 421T247 451Q213 451 196 421T179 338Q179 285 195 255T245 224ZM112 -83Q112 -127 145 -147T246 -168Q321 -168 359 -146T397 -91Q397 -69 381 -52T324
-34H219Q164 -34 128 -25Q120 -39 116 -52T112 -83ZM246 177Q194 177 155 189Q143 168 143 143Q143 126 156 116T201 105H318Q394 105 439 87T503 36T523 -41Q523 -91 490 -133T392 -201T230 -227Q147 -227 100 -211T34 -167T15 -110Q15 -46 98 -7Q67 6 54 27T40
73Q40 108 60 139T118 203Q77 224 57 259T37 337Q37 407 88 453T246 499Q300 499 340 487T405 453L517 501L533 491V414H438Q456 381 456 337Q456 270 405 224T246 177Z" />
<glyph unicode="h" glyph-name="h" horiz-adv-x="617" d="M28 0V47L82 59Q83 95 83 137T83 210V629L21 639V681L228 726L244 716L240 576V415Q280 462 317 480T399 499Q465 499 505 456T545 327V210Q545 177 545 136T546 57L596 47V0H333V47L385 58Q386 95 386
136T386 210V315Q386 364 375 383T332 402Q312 402 289 390T243 356V210Q243 179 243 137T244 57L291 47V0H28Z" />
<glyph unicode="i" glyph-name="i" horiz-adv-x="316" d="M30 0V47L84 59Q85 95 85 137T85 210V258Q85 299 85 326T82 384L20 393V432L230 499L247 488L244 343V210Q244 179 244 137T245 57L295 47V0H30ZM163 573Q128 573 103 595T78 652Q78 687 103 709T163 732Q198
732 223 710T248 652Q248 618 223 596T163 573Z" />
<glyph unicode="j" glyph-name="j" horiz-adv-x="307" d="M10 -237Q-43 -237 -75 -216T-118 -168Q-114 -133 -89 -114T-34 -95Q21 -95 57 -153L69 -173Q75 -162 78 -149Q84 -125 84 -88T84 -6T82 84V258Q82 299 82 326T79 384L18 393V432L226 499L243 488L240
343V54Q240 -6 234 -47T214 -116T175 -170Q136 -209 92 -223T10 -237ZM160 573Q125 573 100 595T75 652Q75 687 100 709T160 732Q195 732 220 710T245 652Q245 618 220 596T160 573Z" />
<glyph unicode="k" glyph-name="k" horiz-adv-x="598" d="M26 0V47L82 59Q83 96 83 138T83 210V629L21 639V681L231 726L247 716L243 576V269L405 427L329 439V483H570V439L480 426L392 343L533 62L597 47V0H393L280 239L243 204Q243 171 243 132T244 58L298 47V0H26Z" />
<glyph unicode="l" glyph-name="l" horiz-adv-x="323" d="M26 0V47L81 59Q82 97 82 135T83 210V629L21 639V681L231 726L247 716L243 576V210Q243 172 243 134T245 58L300 47V0H26Z" />
<glyph unicode="m" glyph-name="m" horiz-adv-x="907" d="M28 0V47L82 59Q83 95 83 137T83 210V268Q83 309 83 331T80 384L19 393V432L216 499L234 488L240 416Q275 457 313 478T396 499Q499 499 529 410Q570 460 608 479T690 499Q766 499 801 455T836 322V210Q836
178 836 136T837 58L887 47V0H629V47L678 59Q679 95 679 136T679 210V307Q679 363 666 382T622 402Q580 402 538 366Q539 357 539 348T540 327V210Q540 177 540 136T541 57L588 47V0H330V47L382 59Q383 95 383 136T383 210V306Q383 359 371 380T325 402Q304 402
283 392T243 366V210Q243 179 243 137T244 57L291 47V0H28Z" />
<glyph unicode="n" glyph-name="n" horiz-adv-x="616" d="M28 0V47L82 59Q83 95 83 137T83 210V268Q83 309 83 331T80 384L19 393V432L216 499L234 488L240 416Q279 462 317 480T400 499Q465 499 504 456T544 327V210Q544 177 544 136T545 57L595 47V0H331V47L383
58Q384 95 384 136T384 210V315Q384 363 371 382T329 402Q290 402 243 366V210Q243 179 243 137T244 57L291 47V0H28Z" />
<glyph unicode="o" glyph-name="o" horiz-adv-x="565" d="M283 -15Q205 -15 148 17T60 108T29 244Q29 321 62 378T154 467T283 499Q354 499 411 468T503 380T537 244Q537 166 506 108T418 18T283 -15ZM283 37Q325 37 346 86T367 241Q367 348 346 397T283 446Q240
446 219 397T198 241Q198 135 219 86T283 37Z" />
<glyph unicode="p" glyph-name="p" horiz-adv-x="611" d="M29 -227V-180L85 -168Q86 -121 86 -81T87 -3V268Q87 309 87 331T84 384L22 393V432L218 499L235 489L239 433Q302 499 387 499Q442 499 486 470T556 384T583 244Q583 164 553 106T475 16T369 -15Q292
-15 243 37V-2Q243 -39 243 -79T245 -165L309 -180V-227H29ZM314 412Q295 412 279 404T246 384V94Q276 69 311 69Q356 69 384 111T413 242Q413 331 386 371T314 412Z" />
<glyph unicode="q" glyph-name="q" horiz-adv-x="583" d="M198 238Q198 156 227 114T302 72Q320 72 335 78T365 96V397Q335 414 306 414Q259 414 229 371T198 238ZM228 -15Q172 -15 127 14T55 99T29 236Q29 319 60 377T143 467T255 499Q291 499 322 485T382 440L498
499L527 489L524 354V-16Q524 -54 524 -92T526 -169L576 -180V-227H302V-180L367 -165Q368 -127 368 -90T368 -16V46Q311 -15 228 -15Z" />
<glyph unicode="r" glyph-name="r" horiz-adv-x="465" d="M27 0V47L82 58Q83 95 83 137T83 210V269Q83 297 83 315T82 348T80 384L19 393V432L216 499L234 488L243 370Q264 434 302 466T377 499Q410 499 434 481T464 425Q463 386 443 365T393 343Q351 343 316
390L310 398Q288 377 270 345T243 278V210Q243 179 243 139T244 64L323 47V0H27Z" />
<glyph unicode="s" glyph-name="s" horiz-adv-x="455" d="M204 -15Q109 -15 30 31L33 153H113L130 54Q148 47 166 44T205 40Q248 40 271 54T294 99Q294 122 277 139T210 170L156 186Q98 203 67 241T35 335Q35 404 89 451T244 499Q288 499 325 489T402 458L395
349H315L295 435Q274 443 240 443Q206 443 186 429T165 387Q165 367 181 352T249 320L298 306Q369 285 400 246T431 151Q431 72 371 29T204 -15Z" />
<glyph unicode="t" glyph-name="t" horiz-adv-x="358" d="M218 -15Q151 -15 113 17T75 124Q75 150 75 172T76 224V415H11V474L85 484L135 624H237L235 483H340V415H235V135Q235 100 249 84T286 67Q312 67 340 89L365 65Q345 27 310 6T218 -15Z" />
<glyph unicode="u" glyph-name="u" horiz-adv-x="607" d="M382 -11L376 73Q344 31 303 8T214 -15Q150 -15 111 25T73 165L77 409L19 422V464L223 493L239 482L234 341V164Q234 118 248 100T288 82Q309 82 331 95T374 127L378 410L323 422V461L522 493L538 482L535
341V57L587 46V-1L382 -11Z" />
<glyph unicode="v" glyph-name="v" horiz-adv-x="527" d="M332 439V483H521V439L463 428L298 -2H222L42 429L-7 439V483H277V439L214 426L308 170L395 427L332 439Z" />
<glyph unicode="w" glyph-name="w" horiz-adv-x="789" d="M601 439V483H783V439L727 430L574 -2H499L384 320L270 -2H195L37 432L-7 439V483H256V439L198 431L276 174L364 430L305 439V483H550V439L495 430L577 181L658 430L601 439Z" />
<glyph unicode="x" glyph-name="x" horiz-adv-x="552" d="M349 439V483H524V439L467 428L351 271L485 57L542 47V0H256V47L302 54L228 174L150 56L199 47V0H10V47L79 58L199 221L69 431L13 439V483H294V439L250 432L323 316L397 428L349 439Z" />
<glyph unicode="y" glyph-name="y" horiz-adv-x="534" d="M342 440V483H530V440L473 430L291 -41Q254 -137 214 -187T104 -237Q64 -237 34 -215T1 -162Q7 -129 30 -113T83 -97Q103 -97 126 -105T169 -144L176 -154Q220 -107 244 -39V-38L45 432L-2 440V483H282V440L215
428L313 158L408 428L342 440Z" />
<glyph unicode="z" glyph-name="z" horiz-adv-x="464" d="M18 0V39L268 438H132L105 327L24 331L32 483H440V445L198 46H340L369 167H450L440 0H18Z" />
<glyph unicode="{" glyph-name="braceleft" horiz-adv-x="337" d="M40 251V305Q103 318 124 338T145 387Q145 421 132 451T104 514T90 586Q90 652 142 683T273 715H307V662L280 659Q211 650 211 582Q211 554 218 525T232 468T239 412Q239 365 215 330T142 278Q191
262 215 227T239 144Q239 118 232 89T218 31T211 -26Q211 -94 280 -103L307 -106V-159H273Q194 -159 142 -128T90 -30Q90 9 104 41T131 105T145 169Q145 198 124 218T40 251Z" />
<glyph unicode="|" glyph-name="bar" horiz-adv-x="272" d="M87 -250V750H185V-250H87Z" />
<glyph unicode="}" glyph-name="braceright" horiz-adv-x="337" d="M297 305V251Q234 238 213 218T192 169Q192 136 206 105T233 42T247 -30Q247 -96 196 -127T64 -159H30V-106L57 -103Q126 -94 126 -26Q126 2 119 31T105 89T98 144Q98 191 122 226T195 278Q146
295 122 330T98 412Q98 439 105 467T119 525T126 582Q126 650 57 659L30 662V715H64Q144 715 195 684T247 586Q247 547 234 515T206 452T192 387Q192 358 213 338T297 305Z" />
<glyph unicode="~" glyph-name="asciitilde" horiz-adv-x="544" d="M294 385Q323 357 341 348T376 339Q396 339 410 359T428 434L505 426Q504 361 486 322T438 265T371 248Q339 248 310 261T248 305Q220 334 203 342T169 351Q149 351 135 331T116 256L40 264Q42
361 79 401T173 442Q202 442 232 429T294 385Z" />
<glyph unicode="&#xa0;" glyph-name="space" horiz-adv-x="214" />
<glyph unicode="&#xa1;" glyph-name="exclamdown" horiz-adv-x="347" d="M174 490Q213 490 240 464T267 398Q267 360 240 333T174 305Q134 305 107 332T80 398Q80 437 107 463T174 490ZM174 -193Q131 -193 105 -169T78 -98Q78 -71 87 -17T122 130L147 226H200L225
130Q251 36 260 -17T269 -98Q269 -144 244 -168T174 -193Z" />
<glyph unicode="&#xa2;" glyph-name="cent" horiz-adv-x="542" d="M342 -45H280V52Q207 57 152 89T65 177T34 308Q34 381 64 436T150 525T280 565V653H342V566Q416 560 463 520T515 421Q503 372 459 372Q428 372 409 390T381 458L371 511Q358 514 342 514V133Q384
137 417 155T476 202L511 171Q488 122 445 92T342 53V-45ZM187 321Q187 250 213 204T280 140V509Q238 494 213 447T187 321Z" />
<glyph unicode="&#xa3;" glyph-name="sterling" horiz-adv-x="542" d="M46 0V93Q93 121 118 161T144 244Q144 252 144 258T142 271H59V328H124Q111 357 97 388T82 469Q82 527 112 566T193 626T302 646Q387 646 438 606T495 497Q488 471 472 460T434 448Q406 448
386 465T357 531L346 592Q342 593 339 593T332 593Q281 593 252 563T223 477Q223 434 231 399T245 328H415V271H249Q249 267 249 263T248 254Q239 166 167 123H496V0H46Z" />
<glyph unicode="&#xa4;" glyph-name="currency" horiz-adv-x="543" d="M172 324Q172 276 202 247T272 218Q313 218 342 247T371 324Q371 371 342 400T272 429Q232 429 202 400T172 324ZM94 324Q94 356 104 384T130 434L98 451Q68 467 47 485T25 526Q25 544 38
557T69 571Q93 571 111 550T145 498L162 465Q209 501 272 501Q334 501 381 465L399 498Q415 528 433 549T474 571Q492 571 505 558T519 526Q519 503 498 486T446 451L413 434Q430 412 439 384T449 324Q449 292 440 265T413 214L446 197Q476 181 497 163T519 122Q519
104 506 91T474 77Q451 77 434 98T399 150L382 183Q333 147 272 147Q211 147 162 183L145 150Q129 120 111 99T69 77Q52 77 39 90T25 122Q25 145 46 163T98 197L130 214Q114 236 104 264T94 324Z" />
<glyph unicode="&#xa5;" glyph-name="yen" horiz-adv-x="542" d="M59 139V197H194V267H59V324H174L48 573L-6 579V631H285V579L210 571L313 341L419 568L352 579V631H548V579L489 567L369 324H486V267H348V197H486V139H348Q349 122 349 104T350 62L440 53V0H102V53L193
62Q193 85 193 103T194 139H59Z" />
<glyph unicode="&#xa6;" glyph-name="brokenbar" horiz-adv-x="272" d="M87 -250V200H185V-250H87ZM185 320H87V750H185V320Z" />
<glyph unicode="&#xa7;" glyph-name="section" horiz-adv-x="532" d="M283 675Q372 675 423 640T475 546Q471 519 455 508T419 496Q392 496 371 512T335 575L318 622Q313 623 307 623T294 623Q247 623 220 605T193 550Q193 515 220 496T302 456Q372 433 413 407T472
347T490 267Q490 231 472 201T421 147Q455 109 455 51Q455 9 432 -27T362 -86T250 -109Q161 -109 110 -74T57 19Q62 47 78 58T114 69Q141 69 161 53T198 -10L214 -56Q220 -57 226 -57T239 -57Q286 -57 313 -38T340 18Q340 53 311 71T214 115Q127 148 85 187T43
293Q43 328 62 361T114 419Q78 459 78 517Q78 559 101 595T170 653T283 675ZM267 233Q304 220 334 207T386 178Q397 200 397 221Q397 265 365 287T261 335Q188 361 147 390Q136 368 136 347Q136 302 168 279T267 233Z" />
<glyph unicode="&#xa8;" glyph-name="dieresis" horiz-adv-x="400" d="M80 575Q50 575 27 594T3 648Q3 682 26 701T80 721Q112 721 134 702T157 648Q157 614 135 595T80 575ZM320 575Q290 575 267 594T243 648Q243 682 266 701T320 721Q351 721 374 702T397 648Q397
614 374 595T320 575Z" />
<glyph unicode="&#xa9;" glyph-name="copyright" horiz-adv-x="744" d="M92 329Q92 239 130 173T233 71T373 34Q450 34 513 70T615 173T654 329Q654 419 616 485T514 587T373 623Q297 623 233 587T131 485T92 329ZM30 329Q30 409 57 473T132 582T242 651T373 676Q442
676 503 652T613 582T688 473T715 329Q715 250 688 186T613 76T504 6T373 -19Q304 -19 242 5T133 76T58 186T30 329ZM413 169Q434 169 455 178L470 249H517L515 155Q492 142 461 133T392 124Q335 124 289 147T214 216T186 329Q186 398 215 444T293 513T396 537Q432
537 459 530T511 508L513 412H466L450 485Q431 493 414 493Q368 493 334 452T299 330Q299 250 332 210T413 169Z" />
<glyph unicode="&#xaa;" glyph-name="ordfeminine" horiz-adv-x="355" d="M301 470Q301 447 317 447Q326 447 339 461L356 449Q344 424 326 414T280 403Q221 403 208 453Q184 429 164 416T111 402Q72 402 47 424T22 486Q22 518 47 544T149 591Q160 595 175 598T205
606V628Q205 672 193 688T148 704Q144 704 139 704T128 703L124 670Q121 642 108 629T76 615Q39 615 33 647Q36 687 75 711T184 736Q246 736 273 708T301 615V470ZM115 501Q115 476 128 464T157 452Q168 452 178 458T205 476V578Q195 575 186 572T168 566Q115 544
115 501Z" />
<glyph unicode="&#xab;" glyph-name="guillemotleft" horiz-adv-x="552" d="M260 30L26 220V285L260 475L295 439L141 252L295 66L260 30ZM478 30L244 220V285L478 475L513 439L359 252L513 66L478 30Z" />
<glyph unicode="&#xac;" glyph-name="logicalnot" horiz-adv-x="544" d="M28 319V407H513V144H422V319H28Z" />
<glyph unicode="&#xad;" glyph-name="hyphen" horiz-adv-x="339" d="M40 209V299H299V209H40Z" />
<glyph unicode="&#xae;" glyph-name="registered" horiz-adv-x="470" d="M77 512Q77 463 98 427T156 372T235 352Q278 352 313 371T370 427T392 512Q392 562 371 597T314 652T235 671Q192 671 156 652T99 598T77 512ZM30 512Q30 575 58 620T133 690T235 714Q290
714 336 690T411 621T440 512Q440 450 412 404T338 334T235 309Q180 309 133 333T58 404T30 512ZM344 438V418Q331 416 325 415T308 414Q287 414 275 421T261 447L256 480Q253 507 229 507H220V440L243 438V418H141V438L163 440V593L141 595V616H243Q279 616 299
603T319 566Q319 552 308 538T265 518Q291 514 302 502T316 470L320 440L344 438ZM228 594H220V527H228Q249 527 257 537T265 561Q265 594 228 594Z" />
<glyph unicode="&#xaf;" glyph-name="overscore" horiz-adv-x="400" d="M41 587V676H359V587H41Z" />
<glyph unicode="&#xb0;" glyph-name="degree" horiz-adv-x="328" d="M164 455Q198 455 220 478T243 541Q243 581 221 604T164 628Q130 628 108 605T85 541Q85 501 107 478T164 455ZM164 407Q129 407 99 423T50 469T31 541Q31 583 49 613T98 659T164 676Q199 676
229 660T278 613T297 541Q297 500 279 470T230 423T164 407Z" />
<glyph unicode="&#xb1;" glyph-name="plusminus" horiz-adv-x="544" d="M515 0H30V88H515V0ZM226 121V301H30V388H226V563H318V388H515V301H318V121H226Z" />
<glyph unicode="&#xb2;" glyph-name="two.sups" horiz-adv-x="373" d="M43 412V469L128 551Q172 593 194 626T217 703Q217 739 200 758T152 777Q148 777 145 777T138 776L130 734Q126 700 112 690T82 679Q54 679 40 706Q41 759 85 785T197 811Q263 811 293 780T324
704Q324 659 287 619T171 526L131 498H332V412H43Z" />
<glyph unicode="&#xb3;" glyph-name="three.sups" horiz-adv-x="373" d="M125 632H143Q179 632 199 649T219 707Q219 742 202 759T155 777Q153 777 150 777T144 776L138 735Q134 711 121 702T90 692Q66 692 53 710Q53 746 71 768T118 800T182 811Q253 811 288
783T323 712Q323 681 302 655T234 617Q290 608 313 582T337 514Q337 461 294 431T177 400Q107 400 72 428T34 505Q40 521 51 527T75 533Q94 533 106 522T123 478L128 435Q131 434 134 434T142 434Q227 434 227 519Q227 595 147 595H125V632Z" />
<glyph unicode="&#xb4;" glyph-name="acute" horiz-adv-x="400" d="M110 584Q123 607 139 634T188 713Q208 747 225 761T267 776Q287 776 304 762T321 721Q321 699 305 679T258 637Q215 604 192 586T148 553L110 584Z" />
<glyph unicode="&#xb5;" glyph-name="mu" horiz-adv-x="588" d="M472 -15Q433 -15 408 9T374 78Q336 -15 264 -15Q219 -15 190 36L216 -163L76 -194L58 -176L87 110L63 470L206 499L222 488Q218 401 216 339T211 230T208 144Q222 118 241 108T282 97Q306 97 328
107T368 144L357 470L500 499L516 488Q509 384 505 319T498 213T496 144Q496 104 505 92T537 80Q555 80 570 86L584 51Q567 20 539 3T472 -15Z" />
<glyph unicode="&#xb6;" glyph-name="paragraph" horiz-adv-x="636" d="M314 602V116Q234 117 168 147T62 237T22 389Q22 484 67 543T192 629T371 657H602V603L527 594Q526 533 526 471T525 347V195Q525 117 525 39T528 -116H387Q389 -40 389 37T390 194V602H314Z" />
<glyph unicode="&#xb7;" glyph-name="middot" horiz-adv-x="300" d="M150 246Q112 246 86 272T60 335Q60 372 86 399T150 426Q188 426 214 399T240 335Q240 298 214 272T150 246Z" />
<glyph unicode="&#xb8;" glyph-name="cedilla" horiz-adv-x="400" d="M135 -89L149 4H201L195 -51Q248 -61 271 -83T295 -136Q295 -174 262 -199T160 -225Q136 -225 118 -222T82 -212L93 -166Q107 -170 120 -172T146 -174Q173 -174 185 -164T198 -136Q198 -93 135 -89Z" />
<glyph unicode="&#xb9;" glyph-name="one.sups" horiz-adv-x="373" d="M73 772L242 811L251 804V460L324 443V412H65V443L143 460V740L73 731V772Z" />
<glyph unicode="&#xba;" glyph-name="ordmasculine" horiz-adv-x="380" d="M190 702Q157 702 141 670T124 569Q124 500 140 468T190 436Q222 436 238 468T255 569Q255 637 239 669T190 702ZM190 736Q237 736 275 716T337 659T360 570Q360 493 313 448T190 402Q114
402 67 448T20 570Q20 621 43 658T104 716T190 736Z" />
<glyph unicode="&#xbb;" glyph-name="guillemotright" horiz-adv-x="552" d="M74 475L308 285V220L74 30L39 66L193 252L39 439L74 475ZM292 475L526 285V220L292 30L257 66L411 252L257 439L292 475Z" />
<glyph unicode="&#xbc;" glyph-name="onequarter" horiz-adv-x="874" d="M262 -32L215 0L662 659L709 627L262 -32ZM70 606L239 645L248 638V294L321 277V246H62V277L140 294V574L70 565V606ZM474 89V148L659 391H733V161H791V89H733V0H639V89H474ZM530 161H639V307L530
161Z" />
<glyph unicode="&#xbd;" glyph-name="onehalf" horiz-adv-x="874" d="M237 -32L190 0L637 659L684 627L237 -32ZM57 606L226 645L235 638V294L308 277V246H49V277L127 294V574L57 565V606ZM529 0V57L614 139Q658 181 680 214T703 291Q703 327 686 346T638 365Q634
365 631 365T624 364L616 322Q612 288 598 278T568 267Q540 267 526 294Q527 347 571 373T683 399Q749 399 779 368T810 292Q810 247 773 207T657 114L617 86H818V0H529Z" />
<glyph unicode="&#xbe;" glyph-name="threequarters" horiz-adv-x="874" d="M265 -39L218 -7L665 652L712 620L265 -39ZM159 466H177Q213 466 233 483T253 541Q253 576 236 593T189 611Q187 611 184 611T178 610L172 569Q168 545 155 536T124 526Q100 526 87 544Q87
580 105 602T152 634T216 645Q287 645 322 617T357 546Q357 515 336 489T268 451Q324 442 347 416T371 348Q371 295 328 265T211 234Q141 234 106 262T68 339Q74 355 85 361T109 367Q128 367 140 356T157 312L162 269Q165 268 168 268T176 268Q261 268 261 353Q261
429 181 429H159V466ZM485 89V148L670 391H744V161H802V89H744V0H650V89H485ZM541 161H650V307L541 161Z" />
<glyph unicode="&#xbf;" glyph-name="questiondown" horiz-adv-x="449" d="M277 513Q316 513 343 487T371 421Q371 383 344 356T277 328Q237 328 211 355T184 421Q184 460 210 486T277 513ZM58 52Q58 105 84 137T168 187L211 200Q235 207 243 214T252 241L254
269H311L323 233Q340 181 340 149Q340 122 321 107T261 82L185 65Q159 58 148 49T137 20Q137 8 142 -7L287 -29Q341 -37 359 -55T378 -102Q378 -157 303 -178Q259 -169 216 -147T137 -93T80 -24T58 52Z" />
<glyph unicode="&#xc0;" glyph-name="Agrave" horiz-adv-x="675" d="M290 504L207 249H371L290 504ZM9 0V54L90 66L293 658H396L601 59L662 52V0H353V52L430 62L389 191H188L148 66L224 54V0H9ZM404 734L376 695Q339 712 300 728T222 762Q186 779 175 797T164
829Q164 849 179 864T219 880Q236 880 252 872T293 840Q319 815 347 789T404 734Z" />
<glyph unicode="&#xc1;" glyph-name="Aacute" horiz-adv-x="675" d="M290 504L207 249H371L290 504ZM9 0V54L90 66L293 658H396L601 59L662 52V0H353V52L430 62L389 191H188L148 66L224 54V0H9ZM268 734Q296 761 324 788T379 840Q403 863 419 871T453 880Q477
880 492 865T508 829Q508 815 497 798T451 764Q412 746 373 729T296 695L268 734Z" />
<glyph unicode="&#xc2;" glyph-name="Acircumflex" horiz-adv-x="675" d="M290 504L207 249H371L290 504ZM9 0V54L90 66L293 658H396L601 59L662 52V0H353V52L430 62L389 191H188L148 66L224 54V0H9ZM374 868L524 717L494 681L340 766L186 681L156 717L306 868H374Z" />
<glyph unicode="&#xc3;" glyph-name="Atilde" horiz-adv-x="675" d="M290 504L207 249H371L290 504ZM9 0V54L90 66L293 658H396L601 59L662 52V0H353V52L430 62L389 191H188L148 66L224 54V0H9ZM157 720Q165 786 196 822T271 859Q295 859 313 851T348 831Q363
821 379 811T414 800Q437 800 452 816T478 860L520 843Q512 777 482 740T408 703Q386 703 367 711T331 729Q314 740 298 751T262 762Q240 762 225 746T199 703L157 720Z" />
<glyph unicode="&#xc4;" glyph-name="Adieresis" horiz-adv-x="675" d="M290 504L207 249H371L290 504ZM9 0V54L90 66L293 658H396L601 59L662 52V0H353V52L430 62L389 191H188L148 66L224 54V0H9ZM218 713Q190 713 168 731T145 782Q145 814 167 832T218 851Q248
851 270 833T292 782Q292 750 270 732T218 713ZM467 713Q439 713 417 731T394 782Q394 814 416 832T467 851Q497 851 519 833T541 782Q541 750 519 732T467 713Z" />
<glyph unicode="&#xc5;" glyph-name="Aring" horiz-adv-x="675" d="M290 504L207 249H371L290 504ZM9 0V54L90 66L293 658H396L601 59L662 52V0H353V52L430 62L389 191H188L148 66L224 54V0H9ZM343 701Q300 701 270 727T240 800Q240 845 270 872T343 899Q386 899
416 873T446 800Q446 754 416 728T343 701ZM343 747Q366 747 380 762T394 800Q394 823 380 837T343 852Q320 852 306 838T292 800Q292 777 306 762T343 747Z" />
<glyph unicode="&#xc6;" glyph-name="AE" horiz-adv-x="892" d="M259 302H408V588H396L259 302ZM9 0V54L75 63L333 592L239 603V657H841L848 485H764L744 601H576Q575 544 575 486T574 369H684L696 447H754V232H696L684 310H574Q574 241 574 179T576 56H764L784
172H868L861 0H332V54L406 62Q407 107 407 153T408 244H231L146 67L224 54V0H9Z" />
<glyph unicode="&#xc7;" glyph-name="Ccedilla" horiz-adv-x="622" d="M381 -19Q285 -19 206 19T81 135T34 329Q34 418 62 483T140 591T254 655T388 676Q445 676 492 664T584 626L588 471H512L483 602Q449 619 411 619Q358 619 313 589T239 495T211 328Q211 226
238 163T309 69T407 39Q428 39 449 44T491 58L519 186H595L591 32Q551 10 499 -4T381 -19ZM328 -89L342 4H394L388 -51Q441 -61 464 -83T488 -136Q488 -174 455 -199T353 -225Q329 -225 311 -222T275 -212L286 -166Q300 -170 313 -172T339 -174Q366 -174 378 -164T391
-136Q391 -93 328 -89Z" />
<glyph unicode="&#xc8;" glyph-name="Egrave" horiz-adv-x="595" d="M33 603V657H543L550 485H467L447 601H280Q279 544 279 486T278 369H386L398 447H456V232H398L386 310H278Q278 241 278 179T280 56H467L487 172H570L563 0H33V54L108 62Q110 123 110 185T110
310V347Q110 409 110 471T108 595L33 603ZM373 734L345 695Q308 712 269 728T191 762Q155 779 144 797T133 829Q133 849 148 864T188 880Q205 880 221 872T262 840Q288 815 316 789T373 734Z" />
<glyph unicode="&#xc9;" glyph-name="Eacute" horiz-adv-x="595" d="M33 603V657H543L550 485H467L447 601H280Q279 544 279 486T278 369H386L398 447H456V232H398L386 310H278Q278 241 278 179T280 56H467L487 172H570L563 0H33V54L108 62Q110 123 110 185T110
310V347Q110 409 110 471T108 595L33 603ZM240 734Q268 761 296 788T351 840Q375 863 391 871T425 880Q449 880 464 865T480 829Q480 815 469 798T423 764Q384 746 345 729T268 695L240 734Z" />
<glyph unicode="&#xca;" glyph-name="Ecircumflex" horiz-adv-x="595" d="M33 603V657H543L550 485H467L447 601H280Q279 544 279 486T278 369H386L398 447H456V232H398L386 310H278Q278 241 278 179T280 56H467L487 172H570L563 0H33V54L108 62Q110 123 110 185T110
310V347Q110 409 110 471T108 595L33 603ZM357 874L507 723L477 687L323 772L169 687L139 723L289 874H357Z" />
<glyph unicode="&#xcb;" glyph-name="Edieresis" horiz-adv-x="595" d="M33 603V657H543L550 485H467L447 601H280Q279 544 279 486T278 369H386L398 447H456V232H398L386 310H278Q278 241 278 179T280 56H467L487 172H570L563 0H33V54L108 62Q110 123 110 185T110
310V347Q110 409 110 471T108 595L33 603ZM186 713Q158 713 136 731T113 782Q113 814 135 832T186 851Q216 851 238 833T260 782Q260 750 238 732T186 713ZM435 713Q407 713 385 731T362 782Q362 814 384 832T435 851Q465 851 487 833T509 782Q509 750 487 732T435
713Z" />
<glyph unicode="&#xcc;" glyph-name="Igrave" horiz-adv-x="388" d="M33 603V657H355V603L280 595Q279 534 279 472T278 347V311Q278 249 278 187T280 62L355 54V0H33V54L108 62Q110 123 110 185T110 310V347Q110 409 110 471T108 595L33 603ZM269 734L241 695Q204
712 165 728T87 762Q51 779 40 797T29 829Q29 849 44 864T84 880Q101 880 117 872T158 840Q184 815 212 789T269 734Z" />
<glyph unicode="&#xcd;" glyph-name="Iacute" horiz-adv-x="388" d="M33 603V657H355V603L280 595Q279 534 279 472T278 347V311Q278 249 278 187T280 62L355 54V0H33V54L108 62Q110 123 110 185T110 310V347Q110 409 110 471T108 595L33 603ZM124 734Q152 761
180 788T235 840Q259 863 275 871T309 880Q333 880 348 865T364 829Q364 815 353 798T307 764Q268 746 229 729T152 695L124 734Z" />
<glyph unicode="&#xce;" glyph-name="Icircumflex" horiz-adv-x="388" d="M33 603V657H355V603L280 595Q279 534 279 472T278 347V311Q278 249 278 187T280 62L355 54V0H33V54L108 62Q110 123 110 185T110 310V347Q110 409 110 471T108 595L33 603ZM228 874L378
723L348 687L194 772L40 687L10 723L160 874H228Z" />
<glyph unicode="&#xcf;" glyph-name="Idieresis" horiz-adv-x="388" d="M98 713Q70 713 49 731T27 782Q27 814 48 832T98 851Q125 851 146 833T167 782Q167 750 146 732T98 713ZM292 713Q264 713 243 731T221 782Q221 814 242 832T292 851Q318 851 339 833T361
782Q361 750 340 732T292 713ZM33 603V657H355V603L280 595Q279 534 279 472T278 347V311Q278 249 278 187T280 62L355 54V0H33V54L108 62Q110 123 110 185T110 310V347Q110 409 110 471T108 595L33 603Z" />
<glyph unicode="&#xd0;" glyph-name="Eth" horiz-adv-x="705" d="M394 308H278Q278 240 278 179T280 58H313Q399 58 448 128T498 329Q498 461 449 530T314 599H280Q279 537 279 477T278 366H394V308ZM33 603V657H330Q437 657 513 618T630 505T671 330Q671 226
627 152T503 39T312 0H33V54L108 62Q110 123 110 185T110 308H33V366H110Q110 423 110 480T108 595L33 603Z" />
<glyph unicode="&#xd1;" glyph-name="Ntilde" horiz-adv-x="728" d="M436 603V657H699V603L614 590V-2H530L178 486V67L292 54V0H28V54L113 66V577L99 596L30 603V657H256L550 253V590L436 603ZM185 717Q193 783 224 819T299 856Q323 856 341 848T376 828Q391
818 407 808T442 797Q465 797 480 813T506 857L548 840Q540 774 510 737T436 700Q414 700 395 708T359 726Q342 737 326 748T290 759Q268 759 253 743T227 700L185 717Z" />
<glyph unicode="&#xd2;" glyph-name="Ograve" horiz-adv-x="702" d="M351 -19Q289 -19 232 2T131 67T60 176T34 329Q34 415 60 480T131 588T233 654T351 676Q413 676 469 655T571 590T642 482T668 329Q668 242 642 177T572 69T470 3T351 -19ZM351 39Q402 39 432
77T477 180T491 329Q491 412 477 477T433 580T351 618Q301 618 270 580T225 477T211 329Q211 246 225 181T270 77T351 39ZM426 737L398 698Q361 715 322 731T244 765Q208 782 197 800T186 832Q186 852 201 867T241 883Q258 883 274 875T315 843Q341 818 369 792T426
737Z" />
<glyph unicode="&#xd3;" glyph-name="Oacute" horiz-adv-x="702" d="M351 -19Q289 -19 232 2T131 67T60 176T34 329Q34 415 60 480T131 588T233 654T351 676Q413 676 469 655T571 590T642 482T668 329Q668 242 642 177T572 69T470 3T351 -19ZM351 39Q402 39 432
77T477 180T491 329Q491 412 477 477T433 580T351 618Q301 618 270 580T225 477T211 329Q211 246 225 181T270 77T351 39ZM281 737Q309 764 337 791T392 843Q416 866 432 874T466 883Q490 883 505 868T521 832Q521 818 510 801T464 767Q425 749 386 732T309 698L281
737Z" />
<glyph unicode="&#xd4;" glyph-name="Ocircumflex" horiz-adv-x="702" d="M351 -19Q289 -19 232 2T131 67T60 176T34 329Q34 415 60 480T131 588T233 654T351 676Q413 676 469 655T571 590T642 482T668 329Q668 242 642 177T572 69T470 3T351 -19ZM351 39Q402
39 432 77T477 180T491 329Q491 412 477 477T433 580T351 618Q301 618 270 580T225 477T211 329Q211 246 225 181T270 77T351 39ZM385 874L535 723L505 687L351 772L197 687L167 723L317 874H385Z" />
<glyph unicode="&#xd5;" glyph-name="Otilde" horiz-adv-x="702" d="M351 -19Q289 -19 232 2T131 67T60 176T34 329Q34 415 60 480T131 588T233 654T351 676Q413 676 469 655T571 590T642 482T668 329Q668 242 642 177T572 69T470 3T351 -19ZM351 39Q402 39 432
77T477 180T491 329Q491 412 477 477T433 580T351 618Q301 618 270 580T225 477T211 329Q211 246 225 181T270 77T351 39ZM170 727Q178 793 209 829T284 866Q308 866 326 858T361 838Q376 828 392 818T427 807Q450 807 465 823T491 867L533 850Q525 784 495 747T421
710Q399 710 380 718T344 736Q327 747 311 758T275 769Q253 769 238 753T212 710L170 727Z" />
<glyph unicode="&#xd6;" glyph-name="Odieresis" horiz-adv-x="702" d="M351 -19Q289 -19 232 2T131 67T60 176T34 329Q34 415 60 480T131 588T233 654T351 676Q413 676 469 655T571 590T642 482T668 329Q668 242 642 177T572 69T470 3T351 -19ZM351 39Q402 39
432 77T477 180T491 329Q491 412 477 477T433 580T351 618Q301 618 270 580T225 477T211 329Q211 246 225 181T270 77T351 39ZM226 713Q198 713 176 731T153 782Q153 814 175 832T226 851Q256 851 278 833T300 782Q300 750 278 732T226 713ZM475 713Q447 713 425
731T402 782Q402 814 424 832T475 851Q505 851 527 833T549 782Q549 750 527 732T475 713Z" />
<glyph unicode="&#xd7;" glyph-name="multiply" horiz-adv-x="544" d="M442 89L272 259L102 89L39 153L209 323L39 493L102 556L272 386L442 556L506 493L336 323L506 153L442 89Z" />
<glyph unicode="&#xd8;" glyph-name="Oslash" horiz-adv-x="702" d="M652 645L590 569Q626 526 647 466T668 329Q668 242 642 177T572 69T470 3T351 -19Q300 -19 252 -5T163 40L103 -34L48 12L110 89Q75 132 55 192T34 329Q34 415 60 480T131 588T233 654T351
676Q401 676 449 662T537 618L596 691L652 645ZM201 329Q201 265 210 212L468 532Q450 573 421 595T351 618Q297 618 264 580T216 477T201 329ZM501 329Q501 395 492 447L233 127Q251 86 280 63T351 39Q405 39 438 77T486 180T501 329Z" />
<glyph unicode="&#xd9;" glyph-name="Ugrave" horiz-adv-x="731" d="M466 603V657H705V603L622 596V283Q622 124 553 53T359 -19Q285 -19 227 7T136 92T103 248V357Q103 416 103 476T101 596L29 603V657H355V603L272 595Q271 536 271 477T271 357V280Q271 165
307 119T414 72Q481 72 519 121T557 283V595L466 603ZM470 731L442 692Q405 709 366 725T288 759Q252 776 241 794T230 826Q230 846 245 861T285 877Q302 877 318 869T359 837Q385 812 413 786T470 731Z" />
<glyph unicode="&#xda;" glyph-name="Uacute" horiz-adv-x="731" d="M466 603V657H705V603L622 596V283Q622 124 553 53T359 -19Q285 -19 227 7T136 92T103 248V357Q103 416 103 476T101 596L29 603V657H355V603L272 595Q271 536 271 477T271 357V280Q271 165
307 119T414 72Q481 72 519 121T557 283V595L466 603ZM320 731Q348 758 376 785T431 837Q455 860 471 868T505 877Q529 877 544 862T560 826Q560 812 549 795T503 761Q464 743 425 726T348 692L320 731Z" />
<glyph unicode="&#xdb;" glyph-name="Ucircumflex" horiz-adv-x="731" d="M466 603V657H705V603L622 596V283Q622 124 553 53T359 -19Q285 -19 227 7T136 92T103 248V357Q103 416 103 476T101 596L29 603V657H355V603L272 595Q271 536 271 477T271 357V280Q271
165 307 119T414 72Q481 72 519 121T557 283V595L466 603ZM441 871L591 720L561 684L407 769L253 684L223 720L373 871H441Z" />
<glyph unicode="&#xdc;" glyph-name="Udieresis" horiz-adv-x="731" d="M466 603V657H705V603L622 596V283Q622 124 553 53T359 -19Q285 -19 227 7T136 92T103 248V357Q103 416 103 476T101 596L29 603V657H355V603L272 595Q271 536 271 477T271 357V280Q271 165
307 119T414 72Q481 72 519 121T557 283V595L466 603ZM282 713Q254 713 232 731T209 782Q209 814 231 832T282 851Q312 851 334 833T356 782Q356 750 334 732T282 713ZM531 713Q503 713 481 731T458 782Q458 814 480 832T531 851Q561 851 583 833T605 782Q605 750
583 732T531 713Z" />
<glyph unicode="&#xdd;" glyph-name="Yacute" horiz-adv-x="624" d="M8 603V657H330V603L255 594L369 341L484 592L415 603V657H622V603L549 591L398 284Q398 208 398 158T399 63L486 54V0H143V54L229 63Q230 104 230 149T230 258L64 597L8 603ZM297 731Q325 758
353 785T408 837Q432 860 448 868T482 877Q506 877 521 862T537 826Q537 812 526 795T480 761Q441 743 402 726T325 692L297 731Z" />
<glyph unicode="&#xde;" glyph-name="Thorn" horiz-adv-x="622" d="M110 310V347Q110 409 110 471T108 595L33 603V657H360V603L276 594Q275 580 275 565T275 535H312Q470 535 537 484T604 343Q604 285 577 239T484 167T300 140H274Q275 121 275 102T276 63L360
54V0H33V54L108 62Q110 123 110 185T110 310ZM274 311Q274 283 274 255T274 198H305Q371 198 409 237T447 339Q447 405 413 441T306 477H274Q274 445 274 413T274 348V311Z" />
<glyph unicode="&#xdf;" glyph-name="germandbls" horiz-adv-x="659" d="M83 210V447Q83 530 102 576T158 659Q198 700 256 718T375 736Q479 736 535 693T591 588Q591 548 571 521T503 466Q457 440 444 425T431 396Q431 385 437 375T463 352T526 318Q590 285 618
247T646 149Q646 78 591 32T436 -15Q399 -15 363 -8T295 16L298 141H376L394 42Q402 41 411 41T429 40Q469 40 490 56T512 104Q512 134 495 153T428 194Q374 218 342 247T309 334Q309 376 332 403T397 465Q432 493 443 519T455 576Q455 623 430 653T361 684Q313
684 287 658Q270 641 261 614T247 542T243 425V210Q243 105 246 0H26V47L81 58Q82 96 82 134T83 210Z" />
<glyph unicode="&#xe0;" glyph-name="agrave" horiz-adv-x="531" d="M415 -14Q328 -14 305 58Q273 24 244 5T162 -15Q104 -15 68 18T31 113Q31 149 47 178T105 232T224 279Q239 284 259 289T300 299V332Q300 399 284 423T219 447Q212 447 206 447T192 446L187
402Q186 353 165 331T114 309Q59 309 47 359Q51 421 110 460T277 499Q373 499 414 455T456 310V86Q456 57 478 57Q486 57 493 61T508 79L535 61Q517 21 489 4T415 -14ZM179 139Q179 102 196 84T239 66Q250 66 262 71T300 94V256Q287 252 275 248T253 239Q219 225
199 200T179 139ZM324 584L286 553Q267 568 243 586T175 637Q146 660 129 679T112 721Q112 747 129 761T167 776Q192 776 208 762T245 714Q277 662 294 635T324 584Z" />
<glyph unicode="&#xe1;" glyph-name="aacute" horiz-adv-x="531" d="M415 -14Q328 -14 305 58Q273 24 244 5T162 -15Q104 -15 68 18T31 113Q31 149 47 178T105 232T224 279Q239 284 259 289T300 299V332Q300 399 284 423T219 447Q212 447 206 447T192 446L187
402Q186 353 165 331T114 309Q59 309 47 359Q51 421 110 460T277 499Q373 499 414 455T456 310V86Q456 57 478 57Q486 57 493 61T508 79L535 61Q517 21 489 4T415 -14ZM179 139Q179 102 196 84T239 66Q250 66 262 71T300 94V256Q287 252 275 248T253 239Q219 225
199 200T179 139ZM206 584Q219 607 235 634T284 713Q304 747 321 761T363 776Q383 776 400 762T417 721Q417 699 401 679T354 637Q311 604 288 586T244 553L206 584Z" />
<glyph unicode="&#xe2;" glyph-name="acircumflex" horiz-adv-x="531" d="M415 -14Q328 -14 305 58Q273 24 244 5T162 -15Q104 -15 68 18T31 113Q31 149 47 178T105 232T224 279Q239 284 259 289T300 299V332Q300 399 284 423T219 447Q212 447 206 447T192 446L187
402Q186 353 165 331T114 309Q59 309 47 359Q51 421 110 460T277 499Q373 499 414 455T456 310V86Q456 57 478 57Q486 57 493 61T508 79L535 61Q517 21 489 4T415 -14ZM179 139Q179 102 196 84T239 66Q250 66 262 71T300 94V256Q287 252 275 248T253 239Q219 225
199 200T179 139ZM406 545L272 648L138 545L102 578L240 753H304L442 578L406 545Z" />
<glyph unicode="&#xe3;" glyph-name="atilde" horiz-adv-x="531" d="M415 -14Q328 -14 305 58Q273 24 244 5T162 -15Q104 -15 68 18T31 113Q31 149 47 178T105 232T224 279Q239 284 259 289T300 299V332Q300 399 284 423T219 447Q212 447 206 447T192 446L187
402Q186 353 165 331T114 309Q59 309 47 359Q51 421 110 460T277 499Q373 499 414 455T456 310V86Q456 57 478 57Q486 57 493 61T508 79L535 61Q517 21 489 4T415 -14ZM179 139Q179 102 196 84T239 66Q250 66 262 71T300 94V256Q287 252 275 248T253 239Q219 225
199 200T179 139ZM85 588Q93 655 123 691T197 727Q220 727 238 719T271 700Q288 688 302 679T336 669Q358 669 373 684T398 728L439 711Q431 645 401 608T329 571Q308 571 289 579T253 598Q238 609 223 619T187 630Q166 630 151 615T126 571L85 588Z" />
<glyph unicode="&#xe4;" glyph-name="adieresis" horiz-adv-x="531" d="M415 -14Q328 -14 305 58Q273 24 244 5T162 -15Q104 -15 68 18T31 113Q31 149 47 178T105 232T224 279Q239 284 259 289T300 299V332Q300 399 284 423T219 447Q212 447 206 447T192 446L187
402Q186 353 165 331T114 309Q59 309 47 359Q51 421 110 460T277 499Q373 499 414 455T456 310V86Q456 57 478 57Q486 57 493 61T508 79L535 61Q517 21 489 4T415 -14ZM179 139Q179 102 196 84T239 66Q250 66 262 71T300 94V256Q287 252 275 248T253 239Q219 225
199 200T179 139ZM144 575Q114 575 91 594T67 648Q67 682 90 701T144 721Q176 721 198 702T221 648Q221 614 199 595T144 575ZM384 575Q354 575 331 594T307 648Q307 682 330 701T384 721Q415 721 438 702T461 648Q461 614 438 595T384 575Z" />
<glyph unicode="&#xe5;" glyph-name="aring" horiz-adv-x="531" d="M415 -14Q328 -14 305 58Q273 24 244 5T162 -15Q104 -15 68 18T31 113Q31 149 47 178T105 232T224 279Q239 284 259 289T300 299V332Q300 399 284 423T219 447Q212 447 206 447T192 446L187 402Q186
353 165 331T114 309Q59 309 47 359Q51 421 110 460T277 499Q373 499 414 455T456 310V86Q456 57 478 57Q486 57 493 61T508 79L535 61Q517 21 489 4T415 -14ZM179 139Q179 102 196 84T239 66Q250 66 262 71T300 94V256Q287 252 275 248T253 239Q219 225 199 200T179
139ZM266 604Q295 604 310 624T325 668Q325 692 310 711T266 731Q238 731 223 712T207 668Q207 645 222 625T266 604ZM266 553Q216 553 181 584T145 668Q145 721 180 751T266 782Q316 782 351 753T387 668Q387 613 352 583T266 553Z" />
<glyph unicode="&#xe6;" glyph-name="ae" horiz-adv-x="789" d="M544 447Q516 447 493 413T466 286H552Q588 286 600 300T612 349Q612 399 592 423T544 447ZM546 -15Q484 -15 433 8T349 75Q306 23 264 4T170 -15Q106 -15 69 18T31 113Q31 149 47 177T105 231T224
278Q240 283 259 288T300 299V332Q300 398 284 422T220 447Q213 447 207 447T192 446L188 401Q187 352 165 330T114 307Q59 307 47 358Q51 420 110 459T277 499Q370 499 412 447Q443 474 480 486T554 499Q621 499 667 471T737 396T761 287Q761 271 760 259T756
234H466Q471 155 509 118T600 80Q641 80 670 95T722 134L756 102Q725 43 672 14T546 -15ZM179 140Q179 100 198 83T242 66Q264 66 280 74T327 110Q313 138 305 171T297 242Q297 245 297 248T297 254Q284 250 273 247T253 238Q219 224 199 200T179 140Z" />
<glyph unicode="&#xe7;" glyph-name="ccedilla" horiz-adv-x="513" d="M277 -15Q209 -15 153 13T62 99T28 240Q28 322 64 380T162 468T298 499Q351 499 392 479T457 426T485 353Q469 301 417 301Q388 301 366 322T341 396L334 446Q330 447 325 447T315 447Q287
447 259 428T213 368T195 259Q195 173 233 127T335 80Q371 80 398 95T447 136L482 105Q453 44 401 15T277 -15ZM232 -89L246 4H298L292 -51Q345 -61 368 -83T392 -136Q392 -174 359 -199T257 -225Q233 -225 215 -222T179 -212L190 -166Q204 -170 217 -172T243 -174Q270
-174 282 -164T295 -136Q295 -93 232 -89Z" />
<glyph unicode="&#xe8;" glyph-name="egrave" horiz-adv-x="521" d="M276 447Q248 447 225 413T198 286H283Q319 286 331 300T344 349Q344 399 324 423T276 447ZM278 -15Q205 -15 149 15T61 103T29 241Q29 325 66 382T163 469T286 499Q352 499 398 471T469 396T493
287Q493 258 487 234H198Q203 155 241 118T332 80Q373 80 402 95T453 134L488 102Q457 43 404 14T278 -15ZM340 584L302 553Q283 568 259 586T191 637Q162 660 145 679T128 721Q128 747 145 761T183 776Q208 776 224 762T261 714Q293 662 310 635T340 584Z" />
<glyph unicode="&#xe9;" glyph-name="eacute" horiz-adv-x="521" d="M276 447Q248 447 225 413T198 286H283Q319 286 331 300T344 349Q344 399 324 423T276 447ZM278 -15Q205 -15 149 15T61 103T29 241Q29 325 66 382T163 469T286 499Q352 499 398 471T469 396T493
287Q493 258 487 234H198Q203 155 241 118T332 80Q373 80 402 95T453 134L488 102Q457 43 404 14T278 -15ZM217 584Q230 607 246 634T295 713Q315 747 332 761T374 776Q394 776 411 762T428 721Q428 699 412 679T365 637Q322 604 299 586T255 553L217 584Z" />
<glyph unicode="&#xea;" glyph-name="ecircumflex" horiz-adv-x="521" d="M276 447Q248 447 225 413T198 286H283Q319 286 331 300T344 349Q344 399 324 423T276 447ZM278 -15Q205 -15 149 15T61 103T29 241Q29 325 66 382T163 469T286 499Q352 499 398 471T469
396T493 287Q493 258 487 234H198Q203 155 241 118T332 80Q373 80 402 95T453 134L488 102Q457 43 404 14T278 -15ZM413 545L279 648L145 545L109 578L247 753H311L449 578L413 545Z" />
<glyph unicode="&#xeb;" glyph-name="edieresis" horiz-adv-x="521" d="M276 447Q248 447 225 413T198 286H283Q319 286 331 300T344 349Q344 399 324 423T276 447ZM278 -15Q205 -15 149 15T61 103T29 241Q29 325 66 382T163 469T286 499Q352 499 398 471T469
396T493 287Q493 258 487 234H198Q203 155 241 118T332 80Q373 80 402 95T453 134L488 102Q457 43 404 14T278 -15ZM163 575Q133 575 110 594T86 648Q86 682 109 701T163 721Q195 721 217 702T240 648Q240 614 218 595T163 575ZM403 575Q373 575 350 594T326 648Q326
682 349 701T403 721Q434 721 457 702T480 648Q480 614 457 595T403 575Z" />
<glyph unicode="&#xec;" glyph-name="igrave" horiz-adv-x="316" d="M30 0V47L84 59Q85 95 85 137T85 210V258Q85 299 85 326T82 384L21 393V432L230 499L247 488L244 343V210Q244 179 244 137T245 57L295 47V0H30ZM221 584L183 553Q164 568 140 586T72 637Q43
660 26 679T9 721Q9 747 26 761T64 776Q89 776 105 762T142 714Q174 662 191 635T221 584Z" />
<glyph unicode="&#xed;" glyph-name="iacute" horiz-adv-x="316" d="M30 0V47L84 59Q85 95 85 137T85 210V258Q85 299 85 326T82 384L21 393V432L230 499L247 488L244 343V210Q244 179 244 137T245 57L295 47V0H30ZM112 584Q125 607 141 634T190 713Q210 747 227
761T269 776Q289 776 306 762T323 721Q323 699 307 679T260 637Q217 604 194 586T150 553L112 584Z" />
<glyph unicode="&#xee;" glyph-name="icircumflex" horiz-adv-x="316" d="M30 0V47L84 59Q85 95 85 137T85 210V258Q85 299 85 326T82 384L21 393V432L230 499L247 488L244 343V210Q244 179 244 137T245 57L295 47V0H30ZM300 545L166 648L32 545L-4 578L134 753H198L336
578L300 545Z" />
<glyph unicode="&#xef;" glyph-name="idieresis" horiz-adv-x="316" d="M63 575Q33 575 10 594T-14 648Q-14 682 9 701T63 721Q94 721 117 702T140 648Q140 614 117 595T63 575ZM261 575Q231 575 208 594T184 648Q184 682 207 701T261 721Q292 721 315 702T338
648Q338 614 315 595T261 575ZM30 0V47L84 59Q85 95 85 137T85 210V258Q85 299 85 326T82 384L21 393V432L230 499L247 488L244 343V210Q244 179 244 137T245 57L295 47V0H30Z" />
<glyph unicode="&#xf0;" glyph-name="eth" horiz-adv-x="554" d="M268 -15Q210 -15 155 13T65 97T29 239Q29 317 63 371T153 454T271 483Q287 483 302 480T330 470Q318 501 304 526T272 572L132 506L105 561L226 618Q204 636 177 652T117 684L143 736Q189 722
231 703T311 658L468 732L494 677L365 616Q439 552 481 467T524 279Q524 177 489 112T395 16T268 -15ZM279 37Q316 37 338 88T361 240Q361 333 340 382T279 432Q242 432 220 383T198 233Q198 137 219 87T279 37Z" />
<glyph unicode="&#xf1;" glyph-name="ntilde" horiz-adv-x="616" d="M28 0V47L82 59Q83 95 83 137T83 210V268Q83 309 83 331T80 384L19 393V432L216 499L234 488L240 416Q279 462 317 480T400 499Q465 499 504 456T544 327V210Q544 177 544 136T545 57L595 47V0H331V47L383
58Q384 95 384 136T384 210V315Q384 363 371 382T329 402Q290 402 243 366V210Q243 179 243 137T244 57L291 47V0H28ZM131 588Q139 655 169 691T243 727Q266 727 284 719T317 700Q334 688 348 679T382 669Q404 669 419 684T444 728L485 711Q477 645 447 608T375
571Q354 571 335 579T299 598Q284 609 269 619T233 630Q212 630 197 615T172 571L131 588Z" />
<glyph unicode="&#xf2;" glyph-name="ograve" horiz-adv-x="565" d="M283 -15Q205 -15 148 17T60 108T29 244Q29 321 62 378T154 467T283 499Q354 499 411 468T503 380T537 244Q537 166 506 108T418 18T283 -15ZM283 37Q325 37 346 86T367 241Q367 348 346 397T283
446Q240 446 219 397T198 241Q198 135 219 86T283 37ZM338 584L300 553Q281 568 257 586T189 637Q160 660 143 679T126 721Q126 747 143 761T181 776Q206 776 222 762T259 714Q291 662 308 635T338 584Z" />
<glyph unicode="&#xf3;" glyph-name="oacute" horiz-adv-x="565" d="M283 -15Q205 -15 148 17T60 108T29 244Q29 321 62 378T154 467T283 499Q354 499 411 468T503 380T537 244Q537 166 506 108T418 18T283 -15ZM283 37Q325 37 346 86T367 241Q367 348 346 397T283
446Q240 446 219 397T198 241Q198 135 219 86T283 37ZM237 584Q250 607 266 634T315 713Q335 747 352 761T394 776Q414 776 431 762T448 721Q448 699 432 679T385 637Q342 604 319 586T275 553L237 584Z" />
<glyph unicode="&#xf4;" glyph-name="ocircumflex" horiz-adv-x="565" d="M283 -15Q205 -15 148 17T60 108T29 244Q29 321 62 378T154 467T283 499Q354 499 411 468T503 380T537 244Q537 166 506 108T418 18T283 -15ZM283 37Q325 37 346 86T367 241Q367 348 346
397T283 446Q240 446 219 397T198 241Q198 135 219 86T283 37ZM417 545L283 648L149 545L113 578L251 753H315L453 578L417 545Z" />
<glyph unicode="&#xf5;" glyph-name="otilde" horiz-adv-x="565" d="M283 -15Q205 -15 148 17T60 108T29 244Q29 321 62 378T154 467T283 499Q354 499 411 468T503 380T537 244Q537 166 506 108T418 18T283 -15ZM283 37Q325 37 346 86T367 241Q367 348 346 397T283
446Q240 446 219 397T198 241Q198 135 219 86T283 37ZM106 588Q114 655 144 691T218 727Q241 727 259 719T292 700Q309 688 323 679T357 669Q379 669 394 684T419 728L460 711Q452 645 422 608T350 571Q329 571 310 579T274 598Q259 609 244 619T208 630Q187 630
172 615T147 571L106 588Z" />
<glyph unicode="&#xf6;" glyph-name="odieresis" horiz-adv-x="565" d="M283 -15Q205 -15 148 17T60 108T29 244Q29 321 62 378T154 467T283 499Q354 499 411 468T503 380T537 244Q537 166 506 108T418 18T283 -15ZM283 37Q325 37 346 86T367 241Q367 348 346
397T283 446Q240 446 219 397T198 241Q198 135 219 86T283 37ZM163 575Q133 575 110 594T86 648Q86 682 109 701T163 721Q195 721 217 702T240 648Q240 614 218 595T163 575ZM403 575Q373 575 350 594T326 648Q326 682 349 701T403 721Q434 721 457 702T480 648Q480
614 457 595T403 575Z" />
<glyph unicode="&#xf7;" glyph-name="divide" horiz-adv-x="544" d="M272 66Q241 66 220 86T198 136Q198 166 219 186T272 207Q304 207 325 187T346 136Q346 106 325 86T272 66ZM272 438Q241 438 220 458T198 509Q198 539 219 559T272 580Q304 580 325 560T346
509Q346 479 325 459T272 438ZM515 279H30V367H515V279Z" />
<glyph unicode="&#xf8;" glyph-name="oslash" horiz-adv-x="565" d="M511 481L467 426Q500 393 518 347T537 244Q537 166 506 108T418 18T283 -15Q243 -15 208 -6T143 20L100 -34L53 3L97 58Q29 128 29 244Q29 321 62 378T154 467T283 499Q359 499 420 463L465
519L511 481ZM190 241Q190 224 190 208T192 178L358 385Q334 446 283 446Q236 446 213 397T190 241ZM283 37Q330 37 353 86T376 241Q376 278 373 308L207 100Q229 37 283 37Z" />
<glyph unicode="&#xf9;" glyph-name="ugrave" horiz-adv-x="607" d="M382 -11L376 73Q344 31 303 8T214 -15Q150 -15 111 25T73 165L77 409L19 422V464L223 493L239 482L234 341V164Q234 118 248 100T288 82Q309 82 331 95T374 127L378 410L323 422V461L522 493L538
482L535 341V57L587 46V-1L382 -11ZM361 584L323 553Q304 568 280 586T212 637Q183 660 166 679T149 721Q149 747 166 761T204 776Q229 776 245 762T282 714Q314 662 331 635T361 584Z" />
<glyph unicode="&#xfa;" glyph-name="uacute" horiz-adv-x="607" d="M382 -11L376 73Q344 31 303 8T214 -15Q150 -15 111 25T73 165L77 409L19 422V464L223 493L239 482L234 341V164Q234 118 248 100T288 82Q309 82 331 95T374 127L378 410L323 422V461L522 493L538
482L535 341V57L587 46V-1L382 -11ZM232 584Q245 607 261 634T310 713Q330 747 347 761T389 776Q409 776 426 762T443 721Q443 699 427 679T380 637Q337 604 314 586T270 553L232 584Z" />
<glyph unicode="&#xfb;" glyph-name="ucircumflex" horiz-adv-x="607" d="M382 -11L376 73Q344 31 303 8T214 -15Q150 -15 111 25T73 165L77 409L19 422V464L223 493L239 482L234 341V164Q234 118 248 100T288 82Q309 82 331 95T374 127L378 410L323 422V461L522
493L538 482L535 341V57L587 46V-1L382 -11ZM442 545L308 648L174 545L138 578L276 753H340L478 578L442 545Z" />
<glyph unicode="&#xfc;" glyph-name="udieresis" horiz-adv-x="607" d="M382 -11L376 73Q344 31 303 8T214 -15Q150 -15 111 25T73 165L77 409L19 422V464L223 493L239 482L234 341V164Q234 118 248 100T288 82Q309 82 331 95T374 127L378 410L323 422V461L522
493L538 482L535 341V57L587 46V-1L382 -11ZM190 575Q160 575 137 594T113 648Q113 682 136 701T190 721Q222 721 244 702T267 648Q267 614 245 595T190 575ZM430 575Q400 575 377 594T353 648Q353 682 376 701T430 721Q461 721 484 702T507 648Q507 614 484 595T430
575Z" />
<glyph unicode="&#xfd;" glyph-name="yacute" horiz-adv-x="534" d="M342 440V483H530V440L473 430L291 -41Q254 -137 214 -187T104 -237Q64 -237 34 -215T1 -162Q7 -129 30 -113T83 -97Q103 -97 126 -105T169 -144L176 -154Q220 -107 244 -39V-38L45 432L-2 440V483H282V440L215
428L313 158L408 428L342 440ZM265 584Q278 607 294 634T343 713Q363 747 380 761T422 776Q442 776 459 762T476 721Q476 699 460 679T413 637Q370 604 347 586T303 553L265 584Z" />
<glyph unicode="&#xfe;" glyph-name="thorn" horiz-adv-x="603" d="M405 242Q405 331 378 371T305 412Q287 412 270 404T238 384V95Q253 82 269 76T304 69Q348 69 376 111T405 242ZM301 -180V-227H21V-180L76 -168Q77 -121 77 -81T78 -3V631L16 639V681L222 726L239
716L235 576V436Q297 499 378 499Q433 499 477 470T548 385T574 245Q574 165 544 107T466 17T361 -15Q321 -15 291 -2T235 38V-3Q235 -39 235 -79T237 -165L301 -180Z" />
<glyph unicode="&#xff;" glyph-name="ydieresis" horiz-adv-x="534" d="M342 440V483H530V440L473 430L291 -41Q254 -137 214 -187T104 -237Q64 -237 34 -215T1 -162Q7 -129 30 -113T83 -97Q103 -97 126 -105T169 -144L176 -154Q220 -107 244 -39V-38L45 432L-2
440V483H282V440L215 428L313 158L408 428L342 440ZM196 575Q166 575 143 594T119 648Q119 682 142 701T196 721Q228 721 250 702T273 648Q273 614 251 595T196 575ZM436 575Q406 575 383 594T359 648Q359 682 382 701T436 721Q467 721 490 702T513 648Q513 614
490 595T436 575Z" />
<glyph unicode="&#x2013;" glyph-name="endash" horiz-adv-x="539" d="M40 209V299H499V209H40Z" />
<glyph unicode="&#x2014;" glyph-name="emdash" horiz-adv-x="839" d="M40 209V299H799V209H40Z" />
<glyph unicode="&#x2018;" glyph-name="quoteleft" horiz-adv-x="216" d="M24 535Q24 600 67 653T179 736L197 698Q173 684 149 661T106 606L150 575Q173 558 181 540T189 501Q189 467 166 446T112 425Q90 425 74 433T46 452Q24 489 24 535Z" />
<glyph unicode="&#x2019;" glyph-name="quoteright" horiz-adv-x="216" d="M192 627Q192 562 149 509T37 426L19 464Q43 478 67 501T110 556L66 587Q44 604 36 622T27 661Q27 695 50 716T104 737Q126 737 142 729T170 710Q192 673 192 627Z" />
<glyph unicode="&#x201a;" glyph-name="quotesinglbase" horiz-adv-x="216" d="M192 49Q192 -16 149 -69T37 -152L19 -114Q43 -100 67 -77T110 -22L66 9Q44 26 36 44T27 83Q27 117 50 138T104 159Q126 159 142 151T170 132Q192 95 192 49Z" />
<glyph unicode="&#x201c;" glyph-name="quotedblleft" horiz-adv-x="430" d="M24 535Q24 600 67 653T179 736L197 698Q173 684 149 661T106 606L150 575Q173 558 181 540T189 501Q189 467 166 446T112 425Q90 425 74 433T46 452Q24 489 24 535ZM238 535Q238 600
281 653T393 736L411 698Q387 684 363 661T320 606L364 575Q387 558 395 540T403 501Q403 467 380 446T326 425Q304 425 288 433T260 452Q238 489 238 535Z" />
<glyph unicode="&#x201d;" glyph-name="quotedblright" horiz-adv-x="430" d="M192 627Q192 562 149 509T37 426L19 464Q43 478 67 501T110 556L66 587Q44 604 36 622T27 661Q27 695 50 716T104 737Q126 737 142 729T170 710Q192 673 192 627ZM406 627Q406 562
363 509T251 426L233 464Q257 478 281 501T324 556L280 587Q258 604 250 622T241 661Q241 695 264 716T318 737Q340 737 356 729T384 710Q406 673 406 627Z" />
<glyph unicode="&#x201e;" glyph-name="quotedblbase" horiz-adv-x="430" d="M192 49Q192 -16 149 -69T37 -152L19 -114Q43 -100 67 -77T110 -22L66 9Q44 26 36 44T27 83Q27 117 50 138T104 159Q126 159 142 151T170 132Q192 95 192 49ZM406 49Q406 -16 363 -69T251
-152L233 -114Q257 -100 281 -77T324 -22L280 9Q258 26 250 44T241 83Q241 117 264 138T318 159Q340 159 356 151T384 132Q406 95 406 49Z" />
<glyph unicode="&#x2022;" glyph-name="bullet" horiz-adv-x="330" d="M165 189Q129 189 99 205T51 252T33 323Q33 384 72 420T165 456Q219 456 258 420T297 323Q297 283 279 253T231 206T165 189Z" />
<glyph unicode="&#x2039;" glyph-name="guilsinglleft" horiz-adv-x="334" d="M260 30L26 220V285L260 475L295 439L141 252L295 66L260 30Z" />
<glyph unicode="&#x203a;" glyph-name="guilsinglright" horiz-adv-x="334" d="M74 475L308 285V220L74 30L39 66L193 252L39 439L74 475Z" />
</font>
</defs>
</svg>
