<?xml version="1.0" standalone="no"?>
<!DOCTYPE svg PUBLIC "-//W3C//DTD SVG 1.1//EN" "http://www.w3.org/Graphics/SVG/1.1/DTD/svg11.dtd" >
<svg xmlns="http://www.w3.org/2000/svg">
<defs>
  <font id="icon" horiz-adv-x="20">
    <font-face font-family="icon"
      units-per-em="20" ascent="20"
      descent="0" />
    <missing-glyph horiz-adv-x="0" />
    <glyph glyph-name="arrow-down"
      unicode="&#xEA01;"
      horiz-adv-x="20" d="M10.5 5.9745L14.13 10L14.87 9.34L10 3.92L5.13 9.34L5.87 10L9.5 5.9745V16H10.5V5.9745z" />
    <glyph glyph-name="arrow-left"
      unicode="&#xEA02;"
      horiz-adv-x="20" d="M6.15661 10.98233L10.20776 14.62835L9.53878 15.37165L4.12584 10.5L9.53878 5.6284L10.20776 6.3716L6.19579 9.9824L15.87416 10L15.87236 11L6.15661 10.98233z" />
    <glyph glyph-name="arrow-right"
      unicode="&#xEA03;"
      horiz-adv-x="20" d="M13.8233 11L9.79181 14.62835L10.4608 15.37165L15.8737 10.5L10.4608 5.6284L9.79181 6.3716L13.8233 10H4.1263V11H13.8233z" />
    <glyph glyph-name="arrow-up"
      unicode="&#xEA04;"
      horiz-adv-x="20" d="M14.87 10.6L10 16L5.13 10.6L5.87 9.92L9.5 13.9543V4H10.5V13.95432L14.13 9.92L14.87 10.6z" />
    <glyph glyph-name="barchart"
      unicode="&#xEA05;"
      horiz-adv-x="20" d="M2.75 2.5L2.75 18H1.75L1.75 1.5H18.25V2.5L2.75 2.5zM6.75 10V4H5.75V10H6.75zM15.75 10V4H14.75V10H15.75zM12.75 13V4H11.75V13H12.75zM9.75 14V4H8.75V14H9.75z" />
    <glyph glyph-name="book"
      unicode="&#xEA06;"
      horiz-adv-x="20" d="M13 14H7V13H13V14zM7 11H13V10H7V11zM15.5 17.5H6C5.17157 17.5 4.5 16.82843 4.5 16V4C4.5 3.1716 5.17157 2.5 6 2.5H15.5V17.5zM14.5 6.5L14.5 16.5L6 16.5C5.72386 16.5 5.5 16.27614 5.5 16L5.5 6.4146C5.65639 6.4699 5.82468 6.5 6 6.5H14.5zM14.5 5.5H6C5.72406 5.5 5.50033 5.2765 5.5 5.0006L5.5 4C5.5 3.7239 5.72386 3.5 6 3.5H14.5V5.5z" />
    <glyph glyph-name="boxplot"
      unicode="&#xEA07;"
      horiz-adv-x="20" d="M2.75 2.5L2.75 18H1.75L1.75 1.5H18.25V2.5L2.75 2.5zM8.25 13.5V15.5H7.25V13.5H5.75V6.5H7.25V5H8.25V6.5H9.75V13.5H8.25zM6.75 12.5V10.5H8.75V12.5H6.75zM6.75 7.5V9.5H8.75V7.5H6.75zM15.25 16.5V18H14.25V16.5H12.75V5.5H14.25V4H15.25V5.5H16.75V16.5H15.25zM13.75 15.5V12.5H15.75V15.5H13.75zM13.75 6.5V11.5H15.75V6.5H13.75z" />
    <glyph glyph-name="check"
      unicode="&#xEA08;"
      horiz-adv-x="20" d="M16.888715 15.68338L7.497345 4.2051L3.111285 9.6877L3.892145 10.31235L7.506085 5.7949L16.114715 16.31662L16.888715 15.68338z" />
    <glyph glyph-name="chevron-double-left"
      unicode="&#xEA09;"
      horiz-adv-x="20" d="M10.54626 13.63584L6.91038 10L10.54626 6.3642L9.8179 5.6358L5.45374 10L9.8179 14.36416L10.54626 13.63584zM14.54626 13.63584L10.91036 10L14.54626 6.3642L13.81786 5.6358L9.45374 10L13.81786 14.36416L14.54626 13.63584z" />
    <glyph glyph-name="chevron-double-right"
      unicode="&#xEA0A;"
      horiz-adv-x="20" d="M5.453765 13.63584L9.089605 10L5.453765 6.3642L6.182085 5.6358L10.546235 10L6.182085 14.36416L5.453765 13.63584zM9.453775 13.63584L13.089635 10L9.453775 6.3642L10.182135 5.6358L14.546235 10L10.182135 14.36416L9.453775 13.63584z" />
    <glyph glyph-name="chevron-down"
      unicode="&#xEA0B;"
      horiz-adv-x="20" d="M9.99998 7.7283L4.36414 13.36416L3.63582 12.63584L9.99998 6.2717L16.36418 12.63584L15.63578 13.36416L9.99998 7.7283z" />
    <glyph glyph-name="chevron-left"
      unicode="&#xEA0C;"
      horiz-adv-x="20" d="M7.91038 10L13.54626 15.63584L12.81786 16.36416L6.45374 10L12.81786 3.6358L13.54626 4.3642L7.91038 10z" />
    <glyph glyph-name="chevron-right"
      unicode="&#xEA0D;"
      horiz-adv-x="20" d="M12.08963 10L6.45377 15.63584L7.18209 16.36416L13.54623 10L7.18209 3.6358L6.45377 4.3642L12.08963 10z" />
    <glyph glyph-name="chevron-up"
      unicode="&#xEA0E;"
      horiz-adv-x="20" d="M9.99998 13.72832L16.36418 7.3642L15.63578 6.6358L9.99998 12.27168L4.36414 6.6358L3.63582 7.3642L9.99998 13.72832z" />
    <glyph glyph-name="clock"
      unicode="&#xEA0F;"
      horiz-adv-x="20" d="M9.9999995 16H8.9999995V9H9.0701095L9.0561495 8.986L12.6290995 5.414L13.4068995 6.192L9.9999995 9.5979V16zM0.4500005 10C0.4500005 15.27432 4.7256795 19.550003 9.9999995 19.550003C15.2742995 19.550003 19.5499995 15.27432 19.5499995 10C19.5499995 4.7257 15.2742995 0.45 9.9999995 0.45C4.7256795 0.45 0.4500005 4.7257 0.4500005 10zM9.9999995 18.45C5.3331895 18.45 1.5499995 14.66681 1.5499995 10C1.5499995 5.3332 5.3331895 1.55 9.9999995 1.55C14.6667995 1.55 18.4499995 5.3332 18.4499995 10C18.4499995 14.66681 14.6667995 18.45 9.9999995 18.45z" />
    <glyph glyph-name="close"
      unicode="&#xEA10;"
      horiz-adv-x="20" d="M10.749485 10L16.374785 4.3748L15.625185 3.6252L9.999985 9.2505L4.374755 3.6252L3.625215 4.3748L9.250455 10L3.625215 15.62523L4.374755 16.37477L9.999985 10.74953L15.625185 16.37477L16.374785 15.62523L10.749485 10z" />
    <glyph glyph-name="code"
      unicode="&#xEA11;"
      horiz-adv-x="20" d="M6.44083 11.58621L3.39485 9.6782V9.6322L6.44083 7.7241V6.1954L2.00405 9.069V10.24138L6.44083 13.11494V11.58621zM13.55915 7.7241L16.60515 9.6322V9.6782L13.55915 11.58621V13.11494L17.99595 10.24138V9.069L13.55915 6.1954V7.7241zM12.60785 14L8.82623 4H7.41244L11.19405 14H12.60785z" />
    <glyph glyph-name="compile-circle"
      unicode="&#xEA12;"
      horiz-adv-x="20" d="M10 18.5C5.30558 18.5 1.5 14.69442 1.5 10C1.5 5.3056 5.30558 1.5 10 1.5C14.6944 1.5 18.5 5.3056 18.5 10C18.5 14.69442 14.6944 18.5 10 18.5zM0.5 10C0.5 15.24671 4.75329 19.5 10 19.5C15.2467 19.5 19.5 15.24671 19.5 10C19.5 4.7533 15.2467 0.5 10 0.5C4.75329 0.5 0.5 4.7533 0.5 10zM7.32927 7.6474L4 9.8037V10.68341L7.32927 12.83967V11.69254L5.04363 10.26078V10.22628L7.32927 8.7945V7.6474zM8.05835 6L10.896 13.5038H11.9569L9.11923 6H8.05835zM12.6707 7.6474V8.7945L14.9564 10.22628V10.26078L12.6707 11.69254V12.83967L16 10.68341V9.8037L12.6707 7.6474z" />
    <glyph glyph-name="darkmode"
      unicode="&#xEA13;"
      horiz-adv-x="20" d="M12.29885 16.43145C9.15804 15.97279 6.74625 13.26805 6.74625 10C6.74625 6.6907 9.21925 3.9591 12.41805 3.5523C12.23415 3.9541 12.00485 4.4932 11.77565 5.1312C11.26545 6.5515 10.74625 8.4873 10.74625 10.5C10.74625 12.51893 11.26825 14.21289 11.78825 15.40032C11.96485 15.80354 12.14165 16.14954 12.29885 16.43145zM13.64445 16.69764L13.64205 16.69445L13.62885 16.67629C13.61645 16.65924 13.59735 16.63239 13.57235 16.59607C13.52245 16.52343 13.44925 16.41304 13.36055 16.26763C13.18305 15.97662 12.94395 15.54655 12.70425 14.99918C12.22425 13.9031 11.74625 12.34706 11.74625 10.5C11.74625 8.6467 12.22705 6.8325 12.71685 5.4693C12.96075 4.7904 13.20445 4.2297 13.38675 3.84C13.47775 3.6452 13.55325 3.4935 13.60545 3.3914C13.63155 3.3404 13.65185 3.3018 13.66525 3.2764L13.68025 3.2485L13.68365 3.2422L13.68425 3.2411L14.09215 2.5H13.24625C9.10411 2.5 5.74625 5.8579 5.74625 10C5.74625 14.14214 9.10411 17.5 13.24625 17.5H14.25375L13.64445 16.69764z" />
    <glyph glyph-name="download"
      unicode="&#xEA14;"
      horiz-adv-x="20" d="M10.5 6.7071V17H9.5V6.7071L5.85355 10.35355L5.14645 9.6464L10 4.7929L14.8536 9.6464L14.1464 10.35355L10.5 6.7071zM3.5 3V2H16.5V3H3.5z" />
    <glyph glyph-name="end-left"
      unicode="&#xEA15;"
      horiz-adv-x="20" d="M9.54622 10L15.1821 15.63584L14.4537 16.36416L8.08958 10L14.4537 3.6358L15.1821 4.3642L9.54622 10zM5.8179 3L5.8179 17L4.8179 17L4.8179 3H5.8179z" />
    <glyph glyph-name="end-right"
      unicode="&#xEA16;"
      horiz-adv-x="20" d="M10.45378 10L4.81792 15.63584L5.54624 16.36416L11.91038 10L5.54624 3.6358L4.81792 4.3642L10.45378 10zM14.18208 3L14.18208 17L15.18208 17L15.18208 3H14.18208z" />
    <glyph glyph-name="funnel"
      unicode="&#xEA17;"
      horiz-adv-x="20" d="M2 17L4.86118 12L15.1395 12L18 17H2zM3.72439 16L5.4411 13H14.5596L16.2758 16L3.72439 16zM10 1.5L12.5 6H7.5L10 1.5zM10 3.5591L10.8005 5H9.19952L10 3.5591zM5 11L15 11L12.9165 7L7.07875 7L5 11zM7.68604 8L6.64667 10H13.3516L12.3099 8H7.68604z" />
    <glyph glyph-name="graph"
      unicode="&#xEA18;"
      horiz-adv-x="20" d="M5.6948216926633 16.00495C5.8084916926633 15.18436 5.2354116926633 14.427 4.4148116926633 14.31333C3.5942216926633 14.19967 2.8368616926633 14.77275 2.7232016926633 15.59335C2.6095316926633 16.41394 3.1826116926633 17.1713 4.0032116926633 17.28496C4.8238016926633 17.39863 5.5811616926633 16.82554 5.6948216926633 16.00495zM4.1404116926633 16.29442C3.8668816926633 16.25653 3.6758516926633 16.00408 3.7137416926633 15.73055C3.7516316926633 15.45702 4.0040816926633 15.26599 4.2776116926633 15.30388C4.5511416926633 15.34176 4.7421716926633 15.59422 4.7042816926633 15.86775C4.6663916926633 16.14128 4.4139416926633 16.33231 4.1404116926633 16.29442zM15.9967916926633 10.86985C16.8173916926633 10.98351 17.3904916926633 11.74088 17.2767916926633 12.56147C17.1631916926633 13.38206 16.4057916926633 13.95514 15.5851916926633 13.84148C14.7645916926633 13.72782 14.1914916926633 12.97046 14.3051916926633 12.14986C14.4188916926633 11.32927 15.1761916926633 10.75619 15.9967916926633 10.86985zM15.2956916926633 12.28707C15.2577916926633 12.5606 15.4488916926633 12.81305 15.7223916926633 12.85094C15.9958916926633 12.88883 16.2483916926633 12.6978 16.2862916926633 12.42427C16.3241916926633 12.15074 16.1330916926633 11.89828 15.8595916926633 11.8604C15.5860916926633 11.82251 15.3335916926633 12.01354 15.2956916926633 12.28707zM4.0567416926633 13.25419L5.0171616926633 6.3204L6.0077016926633 6.4576L5.0472916926633 13.3914L4.0567416926633 13.25419zM6.0612416926633 2.4268C6.8818316926633 2.5405 7.4549116926633 3.2979 7.3412516926633 4.1184C7.2275916926633 4.939 6.4702316926633 5.5121 5.6496316926633 5.3985C4.8290416926633 5.2848 4.2559616926633 4.5274 4.3696216926633 3.7068C4.4832816926633 2.8862 5.2406516926633 2.3132 6.0612416926633 2.4268zM5.3601716926633 3.844C5.3222816926633 4.1176 5.5133016926633 4.37 5.7868416926633 4.4079C6.0603716926633 4.4458 6.3128216926633 4.2548 6.3507116926633 3.9812C6.3886016926633 3.7077 6.1975716926633 3.4553 5.9240416926633 3.4174C5.6505116926633 3.3795 5.3980516926633 3.5705 5.3601716926633 3.844zM13.5274916926633 12.59337L6.6773116926633 14.67318L6.9678316926633 15.63005L13.8179916926633 13.55024L13.5274916926633 12.59337zM8.6015116926633 4.3828L14.4225916926633 9.732L13.7459916926633 10.46834L7.9248816926633 5.1191L8.6015116926633 4.3828z" />
    <glyph glyph-name="grid"
      unicode="&#xEA19;"
      horiz-adv-x="20" d="M5.5 17H2.5V14H5.5V17zM11.5 17H8.5V14H11.5V17zM2.5 11H5.5V8H2.5V11zM11.5 11H8.5V8H11.5V11zM14.5 11H17.5V8H14.5V11zM5.5 5H2.5V2H5.5V5zM8.5 5H11.5V2H8.5V5zM17.5 5H14.5V2H17.5V5zM14.5 17H17.5V14H14.5V17z" />
    <glyph glyph-name="heatmap"
      unicode="&#xEA1A;"
      horiz-adv-x="20" d="M3.5 16.5C3.5 15.94772 3.05228 15.5 2.5 15.5C1.94772 15.5 1.5 15.94772 1.5 16.5C1.5 17.05228 1.94772 17.5 2.5 17.5C3.05228 17.5 3.5 17.05228 3.5 16.5zM10.5 16.5C10.5 15.94772 10.0523 15.5 9.5 15.5C8.94772 15.5 8.5 15.94772 8.5 16.5C8.5 17.05228 8.94772 17.5 9.5 17.5C10.0523 17.5 10.5 17.05228 10.5 16.5zM18.5 16C18.5 14.61929 17.3807 13.5 16 13.5C14.6193 13.5 13.5 14.61929 13.5 16C13.5 17.38071 14.6193 18.5 16 18.5C17.3807 18.5 18.5 17.38071 18.5 16zM12.5 9.5C12.5 7.8431 11.1569 6.5 9.5 6.5C7.84315 6.5 6.5 7.8431 6.5 9.5C6.5 11.15685 7.84315 12.5 9.5 12.5C11.1569 12.5 12.5 11.15685 12.5 9.5zM17.5 9.5C17.5 8.9477 17.0523 8.5 16.5 8.5C15.9477 8.5 15.5 8.9477 15.5 9.5C15.5 10.05229 15.9477 10.5 16.5 10.5C17.0523 10.5 17.5 10.05229 17.5 9.5zM4.5 3C4.5 2.1716 3.82843 1.5 3 1.5C2.17157 1.5 1.5 2.1716 1.5 3C1.5 3.8284 2.17157 4.5 3 4.5C3.82843 4.5 4.5 3.8284 4.5 3zM10.5 3C10.5 2.1716 9.82843 1.5 9 1.5C8.17157 1.5 7.5 2.1716 7.5 3C7.5 3.8284 8.17157 4.5 9 4.5C9.82843 4.5 10.5 3.8284 10.5 3zM17.5 2.5C17.5 1.9477 17.0523 1.5 16.5 1.5C15.9477 1.5 15.5 1.9477 15.5 2.5C15.5 3.0523 15.9477 3.5 16.5 3.5C17.0523 3.5 17.5 3.0523 17.5 2.5z" />
    <glyph glyph-name="hint"
      unicode="&#xEA1B;"
      horiz-adv-x="20" d="M6.42783 14.88722C7.13482 15.81859 8.28474 16.5 10 16.5C11.7153 16.5 12.8652 15.81859 13.5722 14.88721C14.2621 13.97837 14.5 12.87354 14.5 12.03773C14.5 11.17418 14.2036 10.33968 13.8614 9.6465C13.519 8.9533 13.1108 8.3627 12.8502 7.9859L12.8461 7.9798C12.6324 7.6708 12.4417 7.1692 12.3001 6.7036C12.2317 6.4786 12.1786 6.2755 12.1427 6.1288C12.1248 6.0557 12.1113 5.9969 12.1024 5.957L12.0924 5.9119L12.0901 5.901L12.0896 5.8987L12.0069 5.5L7.99306 5.5L7.91045 5.8983L7.90988 5.901L7.90756 5.9119L7.89763 5.957C7.88868 5.9969 7.87515 6.0557 7.85725 6.1288C7.82137 6.2755 7.76833 6.4786 7.6999 6.7036C7.55827 7.1692 7.36756 7.6708 7.15393 7.9798L7.14976 7.9859C6.88925 8.3627 6.48096 8.9533 6.13863 9.6465C5.79637 10.33969 5.5 11.17418 5.5 12.03774C5.5 12.87354 5.73795 13.97837 6.42783 14.88722zM8.79511 6.5L11.2049 6.5C11.2411 6.6408 11.2874 6.8107 11.3434 6.9946C11.4887 7.4723 11.7154 8.1028 12.0235 8.5485C12.2849 8.9266 12.6567 9.4655 12.9647 10.0893C13.2746 10.71692 13.5 11.39186 13.5 12.03773C13.5 12.71137 13.3032 13.58766 12.7757 14.2826C12.2653 14.95499 11.4152 15.5 10 15.5C8.58483 15.5 7.73475 14.95499 7.22434 14.2826C6.69684 13.58766 6.5 12.71137 6.5 12.03774C6.5 11.39186 6.72537 10.71692 7.03528 10.0893C7.34329 9.4655 7.71508 8.9266 7.97651 8.5485C8.28461 8.1028 8.5113 7.4723 8.65662 6.9946C8.71256 6.8107 8.75892 6.6408 8.79511 6.5zM8.5 4.5H11.5V3.5H8.5V4.5zM10 18.5C5.30558 18.5 1.5 14.69442 1.5 10C1.5 5.3056 5.30558 1.5 10 1.5C14.6944 1.5 18.5 5.3056 18.5 10C18.5 14.69442 14.6944 18.5 10 18.5zM0.5 10C0.5 15.24671 4.75329 19.5 10 19.5C15.2467 19.5 19.5 15.24671 19.5 10C19.5 4.7533 15.2467 0.5 10 0.5C4.75329 0.5 0.5 4.7533 0.5 10z" />
    <glyph glyph-name="info"
      unicode="&#xEA1C;"
      horiz-adv-x="20" d="M12.13 8.41C11.97 7.16 10.35 5.88 9.1 5.84C6.17 5.8 9.89 10.54 8.74 11.63C9.3 11.84 10.62 12.17 10.62 11.19C10.62 10.37 10.12 9.45 9.88 8.68C8.66 4.84 12.13 8.85 12.14 8.82C12.16 8.79 12.16 8.65 12.13 8.41C12.08 8.05 12.16 8.65 12.13 8.41zM11.56 14.33C11.56 13.33 9.36 12.85 9.36 13.97C9.36 15 11.56 15.46 11.56 14.33zM10 18.5C5.30558 18.5 1.5 14.69442 1.5 10C1.5 5.3056 5.30558 1.5 10 1.5C14.6944 1.5 18.5 5.3056 18.5 10C18.5 14.69442 14.6944 18.5 10 18.5zM0.5 10C0.5 15.24671 4.75329 19.5 10 19.5C15.2467 19.5 19.5 15.24671 19.5 10C19.5 4.7533 15.2467 0.5 10 0.5C4.75329 0.5 0.5 4.7533 0.5 10z" />
    <glyph glyph-name="lightmode"
      unicode="&#xEA1D;"
      horiz-adv-x="20" d="M10 6C12.2091 6 14 7.7909 14 10C14 12.20914 12.2091 14 10 14C7.79086 14 6 12.20914 6 10C6 7.7909 7.79086 6 10 6zM10 5C12.7614 5 15 7.2386 15 10C15 12.76142 12.7614 15 10 15C7.23858 15 5 12.76142 5 10C5 7.2386 7.23858 5 10 5zM10.5294 19V16H9.52941V19H10.5294zM10.5294 4V1H9.52941V4H10.5294zM19 9.5H16V10.5H19V9.5zM4 9.5H1V10.5H4V9.5zM16.4662 15.98961L14.3449 13.86829L13.6378 14.5754L15.7591 16.69672L16.4662 15.98961zM5.85963 5.383L3.73831 3.2617L3.0312 3.9688L5.15252 6.0901L5.85963 5.383zM15.7383 3.2825L13.617 5.4038L14.3241 6.1109L16.4454 3.9896L15.7383 3.2825zM5.13173 13.88909L3.01041 16.01041L3.71751 16.71751L5.83883 14.59619L5.13173 13.88909z" />
    <glyph glyph-name="lineplot"
      unicode="&#xEA1E;"
      horiz-adv-x="20" d="M2.54455 2.5V18H1.54455V1.5H18.04455V2.5L2.54455 2.5zM18.45545 12.71515L15.40225 8.3105L11.69485 10.79712L9.19564 6.7983L6.26061 8.755L4.50146 4.7969L3.58764 5.2031L5.82849 10.24497L8.89346 8.2017L11.39425 12.20288L15.14145 9.6895L17.63365 13.28485L18.45545 12.71515z" />
    <glyph glyph-name="mail"
      unicode="&#xEA1F;"
      horiz-adv-x="20" d="M1 4V16H19V4H1zM2 5H18V12.62173L10 8.4357L2 12.62173V5zM2 13.75036V15H18V13.75036L10 9.5643L2 13.75036z" />
    <glyph glyph-name="map"
      unicode="&#xEA20;"
      horiz-adv-x="20" d="M17.5 17.54884V4.0208L12.1348 2.5185C12.0362 2.4909 11.9315 2.4942 11.8348 2.5281L7.98332 3.8761L2.5 2.3408V16.98884L7.95354 17.49784C7.98828 17.50108 8.02328 17.50068 8.05794 17.49664L12.0058 17.03605L17.5 17.54884zM11.5 16.08828L8.5 16.43828V4.7547L11.5 3.7047V16.08828zM12.5 3.6592L16.5 4.7792V16.45116L12.5 16.07783V3.6592zM7.5 4.7792V16.45116L3.5 16.07783V3.6592L7.5 4.7792z" />
    <glyph glyph-name="minus"
      unicode="&#xEA21;"
      horiz-adv-x="20" d="M19 11H1V10H19V11z" />
    <glyph glyph-name="more"
      unicode="&#xEA22;"
      horiz-adv-x="20" d="M3 8C4.10457 8 5 8.8954 5 10C5 11.10457 4.10457 12 3 12C1.89543 12 1 11.10457 1 10C1 8.8954 1.89543 8 3 8zM10 8C11.1046 8 12 8.8954 12 10C12 11.10457 11.1046 12 10 12C8.89543 12 8 11.10457 8 10C8 8.8954 8.89543 8 10 8zM19 10C19 8.8954 18.1046 8 17 8C15.8954 8 15 8.8954 15 10C15 11.10457 15.8954 12 17 12C18.1046 12 19 11.10457 19 10z" />
    <glyph glyph-name="pencil"
      unicode="&#xEA23;"
      horiz-adv-x="20" d="M17.012755 16.47355C16.227755 17.25857 14.961755 17.25882 14.176455 16.4743L14.175655 16.47355L3.997615 6.3761L2.405745 1.9985L6.798845 3.4628L17.012155 13.63573L17.015855 13.63948C17.787055 14.42403 17.787055 15.68598 17.015855 16.47053L17.012755 16.47355zM14.882755 15.76645C15.277055 16.16068 15.909355 16.16118 16.304155 15.76796C16.690855 15.37295 16.690955 14.73725 16.304355 14.34218L15.392755 13.43418L13.964955 14.85588L14.881355 15.76504L14.882755 15.76645zM13.255055 14.15158L4.860885 5.8239L4.052755 3.6015L6.259655 4.3372L14.684155 12.72846L13.255055 14.15158z" />
    <glyph glyph-name="piechart"
      unicode="&#xEA24;"
      horiz-adv-x="20" d="M9.000010054051 16.48212V9.5V9.366L9.067000054051 9.25L12.558010054051 3.2033C11.745410054051 2.8086 10.862510054051 2.5743 9.957830054051 2.515C8.886420054051 2.4448 7.813210054051 2.622 6.821230054051 3.0328C5.829240054051 3.4437 4.945080054051 4.0773 4.237130054051 4.8846C3.529180054051 5.6918 3.016430054051 6.6511 2.738530054051 7.6883C2.460630054051 8.7254 2.425040054051 9.8126 2.634510054051 10.86563C2.843980054051 11.91872 3.292900054051 12.9095 3.946540054051 13.76133C4.600170054051 14.61316 5.441000054051 15.30322 6.403990054051 15.77811C7.217090054051 16.17909 8.098870054051 16.41759 9.000010054051 16.48212zM11.258810054051 9.1857L17.373610054051 10.82414C17.632110054051 9.4824 17.492810054051 8.0903 16.967210054051 6.8212C16.441510054051 5.5521 15.555610054051 4.4693 14.424110054051 3.7033L11.258810054051 9.1857zM11.000010054051 17.48213C12.362910054051 17.38455 13.671510054051 16.88971 14.761310054051 16.05347C15.851110054051 15.21724 16.667810054051 14.08127 17.114810054051 12.79007L11.000010054051 11.15161V17.48213z" />
    <glyph glyph-name="play-circle"
      unicode="&#xEA25;"
      horiz-adv-x="20" d="M10 18.5C5.30558 18.5 1.5 14.69442 1.5 10C1.5 5.3056 5.30558 1.5 10 1.5C14.6944 1.5 18.5 5.3056 18.5 10C18.5 14.69442 14.6944 18.5 10 18.5zM0.5 10C0.5 15.24671 4.75329 19.5 10 19.5C15.2467 19.5 19.5 15.24671 19.5 10C19.5 4.7533 15.2467 0.5 10 0.5C4.75329 0.5 0.5 4.7533 0.5 10zM8 13.8831L14.4718 10L8 6.1169V13.8831zM9 12.1169V7.8831L12.5282 10L9 12.1169z" />
    <glyph glyph-name="plus"
      unicode="&#xEA26;"
      horiz-adv-x="20" d="M10.5 9.5V2H9.5V9.5H2V10.5H9.5V18H10.5V10.5H18V9.5H10.5z" />
    <glyph glyph-name="presentation"
      unicode="&#xEA27;"
      horiz-adv-x="20" d="M6 1.29V6H1V19H19V6H10.71L6 1.29zM2 7H7V3.71L10.29 7H18V18H2V7z" />
    <glyph glyph-name="radar"
      unicode="&#xEA28;"
      horiz-adv-x="20" d="M9.999985 18.58963L18.580185 13.22702L15.381885 1.5H4.618095L1.419815 13.22702L9.999985 18.58963zM2.580165 12.77299L5.381885 2.5H14.618085L17.419785 12.77299L9.999985 17.41038L2.580165 12.77299zM11.052585 14.59824L14.024585 12.22067L13.467285 6.6484L7.728035 4.3527L4.865265 11.22334L11.052585 14.59824zM6.134715 10.77667L8.271945 5.6473L12.532685 7.3516L12.975385 11.77934L10.947385 13.40177L6.134715 10.77667z" />
    <glyph glyph-name="refresh"
      unicode="&#xEA29;"
      horiz-adv-x="20" d="M11.28 15.86294L9.49645 17.64645L10.2036 18.35355L13.4465 15.11059L10.0941 11.74704L9.38586 12.45296L11.5986 14.67305C11.0885 14.80111 10.5536 14.87 10 14.87C6.41375 14.87 3.5 11.95624 3.5 8.37C3.5 4.7748 6.41288 1.8696 10.0007 1.86C13.5866 1.8604 16.5 4.774 16.5 8.36C16.5 8.5102 16.4912 8.6536 16.4811 8.8157L17.5789 8.8843L17.5793 8.8779C17.5891 8.7217 17.6 8.5472 17.6 8.36C17.6 4.1662 14.1938 0.76 10 0.76L9.9986 0.76C5.80671 0.7708 2.4 4.1655 2.4 8.37C2.4 12.56376 5.80624 15.97 10 15.97C10.4371 15.97 10.8646 15.93314 11.28 15.86294z" />
    <glyph glyph-name="resolve"
      unicode="&#xEA2A;"
      horiz-adv-x="20" d="M14.5939 14.77343L15.5227 14.01354L8.59476 5.5461L5.17531 9.8204L6.11235 10.57003L8.60524 7.4539L14.5939 14.77343zM10 19.5C4.75329 19.5 0.5 15.24671 0.5 10C0.5 4.7533 4.75329 0.5 10 0.5C15.2467 0.5 19.5 4.7533 19.5 10C19.5 15.24671 15.2467 19.5 10 19.5zM1.5 10C1.5 14.69442 5.30558 18.5 10 18.5C14.6944 18.5 18.5 14.69442 18.5 10C18.5 5.3056 14.6944 1.5 10 1.5C5.30558 1.5 1.5 5.3056 1.5 10z" />
    <glyph glyph-name="scatterplot"
      unicode="&#xEA2B;"
      horiz-adv-x="20" d="M2.75 2.5L2.75 18H1.75L1.75 1.5H18.25V2.5L2.75 2.5zM9.25 12C9.25 11.44772 8.80228 11 8.25 11C7.69772 11 7.25 11.44772 7.25 12C7.25 12.55228 7.69772 13 8.25 13C8.80228 13 9.25 12.55228 9.25 12zM8.25 6C8.25 5.4477 7.80228 5 7.25 5C6.69772 5 6.25 5.4477 6.25 6C6.25 6.5523 6.69772 7 7.25 7C7.80228 7 8.25 6.5523 8.25 6zM14.25 14C14.25 13.44772 13.8023 13 13.25 13C12.6977 13 12.25 13.44772 12.25 14C12.25 14.55228 12.6977 15 13.25 15C13.8023 15 14.25 14.55228 14.25 14zM15.25 8C15.25 7.4477 14.8023 7 14.25 7C13.6977 7 13.25 7.4477 13.25 8C13.25 8.5523 13.6977 9 14.25 9C14.8023 9 15.25 8.5523 15.25 8z" />
    <glyph glyph-name="search"
      unicode="&#xEA2C;"
      horiz-adv-x="20" d="M9.08055 18.55C4.9108 18.55 1.53055 15.16975 1.53055 11C1.53055 6.8302 4.9108 3.45 9.08055 3.45C10.96745 3.45 12.69275 4.1422 14.01615 5.2865L17.69165 1.6111L18.46945 2.3889L14.79405 6.0643C15.93835 7.3878 16.63055 9.1131 16.63055 11C16.63055 15.16975 13.25025 18.55 9.08055 18.55zM2.63055 11C2.63055 14.56224 5.51831 17.45 9.08055 17.45C12.64275 17.45 15.53055 14.56224 15.53055 11C15.53055 7.4378 12.64275 4.55 9.08055 4.55C5.51831 4.55 2.63055 7.4378 2.63055 11z" />
    <glyph glyph-name="settings"
      unicode="&#xEA2D;"
      horiz-adv-x="20" d="M6.61 18.1C5.72963 18.1 5 17.37016 5 16.45C5 15.52984 5.72963 14.8 6.61 14.8C7.49037 14.8 8.22 15.52984 8.22 16.45C8.22 17.37016 7.49037 18.1 6.61 18.1zM4 16.45C4 17.90466 5.15973 19.1 6.61 19.1C8.06027 19.1 9.22 17.90466 9.22 16.45C9.22 14.99534 8.06027 13.8 6.61 13.8C5.15973 13.8 4 14.99534 4 16.45zM6.61 6.1C5.72963 6.1 5 5.3702 5 4.45C5 3.5298 5.72963 2.8 6.61 2.8C7.49037 2.8 8.22 3.5298 8.22 4.45C8.22 5.3702 7.49037 6.1 6.61 6.1zM4 4.45C4 5.9047 5.15973 7.1 6.61 7.1C8.06027 7.1 9.22 5.9047 9.22 4.45C9.22 2.9953 8.06027 1.8 6.61 1.8C5.15973 1.8 4 2.9953 4 4.45zM13.65 12.1C12.7387 12.1 12 11.36127 12 10.45C12 9.5387 12.7387 8.8 13.65 8.8C14.5613 8.8 15.3 9.5387 15.3 10.45C15.3 11.36127 14.5613 12.1 13.65 12.1zM11 10.45C11 11.91355 12.1864 13.1 13.65 13.1C15.1136 13.1 16.3 11.91355 16.3 10.45C16.3 8.9864 15.1136 7.8 13.65 7.8C12.1864 7.8 11 8.9864 11 10.45zM4.5 17H1.5V16H4.5V17zM18.5 17H10.5V16H18.5V17zM9.5 11H1.5V10H9.5V11zM18.5 11H15.5V10H18.5V11zM4.5 5H1.5V4H4.5V5zM18.5 5H10.5V4H18.5V5z" />
    <glyph glyph-name="slides"
      unicode="&#xEA2E;"
      horiz-adv-x="20" d="M15 18H5V17H15V18zM17 16H3V15H17V16zM1 14H19V2H1V14zM2 13V3H18V13H2z" />
    <glyph glyph-name="social"
      unicode="&#xEA2F;"
      horiz-adv-x="20" d="M15.5 18.25C13.926 18.25 12.65 16.97401 12.65 15.4C12.65 15.17395 12.6763 14.95405 12.7261 14.74319L6.76336 11.93221C6.24247 12.6118 5.42241 13.05 4.5 13.05C2.92599 13.05 1.65 11.77401 1.65 10.2C1.65 8.626 2.92599 7.35 4.5 7.35C5.42585 7.35 6.24859 7.7915 6.76919 8.4754L12.6973 5.7201C12.6662 5.5515 12.65 5.3776 12.65 5.2C12.65 3.626 13.926 2.35 15.5 2.35C17.074 2.35 18.35 3.626 18.35 5.2C18.35 6.774 17.074 8.05 15.5 8.05C14.495 8.05 13.6115 7.5298 13.1041 6.744L7.25384 9.4632C7.31656 9.6982 7.35 9.9452 7.35 10.2C7.35 10.45817 7.31567 10.70832 7.25133 10.94615L13.1817 13.7419C13.6988 13.02023 14.5445 12.55 15.5 12.55C17.074 12.55 18.35 13.82599 18.35 15.4C18.35 16.97401 17.074 18.25 15.5 18.25zM13.75 15.4C13.75 16.3665 14.5335 17.15 15.5 17.15C16.4665 17.15 17.25 16.3665 17.25 15.4C17.25 14.4335 16.4665 13.65 15.5 13.65C14.5335 13.65 13.75 14.4335 13.75 15.4zM15.5 6.95C14.5335 6.95 13.75 6.1665 13.75 5.2C13.75 4.2335 14.5335 3.45 15.5 3.45C16.4665 3.45 17.25 4.2335 17.25 5.2C17.25 6.1665 16.4665 6.95 15.5 6.95zM2.75 10.2C2.75 11.1665 3.5335 11.95 4.5 11.95C5.4665 11.95 6.25 11.1665 6.25 10.2C6.25 9.2335 5.4665 8.45 4.5 8.45C3.5335 8.45 2.75 9.2335 2.75 10.2z" />
    <glyph glyph-name="sorting_ascending"
      unicode="&#xEA30;"
      horiz-adv-x="20" d="M1 3H19V4H1V3zM5 7H19V8H5V7zM19 11H9V12H19V11zM13 15H19V16H13V15z" />
    <glyph glyph-name="sorting_descending"
      unicode="&#xEA31;"
      horiz-adv-x="20" d="M1 16H19V15H1V16zM5 12H19V11H5V12zM19 8H9V7H19V8zM13 4H19V3H13V4z" />
    <glyph glyph-name="sound-off"
      unicode="&#xEA32;"
      horiz-adv-x="20" d="M1.3232 15H5.19316L10.3232 18V3L5.19315 6H1.3232V15zM5.3232 7.0824V13.91761L9.3232 16.25677V4.7432L5.3232 7.0824zM4.3232 14V7H2.3232V14H4.3232zM12.6768 13.35355L15.3232 10.70711L17.9696 13.35355L18.6768 12.64645L16.0303 10L18.6768 7.3536L17.9696 6.6464L15.3232 9.2929L12.6768 6.6464L11.9696 7.3536L14.6161 10L11.9696 12.64645L12.6768 13.35355z" />
    <glyph glyph-name="stop-circle"
      unicode="&#xEA33;"
      horiz-adv-x="20" d="M10 18.5C5.30558 18.5 1.5 14.69442 1.5 10C1.5 5.3056 5.30558 1.5 10 1.5C14.6944 1.5 18.5 5.3056 18.5 10C18.5 14.69442 14.6944 18.5 10 18.5zM0.5 10C0.5 15.24671 4.75329 19.5 10 19.5C15.2467 19.5 19.5 15.24671 19.5 10C19.5 4.7533 15.2467 0.5 10 0.5C4.75329 0.5 0.5 4.7533 0.5 10zM6.5 13.5H13.5V6.5H6.5V13.5zM7.5 12.5V7.5H12.5V12.5H7.5z" />
    <glyph glyph-name="table"
      unicode="&#xEA34;"
      horiz-adv-x="20" d="M1 17H19V16H1V17zM1 13H19V12H1V13zM19 9H1V8H19V9zM1 5H19V4H1V5z" />
    <glyph glyph-name="warning"
      unicode="&#xEA35;"
      horiz-adv-x="20" d="M10.0000015 5C10.5523015 5 11.0000015 5.4477 11.0000015 6C11.0000015 6.5523 10.5523015 7 10.0000015 7C9.4477115 7 9.0000015 6.5523 9.0000015 6C9.0000015 5.4477 9.4477115 5 10.0000015 5zM10.5600015 8.71C10.5600015 8.71 10.8500015 10.46 10.9700015 12.28C11.0400015 13.46 10.9700015 14 10.9700015 14C10.9700015 14.56 10.5300015 14.99 9.9900015 15C9.4600015 14.98 9.0300015 14.55 9.0300015 14C9.0300015 14 8.9600015 13.46 9.0300015 12.28C9.1600015 10.46 9.4300015 8.71 9.4300015 8.71C9.4900015 8.13 9.6900015 8 9.9900015 8C10.2700015 8 10.5100015 8.13 10.5600015 8.71zM0.4499985 10C0.4499985 15.27432 4.7256815 19.549999 10.0000015 19.549999C15.2743015 19.549999 19.5500015 15.27432 19.5500015 10C19.5500015 4.7257 15.2743015 0.45 10.0000015 0.45C4.7256815 0.45 0.4499985 4.7257 0.4499985 10zM10.0000015 18.45C5.3331915 18.45 1.5500015 14.66681 1.5500015 10C1.5500015 5.3332 5.3331915 1.55 10.0000015 1.55C14.6668015 1.55 18.4500015 5.3332 18.4500015 10C18.4500015 14.66681 14.6668015 18.45 10.0000015 18.45z" />
    <glyph glyph-name="zoom-out"
      unicode="&#xEA36;"
      horiz-adv-x="20" d="M14.919455 11.53H6.919455L6.919455 10.47H14.919455V11.53zM18.469455 11C18.469455 15.16975 15.089255 18.55 10.919455 18.55C6.749705 18.55 3.369455 15.16975 3.369455 11C3.369455 9.1131 4.061665 7.3878 5.205995 6.0644L1.530545 2.3889L2.308365 1.6111L5.983805 5.2865C7.307295 4.1422 9.032545 3.45 10.919455 3.45C15.089255 3.45 18.469455 6.8303 18.469455 11zM10.919455 17.45C14.481655 17.45 17.369455 14.56224 17.369455 11C17.369455 7.4378 14.481655 4.55 10.919455 4.55C7.357225 4.55 4.469455 7.4378 4.469455 11C4.469455 14.56224 7.357225 17.45 10.919455 17.45z" />
    <glyph glyph-name="zoom"
      unicode="&#xEA37;"
      horiz-adv-x="20" d="M11.44946 10.47V7H10.38946V10.47H6.91945V11.53H10.38946V15H11.44946V11.53H14.91946V10.47H11.44946zM10.91946 18.55C15.08916 18.55 18.46946 15.16975 18.46946 11C18.46946 6.8303 15.08916 3.45 10.91946 3.45C9.03254 3.45 7.30729 4.1422 5.9838 5.2865L2.30836 1.6111L1.53054 2.3889L5.20598 6.0644C4.06166 7.3878 3.36945 9.1131 3.36945 11C3.36945 15.16975 6.7497 18.55 10.91946 18.55zM17.36946 11C17.36946 14.56224 14.48166 17.45 10.91946 17.45C7.35722 17.45 4.46945 14.56224 4.46945 11C4.46945 7.4378 7.35722 4.55 10.91946 4.55C14.48166 4.55 17.36946 7.4378 17.36946 11z" />
  </font>
</defs>
</svg>
