<?xml version="1.0" standalone="no"?>
<!DOCTYPE svg PUBLIC "-//W3C//DTD SVG 1.1//EN" "http://www.w3.org/Graphics/SVG/1.1/DTD/svg11.dtd" >
<svg xmlns="http://www.w3.org/2000/svg">
<defs>
  <font id="icon" horiz-adv-x="650.2566940025689">
    <font-face font-family="icon"
      units-per-em="512" ascent="512"
      descent="0" />
    <missing-glyph horiz-adv-x="0" />
    <glyph glyph-name="arrow-down"
      unicode="&#xEA01;"
      horiz-adv-x="512" d="M268.8000000000001 152.9472L361.7280000000001 256L380.6720000000001 239.104L256 100.352L131.328 239.104L150.272 256L243.2 152.9472V409.6H268.8000000000001V152.9472z" />
    <glyph glyph-name="arrow-left"
      unicode="&#xEA02;"
      horiz-adv-x="512" d="M157.609216 281.147648L261.3186559999999 374.4857600000001L244.192768 393.51424L105.621504 268.8L244.192768 144.08704L261.3186559999999 163.11296L158.612224 255.54944L406.3784960000001 256L406.332416 281.6L157.609216 281.147648z" />
    <glyph glyph-name="arrow-right"
      unicode="&#xEA03;"
      horiz-adv-x="512" d="M353.8764799999999 281.6L250.670336 374.4857600000001L267.79648 393.51424L406.36672 268.8L267.79648 144.08704L250.670336 163.11296L353.8764799999999 256H105.63328V281.6H353.8764799999999z" />
    <glyph glyph-name="arrow-up"
      unicode="&#xEA04;"
      horiz-adv-x="512" d="M380.6720000000001 271.36L256 409.6L131.328 271.36L150.272 253.952L243.2 357.23008V102.4H268.8000000000001V357.230592L361.7280000000001 253.952L380.6720000000001 271.36z" />
    <glyph glyph-name="barchart"
      unicode="&#xEA05;"
      horiz-adv-x="512" d="M70.4 64L70.4 460.8H44.8L44.8 38.4H467.2V64L70.4 64zM172.8 256V102.4H147.2V256H172.8zM403.2000000000001 256V102.4H377.6V256H403.2000000000001zM326.4 332.8V102.4H300.8000000000001V332.8H326.4zM249.6 358.4V102.4H224V358.4H249.6z" />
    <glyph glyph-name="book"
      unicode="&#xEA06;"
      horiz-adv-x="512" d="M332.8 358.4H179.2V332.8H332.8V358.4zM179.2 281.6H332.8V256H179.2V281.6zM396.8 448H153.6C132.392192 448 115.2 430.807808 115.2 409.6V102.4C115.2 81.19296 132.392192 64 153.6 64H396.8V448zM371.2000000000001 166.4L371.2000000000001 422.4L153.6 422.4C146.530816 422.4 140.8 416.669184 140.8 409.6L140.8 164.21376C144.803584 165.62944 149.111808 166.4 153.6 166.4H371.2000000000001zM371.2000000000001 140.8H153.6C146.535936 140.8 140.808448 135.0784 140.8 128.01536L140.8 102.4C140.8 95.33184 146.530816 89.6 153.6 89.6H371.2000000000001V140.8z" />
    <glyph glyph-name="boxplot"
      unicode="&#xEA07;"
      horiz-adv-x="512" d="M70.4 64L70.4 460.8H44.8L44.8 38.4H467.2V64L70.4 64zM211.2 345.6V396.8H185.6V345.6H147.2V166.4H185.6V128H211.2V166.4H249.6V345.6H211.2zM172.8 320V268.8H224V320H172.8zM172.8 192V243.2H224V192H172.8zM390.4 422.4V460.8H364.8000000000001V422.4H326.4V140.8H364.8000000000001V102.4H390.4V140.8H428.8000000000001V422.4H390.4zM352 396.8V320H403.2000000000001V396.8H352zM352 166.4V294.4H403.2000000000001V166.4H352z" />
    <glyph glyph-name="check"
      unicode="&#xEA08;"
      horiz-adv-x="512" d="M432.351104 401.494528L191.932032 107.65056L79.648896 248.00512L99.638912 263.9961600000001L192.155776 148.34944L412.536704 417.705472L432.351104 401.494528z" />
    <glyph glyph-name="chevron-double-left"
      unicode="&#xEA09;"
      horiz-adv-x="512" d="M269.9842560000001 349.077504L176.9057280000001 256L269.9842560000001 162.92352L251.33824 144.27648L139.615744 256L251.33824 367.722496L269.9842560000001 349.077504zM372.3842560000001 349.077504L279.3052160000001 256L372.3842560000001 162.92352L353.737216 144.27648L242.015744 256L353.737216 367.722496L372.3842560000001 349.077504z" />
    <glyph glyph-name="chevron-double-right"
      unicode="&#xEA0A;"
      horiz-adv-x="512" d="M139.616384 349.077504L232.693888 256L139.616384 162.92352L158.261376 144.27648L269.983616 256L158.261376 367.722496L139.616384 349.077504zM242.01664 349.077504L335.094656 256L242.01664 162.92352L260.662656 144.27648L372.383616 256L260.662656 367.722496L242.01664 349.077504z" />
    <glyph glyph-name="chevron-down"
      unicode="&#xEA0B;"
      horiz-adv-x="512" d="M255.999488 197.84448L111.721984 342.122496L93.076992 323.477504L255.999488 160.55552L418.923008 323.477504L400.2759679999999 342.122496L255.999488 197.84448z" />
    <glyph glyph-name="chevron-left"
      unicode="&#xEA0C;"
      horiz-adv-x="512" d="M202.505728 256L346.7842560000001 400.277504L328.137216 418.922496L165.215744 256L328.137216 93.07648L346.7842560000001 111.72352L202.505728 256z" />
    <glyph glyph-name="chevron-right"
      unicode="&#xEA0D;"
      horiz-adv-x="512" d="M309.494528 256L165.216512 400.277504L183.861504 418.922496L346.7834880000001 256L183.861504 93.07648L165.216512 111.72352L309.494528 256z" />
    <glyph glyph-name="chevron-up"
      unicode="&#xEA0E;"
      horiz-adv-x="512" d="M255.999488 351.444992L418.923008 188.52352L400.2759679999999 169.87648L255.999488 314.155008L111.721984 169.87648L93.076992 188.52352L255.999488 351.444992z" />
    <glyph glyph-name="clock"
      unicode="&#xEA0F;"
      horiz-adv-x="512" d="M255.9999872 409.6H230.3999872V230.4H232.1948032L231.8374272 230.0416L323.3049472 138.5984L343.2166272 158.5152L255.9999872 245.70624V409.6zM11.5200128 256C11.5200128 391.0225920000001 120.9773952 500.4800768 255.9999872 500.4800768C391.0220672 500.4800768 500.4799872 391.0225920000001 500.4799872 256C500.4799872 120.97792 391.0220672 11.52 255.9999872 11.52C120.9773952 11.52 11.5200128 120.97792 11.5200128 256zM255.9999872 472.32C136.5296512 472.32 39.6799872 375.470336 39.6799872 256C39.6799872 136.52992 136.5296512 39.68 255.9999872 39.68C375.4700672 39.68 472.3199872 136.52992 472.3199872 256C472.3199872 375.470336 375.4700672 472.32 255.9999872 472.32z" />
    <glyph glyph-name="close"
      unicode="&#xEA10;"
      horiz-adv-x="512" d="M286.1 256L511.8 30.3L481.7 0.2L256 225.9L30.3 0.2L0.2 30.3L225.9 256L0.2 481.7L30.3 511.8L256 286.1L481.7 511.8L511.8 481.7L286.1 256z" />
    <glyph glyph-name="code"
      unicode="&#xEA11;"
      horiz-adv-x="512" d="M164.8852479999999 296.606976L86.90816 247.76192V246.58432L164.8852479999999 197.73696V158.60224L51.30368 232.1664V262.179328L164.8852479999999 335.742464V296.606976zM347.11424 197.73696L425.09184 246.58432V247.76192L347.11424 296.606976V335.742464L460.69632 262.179328V232.1664L347.11424 158.60224V197.73696zM322.76096 358.4L225.951488 102.4H189.758464L286.56768 358.4H322.76096z" />
    <glyph glyph-name="compile-circle"
      unicode="&#xEA12;"
      horiz-adv-x="512" d="M256 473.6C135.822848 473.6 38.4 376.177152 38.4 256C38.4 135.82336 135.822848 38.4 256 38.4C376.17664 38.4 473.6 135.82336 473.6 256C473.6 376.177152 376.17664 473.6 256 473.6zM12.8 256C12.8 390.3157760000001 121.684224 499.2 256 499.2C390.3155200000001 499.2 499.2 390.3157760000001 499.2 256C499.2 121.68448 390.3155200000001 12.8 256 12.8C121.684224 12.8 12.8 121.68448 12.8 256zM187.629312 195.7734399999999L102.4 250.97472V273.495296L187.629312 328.695552V299.329024L129.116928 262.675968V261.792768L187.629312 225.1392V195.7734399999999zM206.29376 153.6L278.9376000000001 345.69728H306.09664L233.452288 153.6H206.29376zM324.3699200000001 195.7734399999999V225.1392L382.88384 261.792768V262.675968L324.3699200000001 299.329024V328.695552L409.6 273.495296V250.97472L324.3699200000001 195.7734399999999z" />
    <glyph glyph-name="darkmode"
      unicode="&#xEA13;"
      horiz-adv-x="512" d="M314.85056 420.64512C234.445824 408.903424 172.704 339.66208 172.704 256C172.704 171.28192 236.0128 101.3529599999999 317.90208 90.9388799999999C313.19424 101.22496 307.32416 115.02592 301.45664 131.35872C288.39552 167.7184 275.104 217.27488 275.104 268.8C275.104 320.484608 288.4672 363.849984 301.7792 394.248192C306.30016 404.570624 310.82624 413.428224 314.85056 420.64512zM349.29792 427.459584L349.23648 427.37792L348.89856 426.913024C348.58112 426.476544 348.09216 425.789184 347.45216 424.859392C346.17472 422.999808 344.3008 420.173824 342.03008 416.451328C337.48608 409.001472 331.36512 397.99168 325.2288 383.979008C312.9408 355.91936 300.704 316.084736 300.704 268.8C300.704 221.35552 313.01248 174.912 325.55136 140.01408C331.7952 122.63424 338.03392 108.28032 342.7008 98.304C345.0304 93.3171199999999 346.9632 89.4336 348.29952 86.81984C348.9676800000001 85.51424 349.48736 84.52608 349.8304 83.8758399999999L350.2144 83.1616L350.30144 83.00032L350.3168 82.97216L360.75904 64H339.104C233.065216 64 147.104 149.96224 147.104 256C147.104 362.038784 233.065216 448 339.104 448H364.896L349.29792 427.459584z" />
    <glyph glyph-name="download"
      unicode="&#xEA14;"
      horiz-adv-x="512" d="M268.8 171.70176V435.2H243.2V171.70176L149.85088 265.05088L131.74912 246.94784L256 122.69824L380.25216 246.94784L362.14784 265.05088L268.8 171.70176zM89.6 76.8V51.2H422.4V76.8H89.6z" />
    <glyph glyph-name="end-left"
      unicode="&#xEA15;"
      horiz-adv-x="512" d="M244.383232 256L388.66176 400.277504L370.01472 418.922496L207.093248 256L370.01472 93.07648L388.66176 111.72352L244.383232 256zM148.93824 76.8L148.93824 435.2L123.33824 435.2L123.33824 76.8H148.93824z" />
    <glyph glyph-name="end-right"
      unicode="&#xEA16;"
      horiz-adv-x="512" d="M267.616768 256L123.338752 400.277504L141.983744 418.922496L304.905728 256L141.983744 93.07648L123.338752 111.72352L267.616768 256zM363.0612480000001 76.8L363.0612480000001 435.2L388.661248 435.2L388.661248 76.8H363.0612480000001z" />
    <glyph glyph-name="funnel"
      unicode="&#xEA17;"
      horiz-adv-x="512" d="M51.2 435.2L124.446208 307.2L387.5712000000001 307.2L460.8 435.2H51.2zM95.344384 409.6L139.29216 332.8H372.7257600000001L416.66048 409.6L95.344384 409.6zM256 38.4L320 153.6H192L256 38.4zM256 91.11296L276.4928 128H235.507712L256 91.11296zM128 281.6L384 281.6L330.6624 179.2L181.216 179.2L128 281.6zM196.762624 204.8L170.154752 256H341.8009600000001L315.1334400000001 204.8H196.762624z" />
    <glyph glyph-name="graph"
      unicode="&#xEA18;"
      horiz-adv-x="512" d="M145.787435332181 409.72672C148.697387332181 388.719616 134.026539332181 369.3312 113.019179332181 366.421248C92.012075332181 363.511552 72.623659332181 378.1824000000001 69.713963332181 399.18976C66.804011332181 420.196864 81.474859332181 439.58528 102.482219332181 442.494976C123.489323332181 445.404928 142.877739332181 430.7338240000001 145.787435332181 409.72672zM105.994539332181 417.137152C98.992171332181 416.167168 94.101803332181 409.704448 95.071787332181 402.70208C96.041771332181 395.699712 102.504491332181 390.809344 109.506859332181 391.779328C116.509227332181 392.749056 121.399595332181 399.212032 120.429611332181 406.2144C119.459627332181 413.216768 112.996907332181 418.107136 105.994539332181 417.137152zM409.517867332181 278.26816C430.5252273321811 281.177856 445.196587332181 300.566528 442.285867332181 321.573632C439.3777073321811 342.580736 419.988267332181 357.251584 398.980907332181 354.341888C377.973547332181 351.432192 363.302187332181 332.043776 366.2129073321811 311.0364160000001C369.123627332181 290.029312 388.510507332181 275.3584640000001 409.517867332181 278.26816zM391.569707332181 314.548992C390.599467332181 321.55136 395.491627332181 328.01408 402.493227332181 328.984064C409.494827332181 329.954048 415.9588273321811 325.06368 416.929067332181 318.061312C417.899307332181 311.058944 413.0071473321811 304.595968 406.005547332181 303.62624C399.003947332181 302.656256 392.539947332181 307.546624 391.569707332181 314.548992zM103.852587332181 339.3072640000001L128.439339332181 161.80224L153.797163332181 165.31456L129.210667332181 342.81984L103.852587332181 339.3072640000001zM155.167787332181 62.12608C176.174891332181 65.0368 190.845739332181 84.42624 187.936043332181 105.4310399999999C185.026347332181 126.4384 165.637931332181 141.10976 144.630571332181 138.2016C123.623467332181 135.29088 108.952619332181 115.90144 111.862315332181 94.89408C114.772011332181 73.88672 134.160683332181 59.2179199999999 155.167787332181 62.12608zM137.220395332181 98.4064C136.250411332181 105.41056 141.140523332181 111.872 148.143147332181 112.84224C155.145515332181 113.81248 161.608235332181 108.92288 162.578219332181 101.91872C163.548203332181 94.91712 158.657835332181 88.45568 151.655467332181 87.48544C144.653099332181 86.5152 138.190123332181 91.4048 137.220395332181 98.4064zM346.303787332181 322.390272L170.939179332181 375.6334080000001L178.376491332181 400.12928L353.740587332181 346.886144L346.303787332181 322.390272zM220.198699332181 112.19968L369.218347332181 249.1392L351.897387332181 267.989504L202.876971332181 131.04896L220.198699332181 112.19968z" />
    <glyph glyph-name="grid"
      unicode="&#xEA19;"
      horiz-adv-x="512" d="M140.8 435.2H64V358.4H140.8V435.2zM294.4000000000001 435.2H217.6V358.4H294.4000000000001V435.2zM64 281.6H140.8V204.8H64V281.6zM294.4000000000001 281.6H217.6V204.8H294.4000000000001V281.6zM371.2 281.6H448V204.8H371.2V281.6zM140.8 128H64V51.2H140.8V128zM217.6 128H294.4000000000001V51.2H217.6V128zM448 128H371.2V51.2H448V128zM371.2 435.2H448V358.4H371.2V435.2z" />
    <glyph glyph-name="heatmap"
      unicode="&#xEA1A;"
      horiz-adv-x="512" d="M89.6 422.4C89.6 408.261632 78.138368 396.8 64 396.8C49.861632 396.8 38.4 408.261632 38.4 422.4C38.4 436.538368 49.861632 448 64 448C78.138368 448 89.6 436.538368 89.6 422.4zM268.8 422.4C268.8 408.261632 257.33888 396.8 243.2 396.8C229.061632 396.8 217.6 408.261632 217.6 422.4C217.6 436.538368 229.061632 448 243.2 448C257.33888 448 268.8 436.538368 268.8 422.4zM473.6 409.6C473.6 374.253824 444.94592 345.6 409.6 345.6C374.2540800000001 345.6 345.6 374.253824 345.6 409.6C345.6 444.946176 374.2540800000001 473.6 409.6 473.6C444.94592 473.6 473.6 444.946176 473.6 409.6zM320 243.2C320 200.78336 285.61664 166.4 243.2 166.4C200.78464 166.4 166.4 200.78336 166.4 243.2C166.4 285.61536 200.78464 320 243.2 320C285.61664 320 320 285.61536 320 243.2zM448 243.2C448 229.06112 436.53888 217.6 422.4 217.6C408.26112 217.6 396.8 229.06112 396.8 243.2C396.8 257.338624 408.26112 268.8 422.4 268.8C436.53888 268.8 448 257.338624 448 243.2zM115.2 76.8C115.2 55.59296 98.007808 38.4 76.8 38.4C55.592192 38.4 38.4 55.59296 38.4 76.8C38.4 98.00704 55.592192 115.2 76.8 115.2C98.007808 115.2 115.2 98.00704 115.2 76.8zM268.8 76.8C268.8 55.59296 251.607808 38.4 230.4 38.4C209.192192 38.4 192 55.59296 192 76.8C192 98.00704 209.192192 115.2 230.4 115.2C251.607808 115.2 268.8 98.00704 268.8 76.8zM448 64C448 49.86112 436.53888 38.4 422.4 38.4C408.26112 38.4 396.8 49.86112 396.8 64C396.8 78.13888 408.26112 89.6 422.4 89.6C436.53888 89.6 448 78.13888 448 64z" />
    <glyph glyph-name="hint"
      unicode="&#xEA1B;"
      horiz-adv-x="512" d="M164.552448 381.1128320000001C182.651392 404.9559040000001 212.089344 422.4 256 422.4C299.91168 422.4 329.3491200000001 404.9559040000001 347.44832 381.112576C365.1097600000001 357.846272 371.2000000000001 329.5626240000001 371.2000000000001 308.165888C371.2000000000001 286.059008 363.61216 264.695808 354.8518400000001 246.9504C346.0864000000001 229.20448 335.63648 214.08512 328.96512 204.43904L328.86016 204.28288C323.3894400000001 196.37248 318.5075200000001 183.53152 314.88256 171.61216C313.13152 165.85216 311.77216 160.6528 310.85312 156.89728C310.3948800000001 155.02592 310.04928 153.52064 309.82144 152.4992L309.56544 151.34464L309.5065600000001 151.0656L309.4937600000001 151.00672L307.37664 140.8L204.622336 140.8L202.50752 150.99648L202.492928 151.0656L202.433536 151.34464L202.179328 152.4992C201.950208 153.52064 201.60384 155.02592 201.1456 156.89728C200.227072 160.6528 198.869248 165.85216 197.11744 171.61216C193.491712 183.53152 188.609536 196.37248 183.140608 204.28288L183.033856 204.43904C176.3648 214.08512 165.912576 229.20448 157.148928 246.9504C148.387072 264.696064 140.8 286.059008 140.8 308.1661440000001C140.8 329.5626240000001 146.89152 357.846272 164.552448 381.1128320000001zM225.154816 166.4L286.84544 166.4C287.77216 170.00448 288.95744 174.35392 290.3910400000001 179.06176C294.11072 191.29088 299.91424 207.43168 307.8016 218.8416C314.49344 228.52096 324.01152 242.3168 331.8963200000001 258.28608C339.82976 274.353152 345.6 291.631616 345.6 308.165888C345.6 325.411072 340.5619200000001 347.844096 327.05792 365.63456C313.9916800000001 382.847744 292.22912 396.8 256 396.8C219.771648 396.8 198.0096 382.847744 184.943104 365.63456C171.439104 347.844096 166.4 325.411072 166.4 308.1661440000001C166.4 291.631616 172.169472 274.353152 180.103168 258.28608C187.988224 242.3168 197.506048 228.52096 204.198656 218.8416C212.086016 207.43168 217.88928 191.29088 221.609472 179.06176C223.041536 174.35392 224.228352 170.00448 225.154816 166.4zM217.6 115.2H294.4000000000001V89.6H217.6V115.2zM256 473.6C135.822848 473.6 38.4 376.177152 38.4 256C38.4 135.82336 135.822848 38.4 256 38.4C376.17664 38.4 473.6 135.82336 473.6 256C473.6 376.177152 376.17664 473.6 256 473.6zM12.8 256C12.8 390.3157760000001 121.684224 499.2 256 499.2C390.3155200000001 499.2 499.2 390.3157760000001 499.2 256C499.2 121.68448 390.3155200000001 12.8 256 12.8C121.684224 12.8 12.8 121.68448 12.8 256z" />
    <glyph glyph-name="info"
      unicode="&#xEA1C;"
      horiz-adv-x="512" d="M310.528 215.296C306.432 183.296 264.96 150.528 232.96 149.504C157.952 148.48 253.184 269.824 223.744 297.728C238.08 303.104 271.872 311.552 271.872 286.464C271.872 265.472 259.072 241.92 252.928 222.208C221.696 123.904 310.528 226.56 310.7840000000001 225.792C311.2960000000001 225.024 311.2960000000001 221.44 310.528 215.296C309.2480000000001 206.08 311.2960000000001 221.44 310.528 215.296zM295.9360000000001 366.848C295.9360000000001 341.248 239.616 328.96 239.616 357.632C239.616 384 295.9360000000001 395.776 295.9360000000001 366.848zM256 473.6C135.822848 473.6 38.4 376.177152 38.4 256C38.4 135.82336 135.822848 38.4 256 38.4C376.17664 38.4 473.6 135.82336 473.6 256C473.6 376.177152 376.17664 473.6 256 473.6zM12.8 256C12.8 390.3157760000001 121.684224 499.2 256 499.2C390.3155200000001 499.2 499.2 390.3157760000001 499.2 256C499.2 121.68448 390.3155200000001 12.8 256 12.8C121.684224 12.8 12.8 121.68448 12.8 256z" />
    <glyph glyph-name="lightmode"
      unicode="&#xEA1D;"
      horiz-adv-x="512" d="M256 153.6C312.55296 153.6 358.4000000000001 199.44704 358.4000000000001 256C358.4000000000001 312.553984 312.55296 358.4 256 358.4C199.446016 358.4 153.6 312.553984 153.6 256C153.6 199.44704 199.446016 153.6 256 153.6zM256 128C326.69184 128 384 185.30816 384 256C384 326.6923520000001 326.69184 384 256 384C185.307648 384 128 326.6923520000001 128 256C128 185.30816 185.307648 128 256 128zM269.5526400000001 486.4V409.6H243.952896V486.4H269.5526400000001zM269.5526400000001 102.4V25.6H243.952896V102.4H269.5526400000001zM486.4 243.2H409.6V268.8H486.4V243.2zM102.4 243.2H25.6V268.8H102.4V243.2zM421.5347200000001 409.334016L367.2294400000001 355.028224L349.1276800000001 373.13024L403.4329600000001 427.436032L421.5347200000001 409.334016zM150.006528 137.8048L95.700736 83.49952L77.59872 101.60128L131.904512 155.90656L150.006528 137.8048zM402.90048 84.0319999999999L348.5952000000001 138.33728L366.69696 156.43904L421.0022400000001 102.1337599999999L402.90048 84.0319999999999zM131.372288 355.560704L77.066496 409.866496L95.168256 427.968256L149.474048 373.662464L131.372288 355.560704z" />
    <glyph glyph-name="lineplot"
      unicode="&#xEA1E;"
      horiz-adv-x="512" d="M65.1404799999999 64V460.8H39.5404799999999V38.4H461.94048V64L65.1404799999999 64zM472.45952 325.50784L394.2976 212.7488L299.38816 276.406272L235.408384 174.03648L160.271616 224.128L115.237376 122.80064L91.8435839999999 133.19936L149.209344 262.271232L227.672576 209.96352L291.6927999999999 312.393728L387.6211199999999 248.0512L451.42144 340.09216L472.45952 325.50784z" />
    <glyph glyph-name="mail"
      unicode="&#xEA1F;"
      horiz-adv-x="512" d="M25.6 102.4V409.6H486.4V102.4H25.6zM51.2 128H460.8V323.116288L256 215.95392L51.2 323.116288V128zM51.2 352.009216V384H460.8V352.009216L256 244.84608L51.2 352.009216z" />
    <glyph glyph-name="map"
      unicode="&#xEA20;"
      horiz-adv-x="512" d="M448 449.2503040000001V102.9324799999999L310.6508800000001 64.4736C308.12672 63.76704 305.4464 63.8515199999999 302.97088 64.7193599999999L204.372992 99.22816L64 59.92448V434.914304L203.610624 447.944704C204.499968 448.027648 205.395968 448.017408 206.283264 447.9139840000001L307.3484800000001 436.12288L448 449.2503040000001zM294.4000000000001 411.859968L217.6 420.819968V121.72032L294.4000000000001 94.84032V411.859968zM320 93.67552L422.4000000000001 122.34752V421.149696L320 411.592448V93.67552zM192 122.34752V421.149696L89.6 411.592448V93.67552L192 122.34752z" />
    <glyph glyph-name="minus"
      unicode="&#xEA21;"
      horiz-adv-x="512" d="M486.4 281.6H25.6V256H486.4V281.6z" />
    <glyph glyph-name="more"
      unicode="&#xEA22;"
      horiz-adv-x="512" d="M76.8 204.8C105.076992 204.8 128 227.72224 128 256C128 284.276992 105.076992 307.2 76.8 307.2C48.523008 307.2 25.6 284.276992 25.6 256C25.6 227.72224 48.523008 204.8 76.8 204.8zM256 204.8C284.27776 204.8 307.2000000000001 227.72224 307.2000000000001 256C307.2000000000001 284.276992 284.27776 307.2 256 307.2C227.723008 307.2 204.8 284.276992 204.8 256C204.8 227.72224 227.723008 204.8 256 204.8zM486.4 256C486.4 227.72224 463.47776 204.8 435.2000000000001 204.8C406.9222400000001 204.8 384 227.72224 384 256C384 284.276992 406.9222400000001 307.2 435.2000000000001 307.2C463.47776 307.2 486.4 284.276992 486.4 256z" />
    <glyph glyph-name="pencil"
      unicode="&#xEA23;"
      horiz-adv-x="512" d="M435.5265280000001 421.72288C415.4305280000001 441.819392 383.0209280000001 441.825792 362.9172480000001 421.74208L362.8967680000001 421.72288L102.338944 163.22816L61.587072 51.1616L174.050432 88.64768L435.5111680000001 349.074688L435.6058880000001 349.170688C455.3486080000001 369.2551680000001 455.3486080000001 401.561088 435.6058880000001 421.6455680000001L435.5265280000001 421.72288zM380.998528 403.62112C391.0926080000001 413.713408 407.279488 413.726208 417.3863680000001 403.659776C427.2858880000001 393.54752 427.2884480000001 377.2736 417.3914880000001 367.159808L394.054528 343.915008L357.5028480000001 380.310528L380.962688 403.585024L380.998528 403.62112zM339.3294080000001 362.280448L124.438656 149.09184L103.750528 92.1984L160.247168 111.03232L375.9143680000001 325.848576L339.3294080000001 362.280448z" />
    <glyph glyph-name="piechart"
      unicode="&#xEA24;"
      horiz-adv-x="512" d="M230.4002573837045 421.942272V243.2V239.7696L232.1152013837045 236.8L321.4850573837045 82.00448C300.6824973837045 71.9001599999999 278.0802573837045 65.90208 254.9204493837045 64.384C227.4923533837045 62.58688 200.0181773837045 67.1232 174.6234893837045 77.63968C149.2285453837045 88.15872 126.5940493837045 104.37888 108.4705293837045 125.04576C90.3470093837045 145.71008 77.2206093837045 170.26816 70.1063693837045 196.82048C62.9921293837045 223.37024 62.0810253837045 251.20256 67.4434573837045 278.160128C72.8058893837045 305.119232 84.2982413837045 330.4832 101.0314253837045 352.290048C117.7643533837045 374.096896 139.2896013837045 391.762432 163.9421453837045 403.919616C184.7575053837045 414.184704 207.3310733837045 420.290304 230.4002573837045 421.942272zM288.2255373837046 235.1539200000001L444.7644173837045 277.097984C451.3820173837045 242.74944 447.8159373837045 207.11168 434.3605773837045 174.62272C420.9026573837046 142.13376 398.2236173837045 114.41408 369.2572173837045 94.80448L288.2255373837046 235.1539200000001zM281.6002573837045 447.542528C316.4904973837045 445.04448 349.9906573837045 432.376576 377.8895373837045 410.968832C405.7884173837046 389.561344 426.6959373837045 360.480512 438.1391373837045 327.425792L281.6002573837045 285.481216V447.542528z" />
    <glyph glyph-name="play-circle"
      unicode="&#xEA25;"
      horiz-adv-x="512" d="M256 473.6C135.822848 473.6 38.4 376.177152 38.4 256C38.4 135.82336 135.822848 38.4 256 38.4C376.17664 38.4 473.6 135.82336 473.6 256C473.6 376.177152 376.17664 473.6 256 473.6zM12.8 256C12.8 390.3157760000001 121.684224 499.2 256 499.2C390.3155200000001 499.2 499.2 390.3157760000001 499.2 256C499.2 121.68448 390.3155200000001 12.8 256 12.8C121.684224 12.8 12.8 121.68448 12.8 256zM204.8 355.40736L370.4780800000001 256L204.8 156.59264V355.40736zM230.4 310.19264V201.80736L320.72192 256L230.4 310.19264z" />
    <glyph glyph-name="plus"
      unicode="&#xEA26;"
      horiz-adv-x="512" d="M268.8 243.2V51.2H243.2V243.2H51.2V268.8H243.2V460.8H268.8V268.8H460.8V243.2H268.8z" />
    <glyph glyph-name="presentation"
      unicode="&#xEA27;"
      horiz-adv-x="512" d="M153.6 33.0239999999999V153.6H25.6V486.4H486.4V153.6H274.1760000000001L153.6 33.0239999999999zM51.2 179.2H179.2V94.976L263.424 179.2H460.8V460.8H51.2V179.2z" />
    <glyph glyph-name="radar"
      unicode="&#xEA28;"
      horiz-adv-x="512" d="M255.999616 475.894528L475.652736 338.611712L393.776256 38.4H118.223232L36.347264 338.611712L255.999616 475.894528zM66.052224 326.988544L137.776256 64H374.222976L445.9464959999999 326.988544L255.999616 445.705728L66.052224 326.988544zM282.946176 373.714944L359.029376 312.849152L344.762496 170.19904L197.837696 111.42912L124.550784 287.317504L282.946176 373.714944zM157.048704 275.882752L211.761792 144.57088L320.836736 188.20096L332.169856 301.551104L280.253056 343.085312L157.048704 275.882752z" />
    <glyph glyph-name="refresh"
      unicode="&#xEA29;"
      horiz-adv-x="512" d="M288.7680000000001 406.091264L243.1091200000001 451.74912L261.2121600000001 469.85088L344.2304000000001 386.831104L258.4089600000001 300.724224L240.2780160000001 318.795776L296.9241600000001 375.63008C283.8656000000001 378.908416 270.17216 380.6720000000001 256.0000000000001 380.6720000000001C164.192 380.6720000000001 89.6 306.079744 89.6 214.272C89.6 122.23488 164.1697280000001 47.86176 256.0179200000001 47.616C347.8169600000001 47.6262399999999 422.4000000000001 122.2144 422.4000000000001 214.016C422.4000000000001 217.86112 422.1747200000001 221.53216 421.91616 225.68192L450.0198400000001 227.43808L450.0300800000001 227.27424C450.2809600000001 223.27552 450.56 218.80832 450.56 214.016C450.56 106.65472 363.3612800000001 19.456 256.0000000000001 19.456L255.9641600000001 19.456C148.651776 19.73248 61.44 106.6368 61.44 214.272C61.44 321.632256 148.639744 408.832 256.0000000000001 408.832C267.1897600000001 408.832 278.1337600000001 407.888384 288.7680000000001 406.091264z" />
    <glyph glyph-name="resolve"
      unicode="&#xEA2A;"
      horiz-adv-x="512" d="M373.60384 378.199808L397.38112 358.746624L220.025856 141.98016L132.487936 251.40224L156.47616 270.592768L220.294144 190.81984L373.60384 378.199808zM256 499.2C121.684224 499.2 12.8 390.3157760000001 12.8 256C12.8 121.68448 121.684224 12.8 256 12.8C390.3155200000001 12.8 499.2 121.68448 499.2 256C499.2 390.3157760000001 390.3155200000001 499.2 256 499.2zM38.4 256C38.4 376.177152 135.822848 473.6 256 473.6C376.17664 473.6 473.6 376.177152 473.6 256C473.6 135.82336 376.17664 38.4 256 38.4C135.822848 38.4 38.4 135.82336 38.4 256z" />
    <glyph glyph-name="scatterplot"
      unicode="&#xEA2B;"
      horiz-adv-x="512" d="M70.4 64L70.4 460.8H44.8L44.8 38.4H467.2V64L70.4 64zM236.8 307.2C236.8 293.0616320000001 225.338368 281.6 211.2 281.6C197.061632 281.6 185.6 293.0616320000001 185.6 307.2C185.6 321.338368 197.061632 332.8 211.2 332.8C225.338368 332.8 236.8 321.338368 236.8 307.2zM211.2 153.6C211.2 139.4611199999999 199.738368 128 185.6 128C171.461632 128 160 139.4611199999999 160 153.6C160 167.73888 171.461632 179.2 185.6 179.2C199.738368 179.2 211.2 167.73888 211.2 153.6zM364.8000000000001 358.4C364.8000000000001 344.261632 353.33888 332.8 339.2000000000001 332.8C325.06112 332.8 313.6 344.261632 313.6 358.4C313.6 372.538368 325.06112 384 339.2000000000001 384C353.33888 384 364.8000000000001 372.538368 364.8000000000001 358.4zM390.4 204.8C390.4 190.66112 378.9388800000001 179.2 364.8000000000001 179.2C350.66112 179.2 339.2000000000001 190.66112 339.2000000000001 204.8C339.2000000000001 218.93888 350.66112 230.4 364.8000000000001 230.4C378.9388800000001 230.4 390.4 218.93888 390.4 204.8z" />
    <glyph glyph-name="search"
      unicode="&#xEA2C;"
      horiz-adv-x="512" d="M232.46208 474.88C125.71648 474.88 39.18208 388.3456 39.18208 281.6C39.18208 174.85312 125.71648 88.3199999999999 232.46208 88.3199999999999C280.76672 88.3199999999999 324.9344 106.04032 358.81344 135.3344L452.90624 41.24416L472.81792 61.15584L378.72768 155.24608C408.02176 189.12768 425.7420800000001 233.29536 425.7420800000001 281.6C425.7420800000001 388.3456 339.2064000000001 474.88 232.46208 474.88zM67.34208 281.6C67.34208 372.793344 141.268736 446.7200000000001 232.46208 446.7200000000001C323.6544 446.7200000000001 397.58208 372.793344 397.58208 281.6C397.58208 190.40768 323.6544 116.48 232.46208 116.48C141.268736 116.48 67.34208 190.40768 67.34208 281.6z" />
    <glyph glyph-name="settings"
      unicode="&#xEA2D;"
      horiz-adv-x="512" d="M169.216 463.36C146.678528 463.36 128 444.676096 128 421.12C128 397.563904 146.678528 378.88 169.216 378.88C191.7534720000001 378.88 210.432 397.563904 210.432 421.12C210.432 444.676096 191.7534720000001 463.36 169.216 463.36zM102.4 421.12C102.4 458.359296 132.089088 488.96 169.216 488.96C206.342912 488.96 236.0320000000001 458.359296 236.0320000000001 421.12C236.0320000000001 383.880704 206.342912 353.28 169.216 353.28C132.089088 353.28 102.4 383.880704 102.4 421.12zM169.216 156.16C146.678528 156.16 128 137.47712 128 113.92C128 90.36288 146.678528 71.68 169.216 71.68C191.7534720000001 71.68 210.432 90.36288 210.432 113.92C210.432 137.47712 191.7534720000001 156.16 169.216 156.16zM102.4 113.92C102.4 151.16032 132.089088 181.76 169.216 181.76C206.342912 181.76 236.0320000000001 151.16032 236.0320000000001 113.92C236.0320000000001 76.67968 206.342912 46.08 169.216 46.08C132.089088 46.08 102.4 76.67968 102.4 113.92zM349.4400000000001 309.76C326.11072 309.76 307.2000000000001 290.848512 307.2000000000001 267.52C307.2000000000001 244.19072 326.11072 225.2800000000001 349.4400000000001 225.2800000000001C372.7692800000001 225.2800000000001 391.6800000000001 244.19072 391.6800000000001 267.52C391.6800000000001 290.848512 372.7692800000001 309.76 349.4400000000001 309.76zM281.6 267.52C281.6 304.9868800000001 311.9718400000001 335.36 349.4400000000001 335.36C386.90816 335.36 417.2800000000001 304.9868800000001 417.2800000000001 267.52C417.2800000000001 230.05184 386.90816 199.68 349.4400000000001 199.68C311.9718400000001 199.68 281.6 230.05184 281.6 267.52zM115.2 435.2H38.4V409.6H115.2V435.2zM473.6 435.2H268.8V409.6H473.6V435.2zM243.2 281.6H38.4V256H243.2V281.6zM473.6 281.6H396.8V256H473.6V281.6zM115.2 128H38.4V102.4H115.2V128zM473.6 128H268.8V102.4H473.6V128z" />
    <glyph glyph-name="slides"
      unicode="&#xEA2E;"
      horiz-adv-x="512" d="M384 460.8H128V435.2H384V460.8zM435.2000000000001 409.6H76.8V384H435.2000000000001V409.6zM25.6 358.4H486.4V51.2H25.6V358.4zM51.2 332.8V76.8H460.8V332.8H51.2z" />
    <glyph glyph-name="social"
      unicode="&#xEA2F;"
      horiz-adv-x="512" d="M396.8 467.2C356.5056 467.2 323.8400000000001 434.534656 323.8400000000001 394.24C323.8400000000001 388.45312 324.51328 382.82368 325.7881600000001 377.425664L173.142016 305.464576C159.807232 322.86208 138.813696 334.08 115.2 334.08C74.905344 334.08 42.24 301.4146560000001 42.24 261.12C42.24 220.8256 74.905344 188.16 115.2 188.16C138.90176 188.16 159.963904 199.4624 173.291264 216.97024L325.05088 146.43456C324.25472 142.1184 323.8400000000001 137.66656 323.8400000000001 133.12C323.8400000000001 92.8256 356.5056 60.16 396.8 60.16C437.0944000000001 60.16 469.76 92.8256 469.76 133.12C469.76 173.4144 437.0944000000001 206.08 396.8 206.08C371.072 206.08 348.4544 192.76288 335.46496 172.6464L185.698304 242.25792C187.303936 248.27392 188.16 254.59712 188.16 261.12C188.16 267.729152 187.281152 274.132992 185.634048 280.22144L337.45152 351.79264C350.6892800000001 333.317888 372.3392 321.28 396.8 321.28C437.0944000000001 321.28 469.76 353.945344 469.76 394.24C469.76 434.534656 437.0944000000001 467.2 396.8 467.2zM352 394.24C352 418.9824 372.0576000000001 439.04 396.8 439.04C421.5424000000001 439.04 441.6 418.9824 441.6 394.24C441.6 369.4976000000001 421.5424000000001 349.44 396.8 349.44C372.0576000000001 349.44 352 369.4976000000001 352 394.24zM396.8 177.92C372.0576000000001 177.92 352 157.8624 352 133.12C352 108.3776 372.0576000000001 88.3199999999999 396.8 88.3199999999999C421.5424000000001 88.3199999999999 441.6 108.3776 441.6 133.12C441.6 157.8624 421.5424000000001 177.92 396.8 177.92zM70.4 261.12C70.4 285.8624 90.4576 305.92 115.2 305.92C139.9424 305.92 160 285.8624 160 261.12C160 236.3776 139.9424 216.32 115.2 216.32C90.4576 216.32 70.4 236.3776 70.4 261.12z" />
    <glyph glyph-name="sort-asc"
      unicode="&#xEA30;"
      horiz-adv-x="512" d="M25.6 76.8H486.4V102.4H25.6V76.8zM128 179.2H486.4V204.8H128V179.2zM486.4 281.6H230.4V307.2H486.4V281.6zM332.8 384H486.4V409.6H332.8V384z" />
    <glyph glyph-name="sort-desc"
      unicode="&#xEA31;"
      horiz-adv-x="512" d="M25.6 409.6H486.4V384H25.6V409.6zM128 307.2H486.4V281.6H128V307.2zM486.4 204.8H230.4V179.2H486.4V204.8zM332.8 102.4H486.4V76.8H332.8V102.4z" />
    <glyph glyph-name="sound-off"
      unicode="&#xEA32;"
      horiz-adv-x="512" d="M33.87392 384H132.944896L264.27392 460.8V76.8L132.94464 153.6H33.87392V384zM136.27392 181.30944V356.290816L238.67392 416.173312V121.42592L136.27392 181.30944zM110.67392 358.4V179.2H59.47392V358.4H110.67392zM324.52608 341.85088L392.27392 274.102016L460.02176 341.85088L478.12608 323.74912L410.37568 256L478.12608 188.25216L460.02176 170.14784L392.27392 237.89824L324.52608 170.14784L306.42176 188.25216L374.17216 256L306.42176 323.74912L324.52608 341.85088z" />
    <glyph glyph-name="sound-on"
      unicode="&#xEA33;"
      horiz-adv-x="650.2566940025689" d="M0.0126469716431 409.5974706056714H132.0976188123704L307.207588182986 512.0379409149293V-1e-13L132.0976188123704 102.4404703092579H0.0126469716431zM136.5999407173204 139.344333563877V372.655666436123L273.1872344629978 452.4959984191286V59.5040015808714zM102.4531172809011 375.4632941408952V136.5367058591048H34.1594704080624V375.4632941408952zM522.5096334354313 400.8204722853473V273.0860586898528H650.2440470309258V238.9392352534334H522.5096334354313V111.2048216579389H488.362809999012V238.9392352534334H360.6283964035175V273.0860586898528H488.362809999012V400.8204722853473z" />
    <glyph glyph-name="stop-circle"
      unicode="&#xEA34;"
      horiz-adv-x="512" d="M256 473.6C135.822848 473.6 38.4 376.177152 38.4 256C38.4 135.82336 135.822848 38.4 256 38.4C376.17664 38.4 473.6 135.82336 473.6 256C473.6 376.177152 376.17664 473.6 256 473.6zM12.8 256C12.8 390.3157760000001 121.684224 499.2 256 499.2C390.3155200000001 499.2 499.2 390.3157760000001 499.2 256C499.2 121.68448 390.3155200000001 12.8 256 12.8C121.684224 12.8 12.8 121.68448 12.8 256zM166.4 345.6H345.6V166.4H166.4V345.6zM192 320V192H320V320H192z" />
    <glyph glyph-name="table"
      unicode="&#xEA35;"
      horiz-adv-x="512" d="M25.6 435.2H486.4V409.6H25.6V435.2zM25.6 332.8H486.4V307.2H25.6V332.8zM486.4 230.4H25.6V204.8H486.4V230.4zM25.6 128H486.4V102.4H25.6V128z" />
    <glyph glyph-name="warning"
      unicode="&#xEA36;"
      horiz-adv-x="512" d="M256.0000384 128C270.1389184 128 281.6000384 139.4611199999999 281.6000384 153.6C281.6000384 167.73888 270.1389184 179.2 256.0000384 179.2C241.8614144000001 179.2 230.4000384 167.73888 230.4000384 153.6C230.4000384 139.4611199999999 241.8614144000001 128 256.0000384 128zM270.3360384 222.976C270.3360384 222.976 277.7600384 267.776 280.8320384000001 314.368C282.6240384 344.576 280.8320384000001 358.4 280.8320384000001 358.4C280.8320384000001 372.736 269.5680384 383.7440000000001 255.7440384 384C242.1760384000001 383.488 231.1680384 372.48 231.1680384 358.4C231.1680384 358.4 229.3760384000001 344.576 231.1680384 314.368C234.4960384 267.776 241.4080384 222.976 241.4080384 222.976C242.9440384 208.128 248.0640384 204.8 255.7440384 204.8C262.9120384 204.8 269.0560384 208.128 270.3360384 222.976zM11.5199616 256C11.5199616 391.0225920000001 120.9774464 500.4799744 256.0000384 500.4799744C391.0221184 500.4799744 500.4800384 391.0225920000001 500.4800384 256C500.4800384 120.97792 391.0221184 11.52 256.0000384 11.52C120.9774464 11.52 11.5199616 120.97792 11.5199616 256zM256.0000384 472.32C136.5297024 472.32 39.6800384 375.470336 39.6800384 256C39.6800384 136.52992 136.5297024 39.68 256.0000384 39.68C375.4701184000001 39.68 472.3200384 136.52992 472.3200384 256C472.3200384 375.470336 375.4701184000001 472.32 256.0000384 472.32z" />
    <glyph glyph-name="zoom-out"
      unicode="&#xEA37;"
      horiz-adv-x="512" d="M381.938048 295.168H177.138048L177.138048 268.0320000000001H381.938048V295.168zM472.818048 281.6C472.818048 388.3456 386.2849280000001 474.88 279.538048 474.88C172.792448 474.88 86.258048 388.3456 86.258048 281.6C86.258048 233.29536 103.978624 189.12768 133.273472 155.24864L39.181952 61.15584L59.094144 41.24416L153.185408 135.3344C187.066752 106.04032 231.233152 88.3199999999999 279.538048 88.3199999999999C386.2849280000001 88.3199999999999 472.818048 174.85568 472.818048 281.6zM279.538048 446.7200000000001C370.730368 446.7200000000001 444.658048 372.793344 444.658048 281.6C444.658048 190.40768 370.730368 116.48 279.538048 116.48C188.34496 116.48 114.418048 190.40768 114.418048 281.6C114.418048 372.793344 188.34496 446.7200000000001 279.538048 446.7200000000001z" />
    <glyph glyph-name="zoom"
      unicode="&#xEA38;"
      horiz-adv-x="512" d="M293.106176 268.0320000000001V179.2H265.9701760000001V268.0320000000001H177.13792V295.168H265.9701760000001V384H293.106176V295.168H381.938176V268.0320000000001H293.106176zM279.538176 474.88C386.2824960000001 474.88 472.818176 388.3456 472.818176 281.6C472.818176 174.85568 386.2824960000001 88.3199999999999 279.538176 88.3199999999999C231.233024 88.3199999999999 187.066624 106.04032 153.18528 135.3344L59.094016 41.24416L39.181824 61.15584L133.273088 155.24864C103.978496 189.12768 86.25792 233.29536 86.25792 281.6C86.25792 388.3456 172.79232 474.88 279.538176 474.88zM444.6581760000001 281.6C444.6581760000001 372.793344 370.730496 446.7200000000001 279.538176 446.7200000000001C188.344832 446.7200000000001 114.41792 372.793344 114.41792 281.6C114.41792 190.40768 188.344832 116.48 279.538176 116.48C370.730496 116.48 444.6581760000001 190.40768 444.6581760000001 281.6z" />
  </font>
</defs>
</svg>
